<svg id="visual" viewBox="0 0 900 600" width="900" height="600" xmlns="http://www.w3.org/2000/svg" xmlns:xlink="http://www.w3.org/1999/xlink" version="1.1"><rect x="0" y="0" width="900" height="600" fill="#000509"></rect><path d="M0 474L25 482.5C50 491 100 508 150 515.2C200 522.3 250 519.7 300 518.7C350 517.7 400 518.3 450 513.5C500 508.7 550 498.3 600 490.5C650 482.7 700 477.3 750 486.8C800 496.3 850 520.7 875 532.8L900 545L900 601L875 601C850 601 800 601 750 601C700 601 650 601 600 601C550 601 500 601 450 601C400 601 350 601 300 601C250 601 200 601 150 601C100 601 50 601 25 601L0 601Z" fill="#e15879"></path><path d="M0 539L25 535.2C50 531.3 100 523.7 150 517C200 510.3 250 504.7 300 512.3C350 520 400 541 450 548.5C500 556 550 550 600 540.5C650 531 700 518 750 510.3C800 502.7 850 500.3 875 499.2L900 498L900 601L875 601C850 601 800 601 750 601C700 601 650 601 600 601C550 601 500 601 450 601C400 601 350 601 300 601C250 601 200 601 150 601C100 601 50 601 25 601L0 601Z" fill="#c43964"></path><path d="M0 552L25 552.7C50 553.3 100 554.7 150 555.2C200 555.7 250 555.3 300 553.2C350 551 400 547 450 547.7C500 548.3 550 553.7 600 554.8C650 556 700 553 750 549.5C800 546 850 542 875 540L900 538L900 601L875 601C850 601 800 601 750 601C700 601 650 601 600 601C550 601 500 601 450 601C400 601 350 601 300 601C250 601 200 601 150 601C100 601 50 601 25 601L0 601Z" fill="#a80f4f"></path></svg>