<?xml version="1.0" encoding="UTF-8" standalone="no"?><svg xmlns="http://www.w3.org/2000/svg" xmlns:xlink="http://www.w3.org/1999/xlink" contentScriptType="text/ecmascript" fill="#000000" width="238.4" zoomAndPan="magnify" contentStyleType="text/css" viewBox="0.0 0.0 238.4 247.2" height="247.2" preserveAspectRatio="xMidYMid meet" version="1"><defs><clipPath id="a"><path d="M 147 0 L 238.398438 0 L 238.398438 97 L 147 97 Z M 147 0"/></clipPath><clipPath id="b"><path d="M 0 92 L 216 92 L 216 247.238281 L 0 247.238281 Z M 0 92"/></clipPath></defs><g><g id="change1_9" clip-path="url(#a)"><path fill="#000000" d="M 237.816406 34.066406 C 238.347656 33.597656 238.335938 33.101562 237.785156 32.644531 C 238.027344 31.496094 238.972656 31.152344 237.882812 30.082031 C 238.234375 29.945312 238.328125 29.339844 238.320312 28.679688 C 238.28125 28.023438 238.152344 27.316406 238.148438 26.945312 C 238.054688 25.375 237.410156 23.910156 236.46875 22.65625 C 236.613281 22.257812 237.019531 22.828125 237.207031 22.398438 C 236.515625 21.988281 235.894531 19.730469 235.476562 19.007812 C 234.726562 17.484375 234.863281 17.609375 233.488281 17.238281 C 233.851562 17.078125 234.046875 16.785156 234.023438 16.363281 C 233.761719 16.390625 233.5 16.363281 233.242188 16.28125 C 233.660156 15.757812 233.15625 15.355469 232.777344 14.75 L 232.738281 14.050781 C 232.339844 13.980469 232 13.816406 231.691406 13.570312 C 231.433594 13.164062 231.304688 12.335938 231.074219 11.988281 C 230.660156 11.398438 230.246094 11.707031 230.015625 11.457031 C 229.601562 11.003906 229.25 10.425781 228.851562 9.878906 C 228.46875 9.3125 228.011719 8.792969 227.429688 8.464844 C 227.195312 8.75 226.898438 8.941406 226.542969 9.046875 C 226.355469 8.621094 226.300781 8.214844 226.414062 7.785156 C 226.191406 7.714844 225.976562 7.710938 225.761719 7.765625 C 225.535156 7.164062 225.128906 6.695312 224.566406 6.367188 C 223.59375 5.515625 223.363281 5.5 222.65625 5.894531 C 221.671875 5.65625 221.582031 4.316406 220.746094 3.902344 C 220.132812 3.683594 219.523438 3.671875 218.9375 3.851562 C 218.972656 3.554688 218.875 3.304688 218.644531 3.128906 C 217.84375 2.828125 218.191406 2.5 217.160156 2.683594 C 216.136719 2.914062 217.136719 3.019531 216.777344 3.53125 C 216.53125 3.40625 216.292969 3.417969 216.066406 3.5625 C 216.226562 3.886719 216.460938 4.117188 216.757812 4.324219 C 215.082031 4.359375 216.242188 3.769531 215.824219 2.855469 C 215.515625 2.363281 215.148438 1.921875 214.730469 1.511719 C 214.449219 0.945312 214.101562 0.929688 213.730469 1.484375 C 213.832031 1.507812 211.734375 1.113281 212.382812 1.046875 C 211.492188 1.140625 211.976562 1.445312 211.128906 1.972656 C 211.226562 1.40625 211.511719 0.28125 210.546875 0.34375 C 210.585938 0.640625 210.546875 0.921875 210.433594 1.195312 C 209.609375 1.105469 209.136719 0.648438 208.054688 0.746094 C 207.617188 -0.765625 207.714844 0.5 206.796875 0.472656 C 205.605469 0.460938 204.488281 0.0507812 203.285156 0.0390625 C 202.410156 -0.015625 200.1875 0.0742188 199.417969 0.527344 C 198.523438 1.027344 198.671875 2.261719 197.316406 1.765625 C 197.25 1.777344 199.101562 1.410156 198.1875 0.867188 C 198.121094 0.863281 197.398438 1.054688 196.730469 1.355469 C 196.0625 1.648438 195.410156 1.933594 195.410156 1.933594 L 196.976562 5.882812 C 196.976562 5.882812 197.339844 5.742188 197.804688 5.5625 C 198.265625 5.371094 198.855469 5.195312 199.300781 5.09375 C 199.546875 4.972656 202.035156 4.636719 201.355469 4.1875 C 201.695312 4.199219 202.421875 4.113281 203.199219 4.023438 C 203.773438 3.976562 204.363281 3.929688 204.832031 3.894531 C 205.300781 3.878906 205.644531 3.867188 205.714844 3.863281 C 207.414062 3.835938 209.410156 4.015625 211.046875 4.46875 C 212.570312 4.90625 214.03125 5.554688 215.5 6.175781 C 217.179688 6.910156 218.28125 7.183594 219.546875 8.3125 C 220.902344 9.515625 222.824219 10.269531 224.210938 11.476562 C 225.804688 12.871094 227.28125 14.351562 228.664062 15.953125 C 231.398438 19.113281 233.519531 22.800781 233.921875 26.984375 C 234.023438 28.039062 234.105469 29.082031 234.136719 30.125 C 234.179688 30.640625 234.148438 31.171875 234.125 31.703125 L 234.085938 33.296875 C 234.132812 34.367188 233.894531 35.410156 233.753906 36.46875 C 233.660156 36.992188 233.625 37.53125 233.46875 38.042969 L 232.976562 39.574219 C 232.804688 40.074219 232.652344 40.589844 232.503906 41.109375 C 232.304688 41.613281 232.105469 42.125 231.902344 42.636719 C 231.710938 43.152344 231.519531 43.675781 231.324219 44.195312 C 231.113281 44.710938 230.839844 45.203125 230.59375 45.707031 C 230.09375 46.710938 229.582031 47.714844 228.878906 48.585938 C 228.195312 49.46875 227.546875 50.351562 226.664062 51.019531 C 226.191406 51.371094 225.21875 52.480469 224.214844 53.378906 C 223.222656 54.285156 222.339844 55.09375 222.339844 55.09375 L 222.492188 55.246094 C 222.492188 55.246094 222.230469 55.5625 221.835938 55.917969 C 221.449219 56.28125 220.972656 56.722656 220.609375 57.039062 C 220.492188 57.140625 219.851562 57.671875 219.40625 58.140625 C 219.003906 58.53125 218.746094 58.882812 219.144531 58.902344 C 218.367188 59.320312 215.773438 61.617188 215.53125 61.722656 C 214.820312 62.261719 214.0625 62.851562 213.28125 63.410156 C 212.480469 63.941406 211.671875 64.460938 210.910156 64.910156 C 209.5 65.757812 207.925781 66.378906 206.488281 67.230469 C 204.777344 68.128906 203.894531 68.898438 202.1875 69.402344 C 201.265625 69.671875 200.386719 70.15625 199.519531 70.683594 C 198.644531 71.195312 197.773438 71.726562 196.902344 72.132812 C 194.875 73.0625 192.832031 73.984375 190.828125 75.027344 C 186.820312 77.0625 183.015625 79.0625 178.742188 80.480469 C 174.394531 81.902344 170.417969 84.085938 166.140625 85.65625 C 161.910156 87.207031 157.683594 89.820312 153.226562 90.648438 C 152.039062 90.867188 147.285156 92.417969 147.285156 92.417969 L 148.863281 96.523438 C 148.863281 96.523438 149.742188 95.902344 150.335938 95.613281 C 151.445312 95.070312 152.730469 94.511719 153.902344 94.105469 C 156.726562 93.132812 158.683594 93 160.871094 90.816406 C 161.277344 91.847656 162.4375 90.976562 163.0625 90.78125 C 163.546875 90.433594 164.089844 90.253906 164.683594 90.238281 C 164.863281 89.835938 165.082031 89.449219 165.335938 89.085938 C 165.832031 90.425781 172.167969 87.640625 173.085938 87.117188 C 172.953125 86.914062 172.925781 86.699219 173.003906 86.472656 C 173.199219 86.425781 173.339844 86.492188 173.421875 86.671875 C 174.0625 86.953125 174.46875 86.757812 174.625 86.066406 C 175.726562 85.835938 176.335938 86.503906 176.882812 85.164062 C 177.375 85.738281 179.089844 84.753906 179.746094 84.570312 C 181.144531 84.179688 182.320312 83.328125 183.425781 82.34375 C 183.820312 82.464844 183.324219 82.894531 183.746094 83.054688 C 184.042969 82.324219 186.152344 81.695312 186.851562 81.367188 C 188.300781 80.710938 188.183594 80.910156 188.652344 79.570312 C 188.769531 79.957031 189.027344 80.171875 189.429688 80.21875 C 189.429688 79.960938 189.488281 79.714844 189.601562 79.476562 C 190.050781 79.976562 190.476562 79.539062 191.121094 79.3125 L 191.78125 79.4375 C 191.917969 79.074219 192.132812 78.769531 192.425781 78.53125 C 192.867188 78.394531 193.660156 78.503906 194.027344 78.382812 C 194.671875 78.171875 194.507812 77.699219 194.796875 77.558594 C 195.855469 77.050781 197.328125 77.097656 198.335938 76.308594 C 198.171875 75.980469 198.109375 75.632812 198.15625 75.261719 C 198.601562 75.257812 198.992188 75.394531 199.324219 75.6875 C 199.476562 75.523438 199.570312 75.332031 199.609375 75.117188 C 200.226562 75.175781 200.804688 75.050781 201.335938 74.734375 C 202.484375 74.28125 202.617188 74.136719 202.621094 73.320312 C 203.296875 72.578125 204.488281 73.277344 205.238281 72.804688 C 205.734375 72.433594 206.070312 71.953125 206.246094 71.371094 C 206.46875 71.570312 206.71875 71.636719 206.992188 71.566406 C 207.6875 71.128906 207.742188 71.601562 208.195312 70.6875 C 208.636719 69.773438 207.949219 70.464844 207.765625 69.863281 C 208.015625 69.761719 208.148438 69.566406 208.175781 69.300781 C 207.832031 69.226562 207.496094 69.25 207.15625 69.359375 C 208.171875 68.03125 207.910156 69.304688 208.867188 69.5625 C 209.425781 69.625 209.988281 69.644531 210.554688 69.621094 C 211.152344 69.796875 211.375 69.558594 211.210938 68.914062 C 211.132812 68.976562 212.800781 67.777344 212.414062 68.273438 C 212.933594 67.570312 212.394531 67.699219 212.613281 66.742188 C 212.941406 67.210938 213.523438 68.214844 214.136719 67.523438 C 213.910156 67.335938 213.746094 67.101562 213.636719 66.828125 C 214.269531 66.324219 214.941406 66.414062 215.648438 65.625 C 216.9375 66.519531 216.054688 65.605469 216.753906 65.058594 C 217.65625 64.34375 218.789062 64.085938 219.726562 63.4375 C 220.414062 62.96875 222.222656 61.894531 222.628906 61.144531 C 223.117188 60.296875 222.460938 59.285156 223.851562 59.144531 C 223.902344 59.101562 222.46875 60.21875 223.507812 60.308594 C 223.578125 60.292969 224.074219 59.789062 224.554688 59.289062 C 225.046875 58.804688 225.472656 58.273438 225.472656 58.273438 L 224.566406 57.351562 L 225.429688 58.226562 C 225.429688 58.226562 225.992188 57.261719 226.417969 56.734375 C 226.824219 56.25 227.261719 55.730469 227.695312 55.210938 C 228.113281 54.671875 228.546875 54.148438 228.96875 53.671875 C 230.023438 52.550781 230.863281 51.597656 231.582031 50.578125 C 231.929688 50.0625 232.285156 49.558594 232.503906 48.933594 C 232.722656 48.308594 232.886719 47.621094 232.972656 46.839844 C 233.921875 47.363281 234.371094 45.9375 234.640625 45.308594 C 234.753906 44.6875 235.015625 44.160156 235.441406 43.699219 C 235.289062 43.277344 235.171875 42.84375 235.09375 42.40625 C 235.808594 42.710938 236.59375 41.058594 237.277344 39.1875 C 237.613281 38.257812 237.722656 37.222656 237.875 36.386719 C 237.996094 35.546875 238.101562 34.886719 238.074219 34.601562 C 237.835938 34.628906 237.632812 34.546875 237.457031 34.359375 C 237.5 34.15625 237.621094 34.058594 237.816406 34.066406"/></g><g id="change1_1"><path fill="#000000" d="M 94.308594 118.6875 C 94.351562 118.566406 94.363281 118.476562 94.28125 118.390625 C 94.171875 118.46875 94.117188 118.550781 94.308594 118.6875"/></g><g id="change1_2"><path fill="#000000" d="M 24 164.792969 C 23.992188 164.664062 23.976562 164.578125 23.867188 164.527344 C 23.792969 164.636719 23.773438 164.734375 24 164.792969"/></g><g id="change1_3"><path fill="#000000" d="M 27.007812 227.027344 C 26.910156 227.105469 26.851562 227.171875 26.871094 227.289062 C 27.003906 227.285156 27.089844 227.246094 27.007812 227.027344"/></g><g id="change1_4"><path fill="#000000" d="M 103.398438 198.144531 C 103.492188 198.050781 103.53125 197.960938 103.316406 197.859375 C 103.300781 197.984375 103.300781 198.074219 103.398438 198.144531"/></g><g id="change1_5"><path fill="#000000" d="M 177.816406 155.644531 C 177.734375 155.746094 177.6875 155.824219 177.742188 155.933594 C 177.878906 155.898438 177.964844 155.835938 177.816406 155.644531"/></g><g id="change1_6"><path fill="#000000" d="M 169.238281 212.449219 C 169.261719 212.324219 169.261719 212.234375 169.164062 212.160156 C 169.070312 212.253906 169.027344 212.34375 169.238281 212.449219"/></g><g id="change1_7"><path fill="#000000" d="M 190.378906 234.867188 C 190.488281 234.800781 190.546875 234.71875 190.359375 234.574219 C 190.316406 234.691406 190.296875 234.777344 190.378906 234.867188"/></g><g id="change1_8" clip-path="url(#b)"><path fill="#000000" d="M 212.316406 224.15625 C 211.332031 224.882812 210.152344 225.617188 209.066406 226.183594 C 206.433594 227.546875 204.539062 227.871094 202.59375 230.246094 C 202.09375 229.257812 201.035156 230.21875 200.433594 230.457031 C 199.984375 230.84375 199.460938 231.050781 198.871094 231.097656 C 198.722656 231.511719 198.53125 231.90625 198.300781 232.285156 C 197.75 231.046875 191.617188 233.964844 190.695312 234.449219 C 190.832031 234.648438 190.859375 234.863281 190.78125 235.09375 C 190.585938 235.136719 190.449219 235.070312 190.363281 234.890625 C 189.730469 234.597656 189.339844 234.796875 189.175781 235.480469 C 188.082031 235.695312 187.496094 234.996094 186.925781 236.3125 C 186.453125 235.722656 184.738281 236.636719 184.078125 236.769531 C 182.691406 237.085938 181.484375 237.820312 180.3125 238.703125 C 179.9375 238.550781 180.457031 238.160156 180.054688 237.964844 C 179.710938 238.675781 177.578125 239.078125 176.859375 239.3125 C 175.363281 239.785156 175.503906 239.585938 174.875 240.851562 C 174.808594 240.453125 174.582031 240.203125 174.199219 240.101562 C 174.164062 240.359375 174.074219 240.59375 173.929688 240.8125 C 173.5625 240.257812 173.085938 240.628906 172.425781 240.746094 L 171.800781 240.519531 C 171.613281 240.855469 171.359375 241.117188 171.035156 241.300781 C 170.582031 241.363281 169.828125 241.113281 169.453125 241.15625 C 168.792969 241.238281 168.871094 241.734375 168.5625 241.816406 C 167.414062 242.117188 166.09375 241.78125 165.011719 242.21875 C 165.078125 242.582031 165.050781 242.929688 164.910156 243.269531 C 164.496094 243.148438 164.179688 242.898438 163.96875 242.511719 C 163.789062 242.613281 163.648438 242.761719 163.546875 242.949219 C 163.015625 242.695312 162.480469 242.613281 161.914062 242.691406 C 160.773438 242.65625 160.621094 242.679688 160.273438 243.421875 C 159.367188 243.800781 158.722656 242.578125 157.941406 242.597656 C 157.390625 242.621094 156.890625 242.835938 156.429688 243.199219 C 156.382812 242.902344 156.246094 242.695312 156.019531 242.582031 C 155.289062 242.484375 155.542969 242.128906 154.691406 242.488281 C 153.816406 242.847656 154.695312 242.820312 154.429688 243.378906 C 154.191406 243.28125 153.972656 243.320312 153.765625 243.488281 C 153.9375 243.78125 154.1875 244.011719 154.511719 244.164062 C 152.855469 244.378906 153.925781 243.671875 153.519531 242.808594 C 153.242188 242.335938 152.964844 241.910156 152.683594 241.511719 C 152.566406 240.933594 152.332031 240.914062 151.878906 241.402344 C 151.914062 241.492188 150.449219 240.660156 150.980469 240.742188 C 150.253906 240.605469 150.488281 241.042969 149.59375 241.144531 C 149.949219 240.703125 150.742188 239.847656 150.097656 239.59375 C 149.941406 239.832031 149.746094 240.039062 149.5 240.207031 C 149.234375 239.992188 149.160156 239.695312 149.023438 239.4375 C 148.875 239.183594 148.769531 238.898438 148.484375 238.582031 C 149.617188 237.515625 148.503906 238.304688 148.25 237.605469 C 147.851562 236.746094 148.15625 235.824219 148.253906 235.007812 C 148.277344 234.378906 148.835938 232.917969 148.859375 232.234375 C 148.832031 231.460938 147.828125 230.75 149.03125 230.226562 C 149.042969 230.175781 148.238281 231.554688 149.199219 231.308594 C 149.246094 231.273438 149.472656 230.730469 149.71875 230.1875 C 149.964844 229.648438 150.246094 229.117188 150.246094 229.117188 L 150.191406 229.085938 C 150.191406 229.085938 150.273438 228.847656 150.378906 228.539062 C 150.5 228.238281 150.667969 227.867188 150.820312 227.597656 C 151.429688 226.597656 152.257812 225.523438 153.097656 224.660156 C 155.15625 222.550781 156.789062 221.828125 158.140625 219.09375 C 158.84375 219.941406 159.640625 218.773438 160.1875 218.433594 C 160.546875 217.972656 160.996094 217.644531 161.5625 217.488281 C 161.628906 217.054688 161.734375 216.632812 161.886719 216.21875 C 162.660156 217.328125 168.101562 213.289062 168.933594 212.640625 C 168.761719 212.46875 168.691406 212.261719 168.726562 212.023438 C 168.90625 211.941406 169.054688 211.980469 169.171875 212.140625 C 169.851562 212.296875 170.199219 212.023438 170.226562 211.320312 C 171.269531 210.902344 171.976562 211.453125 172.273438 210.042969 C 172.859375 210.523438 174.367188 209.265625 174.980469 208.972656 C 176.285156 208.355469 177.308594 207.34375 178.242188 206.1875 C 178.648438 206.242188 178.226562 206.75 178.671875 206.839844 C 178.847656 206.078125 180.816406 205.097656 181.460938 204.675781 C 182.792969 203.792969 182.707031 204.003906 182.953125 202.609375 C 183.132812 202.96875 183.425781 203.136719 183.828125 203.121094 C 183.789062 202.863281 183.808594 202.609375 183.878906 202.355469 C 184.402344 202.773438 184.753906 202.261719 185.347656 201.929688 L 186.027344 201.933594 C 186.097656 201.550781 186.261719 201.21875 186.507812 200.929688 C 186.921875 200.714844 187.730469 200.675781 188.074219 200.488281 C 188.675781 200.164062 188.425781 199.730469 188.6875 199.535156 C 189.632812 198.828125 191.105469 198.554688 191.9375 197.558594 C 191.707031 197.273438 191.574219 196.945312 191.542969 196.578125 C 191.980469 196.476562 192.398438 196.535156 192.785156 196.742188 C 192.898438 196.546875 192.949219 196.335938 192.941406 196.117188 C 193.554688 196.03125 194.09375 195.765625 194.550781 195.328125 C 195.578125 194.605469 195.675781 194.417969 195.480469 193.632812 C 195.96875 192.757812 197.277344 193.058594 197.898438 192.386719 C 198.300781 191.898438 198.480469 191.300781 198.476562 190.683594 C 198.753906 190.804688 199.015625 190.785156 199.261719 190.625 C 199.804688 189.976562 200.007812 190.394531 200.125 189.335938 C 200.226562 188.296875 199.8125 189.214844 199.429688 188.714844 C 199.628906 188.523438 199.695312 188.296875 199.621094 188.039062 C 199.269531 188.09375 198.957031 188.234375 198.6875 188.464844 C 199.15625 186.859375 199.375 188.148438 200.382812 188.023438 C 200.933594 187.859375 201.457031 187.617188 201.984375 187.335938 C 202.617188 187.214844 202.753906 186.886719 202.304688 186.359375 C 202.25 186.453125 203.210938 184.46875 203.097656 185.125 C 203.246094 184.226562 202.808594 184.621094 202.496094 183.667969 C 203.023438 183.882812 204.058594 184.410156 204.226562 183.398438 C 203.925781 183.382812 203.652344 183.289062 203.410156 183.121094 C 203.691406 182.320312 204.175781 181.867188 204.265625 180.738281 C 205.808594 180.417969 204.542969 180.386719 204.644531 179.421875 C 204.746094 178.789062 204.78125 178.175781 204.902344 177.550781 C 205.039062 176.925781 205.074219 176.296875 205.019531 175.652344 C 205.003906 175.414062 204.976562 175.085938 204.949219 174.71875 C 204.90625 174.351562 204.800781 173.960938 204.707031 173.5625 C 204.605469 173.167969 204.492188 172.777344 204.375 172.4375 C 204.230469 172.113281 204.0625 171.851562 203.914062 171.675781 C 203.203125 170.882812 202.113281 171.210938 202.261719 169.847656 C 202.246094 169.816406 202.4375 170.21875 202.671875 170.5 C 202.890625 170.804688 203.15625 171.015625 203.335938 170.484375 C 203.351562 170.292969 201.769531 168.039062 201.769531 168.039062 L 201.714844 168.074219 C 201.714844 168.074219 201.511719 167.878906 201.246094 167.617188 C 200.980469 167.355469 200.664062 167.03125 200.445312 166.765625 C 200.054688 166.25 199.597656 165.726562 199.140625 165.203125 C 198.691406 164.675781 198.269531 164.125 197.816406 163.648438 C 196.804688 162.4375 195.933594 161.453125 194.9375 160.628906 C 194.417969 160.246094 193.878906 159.890625 193.269531 159.605469 C 192.628906 159.359375 191.929688 159.167969 191.140625 159.074219 C 191.660156 158.097656 190.097656 157.777344 189.472656 157.464844 C 188.824219 157.386719 188.265625 157.15625 187.75 156.757812 C 187.332031 156.953125 186.898438 157.148438 186.460938 157.285156 C 186.558594 156.949219 186.179688 156.585938 185.515625 156.253906 C 184.847656 155.992188 183.898438 155.675781 182.898438 155.574219 C 182.398438 155.511719 181.886719 155.464844 181.394531 155.425781 C 180.902344 155.421875 180.429688 155.433594 180 155.445312 C 179.140625 155.453125 178.480469 155.566406 178.207031 155.621094 C 178.277344 155.851562 178.230469 156.066406 178.082031 156.261719 C 177.871094 156.25 177.75 156.144531 177.722656 155.949219 C 177.160156 155.484375 176.675781 155.570312 176.335938 156.210938 C 175.171875 156.179688 174.671875 155.363281 173.832031 156.605469 C 173.640625 156.277344 173.050781 156.277344 172.421875 156.375 C 171.796875 156.484375 171.144531 156.710938 170.789062 156.757812 C 170.039062 156.855469 169.339844 157.113281 168.675781 157.445312 C 168.007812 157.769531 167.375 158.179688 166.785156 158.660156 C 166.390625 158.519531 166.929688 158.109375 166.507812 157.929688 C 166.332031 158.289062 165.691406 158.59375 165.011719 158.863281 C 164.335938 159.148438 163.613281 159.378906 163.25 159.53125 C 161.753906 160.167969 161.882812 159.992188 161.402344 161.328125 C 161.28125 160.945312 161.019531 160.734375 160.609375 160.6875 C 160.609375 160.949219 160.550781 161.195312 160.4375 161.433594 C 159.980469 160.941406 159.554688 161.402344 158.910156 161.648438 L 158.238281 161.550781 C 158.109375 161.921875 157.894531 162.222656 157.613281 162.476562 C 157.171875 162.636719 156.367188 162.566406 156 162.703125 C 155.355469 162.945312 155.546875 163.410156 155.257812 163.5625 C 154.230469 164.144531 152.730469 164.203125 151.78125 165.0625 C 151.972656 165.378906 152.054688 165.722656 152.035156 166.089844 C 151.589844 166.128906 151.191406 166.015625 150.839844 165.746094 C 150.699219 165.921875 150.617188 166.117188 150.59375 166.332031 C 149.972656 166.308594 149.414062 166.488281 148.90625 166.847656 C 147.789062 167.359375 147.664062 167.511719 147.714844 168.320312 C 147.089844 169.105469 145.871094 168.496094 145.152344 169.003906 C 144.675781 169.390625 144.367188 169.886719 144.226562 170.476562 C 143.992188 170.285156 143.742188 170.234375 143.476562 170.316406 C 142.808594 170.789062 142.734375 170.316406 142.328125 171.253906 C 141.933594 172.183594 142.585938 171.46875 142.796875 172.058594 C 142.550781 172.171875 142.421875 172.367188 142.40625 172.632812 C 142.753906 172.695312 143.09375 172.660156 143.425781 172.53125 C 142.464844 173.902344 142.667969 172.617188 141.703125 172.394531 C 141.148438 172.34375 140.585938 172.339844 140.023438 172.378906 C 139.425781 172.21875 139.214844 172.457031 139.398438 173.101562 C 139.484375 173.050781 137.859375 174.265625 138.226562 173.761719 C 137.71875 174.453125 138.253906 174.328125 138.046875 175.277344 C 137.714844 174.8125 137.121094 173.816406 136.523438 174.496094 C 136.75 174.6875 136.914062 174.917969 137.023438 175.191406 C 136.394531 175.6875 135.75 175.625 135.03125 176.375 C 133.761719 175.445312 134.628906 176.378906 133.921875 176.890625 C 133.007812 177.5625 131.90625 177.8125 130.933594 178.34375 C 130.21875 178.742188 128.414062 179.679688 127.929688 180.335938 C 127.371094 181.09375 127.890625 182.183594 126.515625 182.128906 C 126.460938 182.164062 127.992188 181.261719 126.984375 181.03125 C 126.84375 181.046875 124.824219 182.726562 124.824219 182.726562 L 124.859375 182.777344 C 124.859375 182.777344 124.15625 183.601562 123.65625 184.027344 C 122.710938 184.824219 121.601562 185.683594 120.566406 186.359375 C 118.070312 188.003906 116.203125 188.601562 114.613281 191.253906 C 113.972656 190.347656 113.0625 191.476562 112.5 191.808594 C 112.109375 192.261719 111.632812 192.566406 111.054688 192.71875 C 110.976562 193.152344 110.855469 193.578125 110.695312 193.992188 C 109.90625 192.820312 104.40625 196.96875 103.621094 197.660156 C 103.796875 197.824219 103.871094 198.03125 103.84375 198.269531 C 103.664062 198.359375 103.511719 198.324219 103.390625 198.167969 C 102.707031 198.027344 102.363281 198.3125 102.355469 199.015625 C 101.328125 199.46875 100.597656 198.941406 100.34375 200.359375 C 99.746094 199.902344 98.28125 201.203125 97.675781 201.515625 C 96.402344 202.175781 95.40625 203.203125 94.507812 204.375 C 94.105469 204.324219 94.507812 203.8125 94.066406 203.730469 C 93.914062 204.503906 91.964844 205.488281 91.332031 205.910156 C 90.023438 206.789062 90.101562 206.5625 89.855469 207.957031 C 89.679688 207.597656 89.390625 207.421875 88.992188 207.433594 C 89.027344 207.691406 89.011719 207.945312 88.9375 208.191406 C 88.417969 207.761719 88.070312 208.265625 87.472656 208.574219 L 86.804688 208.542969 C 86.722656 208.921875 86.554688 209.242188 86.296875 209.515625 C 85.878906 209.707031 85.085938 209.695312 84.742188 209.859375 C 84.132812 210.136719 84.355469 210.589844 84.085938 210.757812 C 83.101562 211.371094 81.660156 211.511719 80.746094 212.351562 C 80.941406 212.664062 81.035156 213.003906 81.023438 213.371094 C 80.582031 213.410156 80.183594 213.300781 79.835938 213.035156 C 79.703125 213.210938 79.625 213.402344 79.605469 213.621094 C 79 213.605469 78.441406 213.757812 77.941406 214.101562 C 76.835938 214.582031 76.714844 214.722656 76.742188 215.535156 C 76.097656 216.292969 74.910156 215.609375 74.191406 216.066406 C 73.707031 216.421875 73.378906 216.894531 73.191406 217.464844 C 72.976562 217.253906 72.730469 217.179688 72.460938 217.234375 C 71.773438 217.640625 71.738281 217.164062 71.265625 218.058594 C 70.792969 218.941406 71.496094 218.296875 71.652344 218.902344 C 71.398438 218.996094 71.253906 219.171875 71.210938 219.4375 C 71.546875 219.535156 71.886719 219.535156 72.226562 219.433594 C 71.140625 220.710938 71.46875 219.453125 70.539062 219.121094 C 69.992188 219.007812 69.445312 218.929688 68.894531 218.894531 C 68.328125 218.65625 68.097656 218.867188 68.199219 219.53125 C 68.292969 219.503906 66.539062 220.445312 66.964844 220.003906 C 66.375 220.605469 66.917969 220.566406 66.566406 221.472656 C 66.316406 220.957031 65.886719 219.882812 65.207031 220.453125 C 65.398438 220.679688 65.523438 220.933594 65.585938 221.222656 C 64.894531 221.613281 64.273438 221.414062 63.445312 222.011719 C 62.386719 220.851562 63.058594 221.933594 62.277344 222.300781 C 61.261719 222.757812 60.148438 222.738281 59.109375 223.03125 C 58.332031 223.21875 56.414062 223.65625 55.78125 224.125 C 55.054688 224.671875 55.21875 225.867188 53.949219 225.402344 C 53.886719 225.421875 55.582031 225.023438 54.703125 224.5 C 54.636719 224.480469 54.015625 224.730469 53.40625 224.960938 C 52.792969 225.183594 52.195312 225.402344 52.195312 225.402344 L 52.59375 226.828125 L 52.214844 225.464844 C 52.214844 225.464844 51.304688 226.007812 50.695312 226.210938 C 49.550781 226.589844 48.234375 226.988281 47.039062 227.144531 C 44.136719 227.601562 42.34375 227.1875 39.65625 228.613281 C 39.59375 227.503906 38.253906 227.984375 37.613281 227.933594 C 37.050781 228.089844 36.492188 228.082031 35.949219 227.875 C 35.644531 228.183594 35.304688 228.460938 34.9375 228.703125 C 34.957031 228 33.289062 227.691406 31.519531 227.472656 C 29.746094 227.261719 27.851562 227.113281 27.351562 227.089844 C 27.363281 227.332031 27.28125 227.53125 27.097656 227.6875 C 26.914062 227.628906 26.832031 227.496094 26.851562 227.300781 C 26.472656 226.726562 26.050781 226.714844 25.566406 227.195312 C 24.558594 226.757812 24.46875 225.921875 23.300781 226.667969 C 23.277344 226.289062 22.808594 226.042969 22.269531 225.867188 C 21.730469 225.683594 21.140625 225.515625 20.851562 225.382812 C 19.636719 224.804688 18.335938 224.605469 16.9375 224.449219 C 16.789062 224.085938 17.40625 224.152344 17.273438 223.742188 C 16.910156 223.894531 16.3125 223.667969 15.742188 223.34375 C 15.457031 223.183594 15.167969 223.015625 14.917969 222.855469 C 14.679688 222.675781 14.476562 222.523438 14.328125 222.425781 C 13.097656 221.628906 13.367188 221.609375 12.007812 221.855469 C 12.292969 221.574219 12.371094 221.25 12.257812 220.898438 C 12.03125 221.015625 11.789062 221.082031 11.53125 221.09375 C 11.808594 220.480469 11.289062 220.292969 10.871094 219.824219 L 10.777344 219.210938 C 10.402344 219.234375 10.085938 219.132812 9.789062 218.945312 C 9.554688 218.582031 9.460938 217.859375 9.3125 217.546875 C 9.015625 217.015625 8.585938 217.28125 8.402344 217.046875 C 7.757812 216.160156 7.6875 214.8125 6.957031 213.945312 C 6.628906 214.117188 6.289062 214.195312 5.917969 214.164062 C 5.910156 213.738281 6.089844 213.359375 6.390625 213.050781 C 6.242188 212.914062 6.0625 212.824219 5.851562 212.78125 C 5.941406 212.214844 5.890625 211.679688 5.664062 211.160156 C 5.394531 210.070312 5.332031 209.925781 4.535156 209.785156 C 3.9375 209.011719 4.933594 208.070312 4.71875 207.308594 C 4.507812 206.78125 4.222656 206.335938 3.734375 205.988281 C 4 205.859375 4.15625 205.664062 4.191406 205.40625 C 4.050781 204.652344 4.527344 204.792969 3.878906 204.054688 C 3.242188 203.308594 3.570312 204.171875 2.949219 204.089844 C 2.960938 203.824219 2.855469 203.628906 2.625 203.484375 C 2.402344 203.75 2.273438 204.0625 2.238281 204.414062 C 1.476562 202.921875 2.507812 203.710938 3.191406 203.007812 C 3.523438 202.566406 3.820312 202.117188 4.082031 201.65625 C 4.539062 201.273438 4.46875 200.996094 3.832031 200.792969 C 3.820312 200.886719 3.78125 198.96875 3.980469 199.53125 C 3.746094 198.753906 3.515625 199.234375 2.898438 198.496094 C 3.46875 198.53125 4.613281 198.691406 4.453125 197.859375 C 4.160156 197.902344 3.878906 197.882812 3.597656 197.789062 C 3.65625 197.019531 4.101562 196.605469 4.058594 195.621094 C 5.613281 195.398438 4.335938 195.355469 4.472656 194.527344 C 4.679688 193.464844 5.3125 192.609375 5.742188 191.652344 C 6.03125 190.933594 6.910156 189.238281 6.964844 188.472656 C 7.003906 187.585938 5.984375 186.910156 7.195312 186.289062 C 7.21875 186.234375 6.386719 187.734375 7.363281 187.433594 C 7.421875 187.394531 7.660156 186.785156 7.882812 186.1875 C 8.101562 185.585938 8.351562 185.007812 8.351562 185.007812 L 8.238281 184.949219 L 8.292969 184.976562 C 8.292969 184.976562 8.5 183.953125 8.769531 183.375 C 9.246094 182.273438 9.894531 181.066406 10.582031 180.078125 C 12.257812 177.675781 13.792969 176.589844 14.542969 173.632812 C 15.414062 174.324219 15.953125 173.007812 16.414062 172.554688 C 16.667969 172.027344 17.046875 171.613281 17.570312 171.339844 C 17.535156 170.902344 17.550781 170.464844 17.605469 170.023438 C 18.128906 170.503906 19.464844 169.429688 20.785156 168.171875 C 22.113281 166.914062 23.433594 165.464844 23.742188 165.042969 C 23.539062 164.914062 23.429688 164.726562 23.40625 164.484375 C 23.566406 164.367188 23.722656 164.371094 23.867188 164.503906 C 24.5625 164.515625 24.84375 164.175781 24.71875 163.480469 C 25.625 162.835938 26.457031 163.265625 26.460938 161.828125 C 27.128906 162.1875 28.347656 160.675781 28.890625 160.273438 C 30.015625 159.410156 30.855469 158.273438 31.578125 157 C 31.984375 156.992188 31.65625 157.550781 32.105469 157.574219 C 32.152344 156.796875 33.921875 155.542969 34.484375 155.035156 C 35.679688 154.019531 35.621094 154.246094 35.695312 152.839844 C 35.914062 153.175781 36.222656 153.316406 36.617188 153.257812 C 36.546875 153.007812 36.535156 152.753906 36.578125 152.496094 C 37.140625 152.859375 37.429688 152.324219 37.976562 151.941406 L 38.636719 151.886719 C 38.667969 151.5 38.792969 151.15625 39.011719 150.851562 C 39.410156 150.621094 40.203125 150.546875 40.527344 150.351562 C 41.101562 150.007812 40.828125 149.585938 41.074219 149.386719 C 41.980469 148.664062 43.398438 148.375 44.199219 147.417969 C 43.96875 147.128906 43.839844 146.804688 43.8125 146.4375 C 44.25 146.351562 44.65625 146.425781 45.035156 146.652344 C 45.148438 146.464844 45.207031 146.265625 45.203125 146.050781 C 45.8125 146.007812 46.347656 145.785156 46.808594 145.390625 C 47.851562 144.789062 47.953125 144.632812 47.835938 143.828125 C 48.382812 142.992188 49.644531 143.546875 50.320312 143.019531 C 50.765625 142.613281 51.046875 142.117188 51.164062 141.523438 C 51.402344 141.707031 51.652344 141.753906 51.910156 141.664062 C 52.550781 141.175781 52.640625 141.648438 53.007812 140.699219 C 53.371094 139.761719 52.75 140.488281 52.523438 139.90625 C 52.765625 139.78125 52.886719 139.589844 52.898438 139.320312 C 52.550781 139.261719 52.214844 139.304688 51.890625 139.445312 C 52.816406 138.046875 52.640625 139.339844 53.597656 139.550781 C 54.15625 139.601562 54.714844 139.609375 55.273438 139.578125 C 55.867188 139.746094 56.070312 139.511719 55.890625 138.867188 C 55.804688 138.917969 57.429688 137.742188 57.058594 138.234375 C 57.570312 137.554688 57.035156 137.671875 57.261719 136.722656 C 57.582031 137.195312 58.148438 138.207031 58.75 137.542969 C 58.53125 137.347656 58.371094 137.109375 58.269531 136.832031 C 58.902344 136.347656 59.546875 136.457031 60.289062 135.746094 C 61.515625 136.738281 60.691406 135.765625 61.417969 135.292969 C 62.359375 134.683594 63.460938 134.503906 64.449219 134.035156 C 65.191406 133.703125 67.046875 132.945312 67.582031 132.339844 C 68.199219 131.640625 67.789062 130.503906 69.140625 130.691406 C 69.199219 130.660156 67.601562 131.410156 68.578125 131.738281 C 68.648438 131.738281 69.21875 131.371094 69.773438 131.003906 C 70.332031 130.640625 70.875 130.289062 70.875 130.289062 L 69.871094 128.460938 L 70.84375 130.234375 C 70.84375 130.234375 71.632812 129.507812 72.175781 129.144531 C 73.207031 128.472656 74.398438 127.746094 75.507812 127.21875 C 78.210938 125.964844 80.097656 125.601562 82.085938 123.265625 C 82.578125 124.257812 83.652344 123.296875 84.257812 123.054688 C 84.710938 122.671875 85.230469 122.449219 85.820312 122.394531 C 85.964844 121.972656 86.152344 121.574219 86.382812 121.195312 C 86.972656 122.492188 93.066406 119.347656 93.976562 118.828125 C 93.832031 118.632812 93.796875 118.417969 93.863281 118.1875 C 94.058594 118.132812 94.199219 118.195312 94.292969 118.371094 C 94.941406 118.628906 95.328125 118.414062 95.460938 117.722656 C 96.550781 117.460938 97.171875 118.105469 97.675781 116.753906 C 98.183594 117.320312 99.863281 116.308594 100.511719 116.113281 C 101.890625 115.703125 103.042969 114.847656 104.144531 113.867188 C 104.535156 113.988281 104.042969 114.421875 104.464844 114.582031 C 104.757812 113.855469 106.851562 113.226562 107.550781 112.921875 C 109.003906 112.289062 108.878906 112.480469 109.367188 111.15625 C 109.480469 111.542969 109.734375 111.765625 110.128906 111.824219 C 110.136719 111.566406 110.199219 111.320312 110.316406 111.089844 C 110.753906 111.597656 111.1875 111.171875 111.832031 110.964844 L 112.484375 111.105469 C 112.628906 110.746094 112.851562 110.453125 113.148438 110.226562 C 113.597656 110.105469 114.382812 110.246094 114.746094 110.140625 C 115.394531 109.957031 115.246094 109.480469 115.542969 109.355469 C 116.617188 108.902344 118.074219 109 119.113281 108.289062 C 118.964844 107.953125 118.925781 107.601562 118.992188 107.238281 C 119.433594 107.261719 119.8125 107.429688 120.121094 107.742188 C 120.277344 107.589844 120.382812 107.40625 120.4375 107.195312 C 121.039062 107.300781 121.613281 107.21875 122.160156 106.949219 C 123.332031 106.617188 123.472656 106.492188 123.554688 105.683594 C 124.292969 105.015625 125.386719 105.828125 126.171875 105.460938 C 126.699219 105.160156 127.085938 104.734375 127.335938 104.183594 C 127.527344 104.414062 127.761719 104.511719 128.039062 104.484375 C 128.777344 104.148438 128.761719 104.628906 129.328125 103.785156 C 129.894531 102.953125 129.121094 103.523438 129.027344 102.90625 C 129.289062 102.839844 129.453125 102.679688 129.523438 102.421875 C 129.195312 102.285156 128.855469 102.253906 128.503906 102.320312 C 129.714844 101.164062 129.265625 102.382812 130.160156 102.796875 C 130.695312 102.953125 131.242188 103.074219 131.796875 103.152344 C 132.34375 103.433594 132.59375 103.238281 132.550781 102.570312 C 132.453125 102.601562 134.292969 101.769531 133.828125 102.179688 C 134.46875 101.613281 133.917969 101.621094 134.328125 100.738281 C 134.550781 101.265625 134.910156 102.363281 135.636719 101.832031 C 135.460938 101.597656 135.347656 101.335938 135.300781 101.042969 C 136.023438 100.699219 136.632812 100.90625 137.496094 100.335938 C 138.523438 101.527344 137.886719 100.425781 138.691406 100.085938 C 139.730469 99.644531 140.855469 99.65625 141.921875 99.367188 C 142.707031 99.152344 144.675781 98.671875 145.300781 98.152344 C 146.023438 97.550781 145.78125 96.367188 147.101562 96.753906 C 147.164062 96.730469 145.460938 97.234375 146.386719 97.703125 C 146.523438 97.726562 148.886719 96.585938 148.886719 96.585938 L 147.363281 92.621094 C 147.363281 92.621094 145.796875 93.273438 144.855469 93.609375 C 144.578125 93.710938 141.96875 94.566406 142.773438 94.871094 C 141.886719 95.03125 138.621094 96.441406 138.386719 96.539062 C 136.703125 97.230469 134.746094 98.03125 133.035156 98.589844 C 131.4375 99.109375 129.777344 99.519531 128.175781 100.105469 C 126.320312 100.78125 125.3125 101.398438 123.539062 101.734375 C 121.613281 102.097656 119.757812 103.335938 117.933594 104.035156 C 115.8125 104.851562 113.734375 105.695312 111.671875 106.671875 C 107.566406 108.589844 103.726562 110.550781 99.445312 112.039062 C 97.265625 112.785156 95.191406 113.742188 93.144531 114.753906 C 91.089844 115.746094 89.0625 116.800781 86.964844 117.726562 C 82.796875 119.542969 78.808594 122.535156 74.449219 123.859375 C 73.863281 124.027344 72.433594 124.652344 71.152344 125.246094 C 69.871094 125.84375 68.726562 126.375 68.726562 126.375 L 68.832031 126.566406 C 68.832031 126.566406 67.347656 127.410156 66.472656 127.910156 C 66.207031 128.050781 63.738281 129.304688 64.585938 129.480469 C 64.238281 129.601562 63.539062 129.976562 62.808594 130.398438 C 61.738281 131.035156 60.632812 131.777344 60.503906 131.855469 C 58.957031 132.839844 57.148438 133.949219 55.582031 134.863281 C 54.117188 135.707031 52.539062 136.410156 51.09375 137.347656 C 49.421875 138.433594 48.570312 139.261719 46.894531 139.984375 C 45.09375 140.796875 43.59375 142.492188 41.976562 143.613281 C 40.117188 144.949219 38.351562 146.371094 36.597656 147.855469 C 34.910156 149.390625 33.261719 150.890625 31.613281 152.386719 C 30.003906 153.921875 28.304688 155.347656 26.523438 156.777344 C 22.890625 159.679688 20.023438 163.28125 16.800781 166.589844 C 13.601562 169.910156 11.179688 174.3125 8 177.675781 C 7.570312 178.125 6.613281 179.410156 5.8125 180.632812 C 5.011719 181.847656 4.367188 182.992188 4.367188 182.992188 L 4.5625 183.089844 C 4.558594 183.089844 4.371094 183.492188 4.125 184.007812 C 3.894531 184.535156 3.605469 185.175781 3.378906 185.644531 C 3.304688 185.796875 2.925781 186.617188 2.707031 187.28125 C 2.523438 187.859375 2.488281 188.324219 2.839844 188.128906 C 2.644531 188.453125 2.34375 189.21875 2.082031 190.054688 C 1.683594 191.273438 1.402344 192.640625 1.367188 192.796875 C 0.957031 194.660156 0.613281 196.84375 0.398438 198.71875 C 0.160156 200.464844 -0.0703125 202.257812 0.0195312 204.074219 C 0.0742188 205.121094 0.203125 205.945312 0.335938 206.742188 C 0.4375 207.546875 0.578125 208.3125 0.605469 209.28125 C 0.710938 211.398438 1.925781 213.519531 2.785156 215.429688 C 3.8125 217.664062 5.191406 219.734375 6.925781 221.515625 C 10.382812 225.085938 14.554688 227.175781 18.878906 229.121094 C 23.367188 231.054688 28.191406 231.257812 32.84375 231.546875 C 37.507812 231.839844 42.421875 230.714844 47.070312 230.671875 C 47.691406 230.667969 49.289062 230.503906 50.707031 230.234375 C 52.144531 230.011719 53.394531 229.699219 53.394531 229.699219 L 53.335938 229.492188 C 53.335938 229.492188 55.003906 228.980469 55.980469 228.675781 C 56.140625 228.632812 56.992188 228.398438 57.628906 228.144531 C 58.171875 227.90625 58.546875 227.648438 58.175781 227.5 C 58.542969 227.441406 59.304688 227.1875 60.109375 226.894531 C 61.285156 226.445312 62.507812 225.890625 62.652344 225.835938 C 64.351562 225.101562 66.300781 224.222656 67.992188 223.535156 C 69.578125 222.921875 71.207031 222.347656 72.773438 221.609375 C 74.570312 220.734375 75.515625 220.011719 77.25 219.449219 C 79.140625 218.847656 80.828125 217.351562 82.539062 216.382812 C 84.539062 215.269531 86.460938 214.078125 88.34375 212.777344 C 92.09375 210.191406 95.519531 207.5625 99.464844 205.328125 C 103.476562 203.058594 106.910156 200.046875 110.714844 197.519531 C 114.484375 195.015625 117.953125 191.445312 122.070312 189.546875 C 123.164062 189.039062 127.394531 186.378906 127.394531 186.378906 L 127.269531 186.203125 C 127.269531 186.203125 128.625 185.1875 129.453125 184.636719 C 129.699219 184.46875 132.023438 183.015625 131.167969 182.914062 C 131.988281 182.550781 134.820312 180.417969 135.03125 180.273438 C 136.503906 179.21875 138.222656 178.003906 139.769531 177.101562 C 141.203125 176.246094 142.738281 175.527344 144.179688 174.636719 C 145.855469 173.632812 146.714844 172.828125 148.394531 172.214844 C 150.203125 171.539062 151.808594 170.035156 153.503906 169.128906 C 155.464844 168.058594 157.398438 167.015625 159.339844 165.917969 C 163.195312 163.769531 166.992188 161.8125 171.269531 160.9375 C 173.433594 160.511719 175.53125 160.046875 177.648438 159.734375 C 179.757812 159.421875 181.894531 159.363281 183.957031 159.730469 C 185.984375 160.097656 188.085938 160.550781 190.046875 161.472656 C 191.996094 162.378906 193.742188 163.800781 194.867188 165.574219 C 195.011719 165.816406 195.316406 166.199219 195.660156 166.679688 C 195.988281 167.167969 196.371094 167.734375 196.730469 168.273438 C 197.390625 169.398438 197.980469 170.402344 197.980469 170.402344 L 198.164062 170.285156 C 198.164062 170.285156 198.371094 170.628906 198.644531 171.070312 C 198.902344 171.511719 199.257812 172.066406 199.441406 172.46875 C 199.496094 172.597656 199.769531 173.296875 200.0625 173.800781 C 200.300781 174.242188 200.492188 174.574219 200.667969 174.230469 C 200.675781 174.316406 200.6875 174.421875 200.71875 174.550781 C 200.769531 174.910156 201 175.394531 201.042969 175.921875 C 201.28125 176.960938 201.292969 178.089844 201.300781 178.21875 C 201.304688 179.773438 200.886719 181.605469 200.089844 183.023438 C 199.324219 184.332031 198.339844 185.523438 197.292969 186.714844 C 196.726562 187.421875 196.246094 187.984375 195.761719 188.511719 C 195.296875 189.046875 194.746094 189.5 194.03125 189.964844 C 193.261719 190.46875 192.515625 191.109375 191.832031 191.824219 C 191.101562 192.496094 190.417969 193.234375 189.644531 193.792969 C 187.863281 195.121094 186.105469 196.429688 184.320312 197.761719 C 180.765625 200.453125 177.304688 202.996094 173.308594 205.105469 C 169.246094 207.246094 165.679688 210.121094 161.832031 212.6875 C 159.925781 213.960938 158.113281 215.546875 156.339844 217.171875 C 155.4375 217.96875 154.574219 218.808594 153.667969 219.585938 C 152.792969 220.398438 151.859375 221.167969 150.945312 221.867188 C 150.453125 222.242188 149.285156 223.34375 148.292969 224.460938 C 147.289062 225.5625 146.492188 226.703125 146.492188 226.703125 L 146.675781 226.820312 C 146.675781 226.820312 146.425781 227.203125 146.132812 227.746094 C 145.824219 228.265625 145.496094 228.953125 145.242188 229.460938 C 145.167969 229.628906 144.722656 230.507812 144.546875 231.28125 C 144.378906 231.941406 144.394531 232.457031 144.726562 232.203125 C 144.558594 232.59375 144.34375 233.484375 144.300781 234.488281 C 144.25 235.222656 144.339844 235.992188 144.421875 236.589844 C 144.554688 237.175781 144.652344 237.609375 144.671875 237.695312 C 144.855469 238.207031 145.050781 238.734375 145.246094 239.277344 C 145.492188 239.796875 145.808594 240.304688 146.09375 240.820312 C 146.433594 241.296875 146.8125 241.75 147.164062 242.203125 C 147.578125 242.601562 147.980469 242.988281 148.367188 243.359375 C 149.882812 244.640625 151.628906 245.613281 153.46875 246.144531 C 155.605469 246.726562 156.878906 246.652344 158.765625 247.078125 C 160.851562 247.535156 163.175781 246.902344 165.207031 246.632812 C 166.386719 246.476562 167.605469 246.234375 168.710938 245.949219 C 169.816406 245.660156 170.925781 245.378906 172.019531 245.023438 C 176.394531 243.65625 180.4375 242.082031 184.851562 240.910156 C 189.347656 239.714844 193.414062 237.535156 197.667969 235.757812 C 201.898438 233.992188 205.902344 230.988281 210.226562 229.515625 C 210.800781 229.3125 212.230469 228.652344 213.496094 228.011719 C 214.757812 227.359375 215.886719 226.773438 215.886719 226.773438 L 213.59375 223.015625 C 213.59375 223.015625 212.84375 223.773438 212.316406 224.15625"/></g></g></svg>