<?xml version="1.0" encoding="UTF-8" standalone="no"?><svg xmlns="http://www.w3.org/2000/svg" xmlns:xlink="http://www.w3.org/1999/xlink" contentScriptType="text/ecmascript" fill="#000000" width="246.5" zoomAndPan="magnify" contentStyleType="text/css" viewBox="89.3 47.3 246.5 330.6" height="330.6" preserveAspectRatio="xMidYMid meet" version="1"><g id="change1_1"><path fill="#8c6674" d="M213.697,308.598c-0.715-21.572-1.395-43.145-1.87-64.723c-0.474-21.524-0.742-43.054-0.645-64.584 c0.097-21.747,0.568-43.493,1.535-65.219c0.85-19.089,1.575-38.2,2.612-57.28c0.114-2.093,0.239-4.185,0.38-6.277 c0.03-0.452-0.092-0.806-0.301-1.075c-0.255-0.447-0.731-0.742-1.434-0.661c-3.509,0.406-7.018,0.812-10.527,1.218 c-0.991,0.115-1.656,0.706-1.736,1.736c-3.257,42.251-6.513,84.53-7.5,126.908c-0.49,21.049-0.419,42.116,0.495,63.153 c0.907,20.883,3.179,41.695,3.631,62.597c0.506,23.4-0.061,46.847-0.213,70.25c-0.006,0.934,0.8,1.741,1.736,1.736 c4.742-0.029,9.484-0.058,14.225-0.087c0.918-0.006,1.763-0.791,1.736-1.736C215.187,352.567,214.426,330.583,213.697,308.598z"/></g><g id="change2_1"><path fill="#a3aed5" d="M304.228,91.213c-15.568-11.958-31.921-22.884-48.942-32.663c-4.797-2.756-9.646-5.417-14.542-7.992 c-1.247-0.656-2.472,0.185-2.612,1.499c-0.712,6.721-0.882,13.476-0.527,20.224c-31.646-1.852-63.299-3.569-94.959-5.151 c-9.022-0.451-18.044-0.89-27.066-1.319c-1.058-0.05-1.607,0.703-1.662,1.52c-0.716,0.156-1.366,0.69-1.447,1.61 c-1.748,19.94-1.829,40.001-0.243,59.955c0.079,0.997,0.735,1.651,1.736,1.736c34.493,2.912,69.142,3.918,103.745,2.983 c9.237-0.25,18.47-0.65,27.696-1.173c1.807,9.81,5.602,19.184,11.252,27.46c0.693,1.015,2.353,1.229,2.997,0 c9.626-18.371,20.871-35.908,33.64-52.255c3.644-4.665,7.411-9.233,11.286-13.707C305.381,93.014,305.152,91.923,304.228,91.213z"/></g><g id="change3_1"><path fill="#ed6b65" d="M280.217,201.965c-0.078-0.971-0.733-1.687-1.736-1.736c-32.061-1.547-64.123-3.094-96.184-4.64 c-8.814-0.425-17.627-0.85-26.441-1.276c0.127-5.597,1.335-11.119,3.662-16.24c0.652-1.436-0.784-3.426-2.375-2.375 c-16.387,10.83-33.205,21.004-50.414,30.475c-4.928,2.712-9.889,5.365-14.878,7.964c-0.991,0.516-1.121,1.974-0.351,2.726 c13.902,13.569,27.805,27.137,41.707,40.706c3.992,3.896,7.984,7.792,11.975,11.688c1.065,1.04,2.973,0.294,2.963-1.227 c-0.029-4.482-0.059-8.964-0.088-13.446c17.382-0.162,34.811-0.609,52.176,0.182c17.826,0.812,35.44,3.917,53.247,4.928 c9.987,0.567,19.998,0.366,29.885-1.254c0.694-0.114,1.33-0.979,1.274-1.674C283.165,238.499,281.691,220.232,280.217,201.965z"/></g><g id="change4_1"><path fill="#ed9ec4" d="M330.778,318.684c-0.051-0.066-0.097-0.132-0.16-0.196c-14.512-14.519-32.336-25.031-50.487-34.33 c-5.202-2.665-10.448-5.244-15.695-7.819c-1.191-0.584-2.562,0.124-2.612,1.499c-0.26,7.16-0.52,14.32-0.78,21.48 c-28.893,1.508-57.756,3.602-86.562,6.305c-8.285,0.777-16.565,1.605-24.84,2.48c-0.585,0.062-1.011,0.356-1.287,0.746 c-0.518,0.251-0.924,0.738-0.967,1.469c-0.973,16.671,0.326,33.422,3.806,49.753c0.148,0.696,0.953,1.326,1.674,1.274 c29.383-2.104,58.84-2.859,88.277-3.768c7.759-0.24,15.518-0.479,23.276-0.719c-0.152,4.753,0.32,9.495,1.374,14.142 c0.232,1.024,1.654,1.677,2.55,1.037c8.855-6.322,17.711-12.643,26.566-18.965c8.613-6.149,17.254-12.222,25.11-19.338 c4.38-3.967,8.579-8.126,12.777-12.283C334.251,320.014,332.332,317.853,330.778,318.684z"/></g><g id="change5_1"><path fill="#603b8f" d="M91.252,217.055c17.735-10.243,35.2-20.953,52.364-32.127c4.865-3.167,9.706-6.373,14.523-9.613 c-0.441-0.179-0.881-0.359-1.322-0.538c1.068,6.42,0.999,12.984-0.194,19.381c-0.211,1.132,1.523,1.618,1.736,0.479 c1.257-6.736,1.319-13.579,0.194-20.338c-0.093-0.557-0.874-0.839-1.322-0.538c-16.995,11.43-34.29,22.411-51.87,32.919 c-4.983,2.978-9.99,5.918-15.017,8.821C89.34,216.08,90.246,217.636,91.252,217.055L91.252,217.055z"/></g><g id="change5_2"><path fill="#603b8f" d="M90.505,217.384c8.322,6.401,16.125,13.477,23.306,21.136c6.861,7.317,12.904,15.346,19.739,22.683 c3.758,4.033,7.787,7.8,12.254,11.04c0.435,0.315,1.242,0.009,1.322-0.538c0.765-5.195,1.529-10.39,2.294-15.585 c0.167-1.133-1.567-1.622-1.736-0.479c-0.765,5.195-1.529,10.39-2.294,15.585c0.441-0.179,0.881-0.359,1.322-0.538 c-8.089-5.869-14.565-13.565-20.938-21.181c-6.597-7.883-13.419-15.498-20.997-22.461c-4.285-3.937-8.752-7.669-13.364-11.217 C90.496,215.124,89.598,216.687,90.505,217.384L90.505,217.384z"/></g><g id="change5_3"><path fill="#603b8f" d="M149.321,255.704c25.012-2.86,50.173-0.563,75.165,1.324c12.533,0.946,25.087,1.793,37.662,1.831 c3.216,0.01,6.432-0.033,9.646-0.141c2.966-0.1,6.002-0.122,8.948-0.495c2.538-0.321,3.492-2.089,3.475-4.496 c-0.023-3.069-0.25-6.153-0.421-9.216c-0.804-14.35-2.285-28.658-4.4-42.874c-0.17-1.142-1.905-0.656-1.736,0.479 c1.838,12.35,3.181,24.772,4.018,37.231c0.204,3.032,0.378,6.066,0.522,9.102c0.07,1.477,0.136,2.954,0.189,4.431 c0.051,1.419,0.228,3.135-1.511,3.514c-1.362,0.297-2.875,0.236-4.264,0.312c-1.606,0.088-3.213,0.158-4.82,0.212 c-3.053,0.103-6.108,0.147-9.163,0.142c-24.202-0.033-48.259-3.079-72.415-4.151c-13.635-0.605-27.319-0.557-40.893,0.995 C148.183,254.034,148.17,255.835,149.321,255.704L149.321,255.704z"/></g><g id="change5_4"><path fill="#603b8f" d="M157.652,195.684c31.514,3.044,63.126,5.051,94.773,6c8.947,0.268,17.896,0.451,26.847,0.553 c1.159,0.013,1.159-1.787,0-1.8c-31.658-0.359-63.303-1.761-94.869-4.218c-8.924-0.695-17.841-1.475-26.751-2.335 C156.499,193.772,156.507,195.573,157.652,195.684L157.652,195.684z"/></g><g id="change5_5"><path fill="#603b8f" d="M152.497,363.039c-1.284-11.18-2.349-22.385-3.183-33.607c-0.411-5.529-0.767-11.061-1.068-16.597 c-0.064-1.174-0.343-2.725,0.605-3.632c0.773-0.739,2.123-0.841,3.126-0.99c2.832-0.42,5.669-0.803,8.509-1.164 c10.949-1.392,21.948-2.4,32.968-3.019c10.962-0.616,21.939-0.697,32.909-1.096c12.07-0.439,24.17-1.367,35.965-4.091 c1.128-0.261,0.651-1.996-0.479-1.736c-21.999,5.081-44.781,3.855-67.171,5.055c-11.348,0.609-22.675,1.628-33.949,3.056 c-2.757,0.349-5.51,0.722-8.26,1.118c-1.923,0.277-4.338,0.464-5.475,2.301c-1.184,1.912-0.517,4.824-0.396,6.923 c0.167,2.891,0.348,5.782,0.545,8.671c0.882,12.961,2.071,25.901,3.554,38.807C150.827,364.177,152.629,364.19,152.497,363.039 L152.497,363.039z"/></g><g id="change5_6"><path fill="#603b8f" d="M151.172,362.662c28.441-3.904,57.213-2.221,85.814-3.195c7.989-0.272,15.971-0.759,23.919-1.616 c-0.289-0.22-0.579-0.44-0.868-0.661c0.796,5.809,2.207,11.501,4.218,17.009c0.394,1.079,2.134,0.613,1.736-0.478 c-2.011-5.508-3.422-11.2-4.218-17.009c-0.048-0.352-0.516-0.699-0.868-0.661c-28.613,3.084-57.429,1.235-86.12,2.684 c-8.058,0.407-16.097,1.094-24.091,2.192C149.551,361.083,150.037,362.818,151.172,362.662L151.172,362.662z"/></g><g id="change5_7"><path fill="#603b8f" d="M262.059,299.175c-0.15-7.925-0.085-15.852,0.195-23.773c-0.38,0.289-0.76,0.579-1.139,0.868 c5.207,0.758,9.807,3.293,14.219,6.03c4.772,2.962,9.501,5.996,14.249,8.997c9.548,6.034,19.175,11.962,28.607,18.177 c5.215,3.436,10.338,7.017,15.219,10.917c0.896,0.716,2.178-0.55,1.273-1.273c-8.728-6.974-18.177-12.938-27.609-18.898 c-9.902-6.258-19.794-12.533-29.708-18.772c-4.877-3.069-9.977-6.07-15.771-6.914c-0.585-0.085-1.117,0.228-1.139,0.868 c-0.28,7.922-0.345,15.848-0.195,23.773C260.281,300.332,262.081,300.336,262.059,299.175L262.059,299.175z"/></g><g id="change5_8"><path fill="#603b8f" d="M266.416,375.243c19.483-11.861,37.815-25.605,54.644-41.003c4.784-4.377,9.443-8.889,13.979-13.523 c0.811-0.828-0.461-2.102-1.273-1.273c-15.902,16.246-33.364,30.948-52.111,43.809c-5.286,3.626-10.672,7.103-16.147,10.436 C264.52,374.29,265.423,375.848,266.416,375.243L266.416,375.243z"/></g><g id="change5_9"><path fill="#603b8f" d="M112.866,129.667c-0.557-16.438,0.124-32.911,2.068-49.244c0.568-4.771,1.25-9.527,2.031-14.267 c-0.21,0.21-0.419,0.419-0.629,0.629c8.096-1.475,16.351-0.686,24.45,0.339c7.989,1.011,15.972,2.018,23.991,2.768 c16.242,1.518,32.553,2.292,48.866,2.319c9.228,0.015,18.455-0.212,27.671-0.671c1.153-0.057,1.16-1.858,0-1.8 c-32.952,1.64-65.885,0.088-98.59-4.166c-8.918-1.16-17.94-2.15-26.867-0.524c-0.277,0.05-0.582,0.348-0.629,0.629 c-2.701,16.388-4.171,32.972-4.34,49.582c-0.049,4.803,0.013,9.607,0.176,14.408 C111.106,130.822,112.906,130.827,112.866,129.667L112.866,129.667z"/></g><g id="change5_10"><path fill="#603b8f" d="M112.65,130.203c17.083,0.669,34.164,1.39,51.251,1.952c17.032,0.561,34.075,0.918,51.117,0.673 c9.591-0.138,19.179-0.472,28.754-1.059c1.151-0.07,1.159-1.871,0-1.8c-17.006,1.042-34.049,1.273-51.083,1.069 c-17.046-0.205-34.083-0.838-51.116-1.503c-9.641-0.376-19.282-0.755-28.923-1.133 C111.492,128.357,111.494,130.157,112.65,130.203L112.65,130.203z"/></g><g id="change5_11"><path fill="#603b8f" d="M243.157,131.807c4.122,10.232,8.479,20.368,13.07,30.398c0.283,0.618,1.253,0.556,1.554,0 c10.641-19.607,22.614-38.485,35.839-56.451c3.785-5.142,7.674-10.206,11.659-15.195c0.716-0.896-0.55-2.178-1.273-1.273 c-14.02,17.551-26.845,36.046-38.321,55.357c-3.262,5.488-6.412,11.042-9.458,16.653c0.518,0,1.036,0,1.554,0 c-4.526-9.889-8.824-19.881-12.889-29.969C244.465,130.268,242.723,130.731,243.157,131.807L243.157,131.807z"/></g><g id="change5_12"><path fill="#603b8f" d="M237.769,70.284c0.102-7.33,0.997-14.607,2.681-21.742c-0.369,0.21-0.738,0.419-1.107,0.629 c19.018,7.436,33.878,22.016,50.869,32.869c4.828,3.084,9.848,5.865,15.125,8.105c1.054,0.447,1.972-1.103,0.909-1.554 c-18.994-8.063-33.853-22.859-51.279-33.528c-4.831-2.958-9.866-5.564-15.145-7.628c-0.442-0.173-1.004,0.193-1.107,0.629 c-1.719,7.286-2.641,14.735-2.745,22.221C235.953,71.442,237.753,71.443,237.769,70.284L237.769,70.284z"/></g><g id="change5_13"><path fill="#603b8f" d="M198.337,302.891c-0.334-15.948-0.667-31.897-1.001-47.845c-0.024-1.157-1.824-1.161-1.8,0 c0.334,15.948,0.667,31.897,1.001,47.845C196.561,304.048,198.361,304.052,198.337,302.891L198.337,302.891z"/></g><g id="change5_14"><path fill="#603b8f" d="M195.284,196.896c-0.041-19.41,0.664-38.817,2.111-58.173c0.086-1.155-1.714-1.15-1.8,0 c-1.448,19.356-2.152,38.763-2.111,58.173C193.486,198.054,195.286,198.056,195.284,196.896L195.284,196.896z"/></g><g id="change5_15"><path fill="#603b8f" d="M201.426,70.696c-0.185-7.354,0.326-14.706,1.556-21.959c-0.289,0.22-0.579,0.44-0.868,0.661 c4.552-0.177,9.105-0.128,13.652,0.148c1.157,0.07,1.153-1.73,0-1.8c-4.547-0.275-9.1-0.324-13.652-0.148 c-0.363,0.014-0.801,0.267-0.868,0.661c-1.257,7.413-1.81,14.921-1.621,22.438C199.656,71.852,201.456,71.857,201.426,70.696 L201.426,70.696z"/></g><g id="change5_16"><path fill="#603b8f" d="M216.658,71.109c0-7.561,0-15.122,0-22.683c0-1.158-1.8-1.16-1.8,0c0,7.561,0,15.122,0,22.683 C214.858,72.267,216.658,72.269,216.658,71.109L216.658,71.109z"/></g><g id="change5_17"><path fill="#603b8f" d="M212.504,198.132c0.77-20.348,1.539-40.696,2.309-61.044c0.044-1.158-1.756-1.157-1.8,0 c-0.77,20.348-1.539,40.696-2.309,61.044C210.66,199.291,212.46,199.289,212.504,198.132L212.504,198.132z"/></g><g id="change5_18"><path fill="#603b8f" d="M214.519,302.472c0.551-14.852,0.093-29.727-1.371-44.517c-0.113-1.142-1.914-1.154-1.8,0 c1.464,14.79,1.922,29.665,1.37,44.517C212.676,303.631,214.476,303.629,214.519,302.472L214.519,302.472z"/></g><g id="change5_19"><path fill="#603b8f" d="M199.89,376.702c-0.373-6.18-0.746-12.361-1.119-18.541c-0.069-1.151-1.87-1.159-1.8,0 c0.373,6.18,0.746,12.361,1.119,18.541C198.159,377.853,199.96,377.861,199.89,376.702L199.89,376.702z"/></g><g id="change5_20"><path fill="#603b8f" d="M199.667,377.798c5.633-0.21,11.27-0.273,16.906-0.188c0.472,0.007,0.919-0.418,0.9-0.9 c-0.228-5.647-0.656-11.284-1.284-16.901c-0.127-1.138-1.929-1.151-1.8,0c0.628,5.617,1.056,11.254,1.284,16.901 c0.3-0.3,0.6-0.6,0.9-0.9c-5.636-0.085-11.273-0.022-16.906,0.188C198.512,376.041,198.506,377.841,199.667,377.798 L199.667,377.798z"/></g><g id="change5_21"><path fill="#603b8f" d="M120.012,123.284c3.611-13.265,8.334-26.207,14.137-38.67c0.486-1.044-1.065-1.959-1.554-0.909 c-5.868,12.604-10.666,25.685-14.318,39.1C117.972,123.924,119.708,124.402,120.012,123.284L120.012,123.284z"/></g><g id="change5_22"><path fill="#603b8f" d="M126.17,123.674c4.375-11.557,8.75-23.113,13.126-34.67c0.411-1.084-1.329-1.553-1.736-0.479 c-4.375,11.557-8.75,23.113-13.126,34.67C124.024,124.28,125.763,124.748,126.17,123.674L126.17,123.674z"/></g><g id="change5_23"><path fill="#603b8f" d="M136.033,124.092c2.53-9.521,6.02-18.751,10.439-27.555c0.518-1.033-1.034-1.945-1.554-0.908 c-4.487,8.94-8.052,18.317-10.621,27.985C133.999,124.735,135.735,125.213,136.033,124.092L136.033,124.092z"/></g><g id="change5_24"><path fill="#603b8f" d="M267.455,132.616c9.513-12.297,18.818-24.753,27.905-37.369c0.678-0.941-0.883-1.841-1.554-0.909 c-8.997,12.491-18.204,24.829-27.623,37.005C265.482,132.248,266.747,133.531,267.455,132.616L267.455,132.616z"/></g><g id="change5_25"><path fill="#603b8f" d="M291.333,89.473c0.733,0.55,1.466,1.1,2.199,1.65c0.174,0.131,0.493,0.146,0.694,0.091 c0.209-0.057,0.435-0.219,0.538-0.414c0.11-0.209,0.166-0.462,0.091-0.693c-0.03-0.072-0.06-0.143-0.091-0.215 c-0.08-0.135-0.188-0.243-0.323-0.323c-0.733-0.55-1.466-1.1-2.199-1.65c-0.174-0.131-0.493-0.146-0.694-0.091 c-0.209,0.057-0.435,0.219-0.538,0.414c-0.11,0.209-0.166,0.462-0.091,0.694c0.03,0.072,0.06,0.143,0.091,0.215 C291.09,89.285,291.198,89.393,291.333,89.473L291.333,89.473z"/></g><g id="change5_26"><path fill="#603b8f" d="M245.999,59.994c11.88,6.652,23.355,14.005,34.363,22.018c0.938,0.683,1.837-0.878,0.909-1.554 c-11.008-8.013-22.484-15.366-34.363-22.018C245.895,57.873,244.987,59.427,245.999,59.994L245.999,59.994z"/></g><g id="change5_27"><path fill="#603b8f" d="M104.3,224.224c11.408,11.136,22.73,22.359,33.964,33.671c0.817,0.823,2.09-0.45,1.273-1.273 c-11.234-11.311-22.556-22.535-33.964-33.671C104.744,222.142,103.47,223.413,104.3,224.224L104.3,224.224z"/></g><g id="change5_28"><path fill="#603b8f" d="M144.159,257.517c0.085-1.009,0.171-2.017,0.256-3.026c0.018-0.218-0.114-0.486-0.264-0.636 c-0.156-0.156-0.412-0.274-0.636-0.264c-0.522,0.023-0.857,0.396-0.9,0.9c-0.085,1.009-0.171,2.017-0.256,3.026 c-0.018,0.218,0.114,0.486,0.264,0.636c0.156,0.156,0.412,0.274,0.636,0.264C143.781,258.394,144.116,258.021,144.159,257.517 L144.159,257.517z"/></g><g id="change5_29"><path fill="#603b8f" d="M107.339,212.693c14.928-8.223,29.311-17.409,43.05-27.493c0.924-0.678,0.027-2.241-0.908-1.554 c-13.739,10.084-28.123,19.269-43.05,27.493C105.416,211.698,106.323,213.253,107.339,212.693L107.339,212.693z"/></g><g id="change5_30"><path fill="#603b8f" d="M152.751,191.533c-0.067-0.676-0.086-1.355-0.051-2.034c0.017-0.333,0.05-0.663,0.088-0.994 c-0.024,0.209,0.008-0.054,0.012-0.077c0.012-0.079,0.025-0.158,0.038-0.237c0.031-0.184,0.067-0.367,0.105-0.549 c0.097-0.459-0.135-0.995-0.629-1.107c-0.451-0.103-1.003,0.136-1.107,0.629c-0.302,1.435-0.401,2.908-0.256,4.369 c0.046,0.467,0.381,0.923,0.9,0.9C152.299,192.413,152.801,192.035,152.751,191.533L152.751,191.533z"/></g><g id="change5_31"><path fill="#603b8f" d="M271.93,210.78c0.435,14.042,1.207,28.073,2.315,42.078c0.091,1.147,1.892,1.157,1.8,0 c-1.108-14.005-1.879-28.036-2.315-42.078C273.694,209.625,271.894,209.62,271.93,210.78L271.93,210.78z"/></g><g id="change5_32"><path fill="#603b8f" d="M166.41,249.64c23.523-0.406,47.054-0.403,70.577,0.017c6.626,0.118,13.252,0.27,19.877,0.454 c1.159,0.032,1.158-1.768,0-1.8c-23.518-0.651-47.047-0.892-70.573-0.717c-6.627,0.049-13.254,0.133-19.88,0.247 C165.253,247.86,165.249,249.66,166.41,249.64L166.41,249.64z"/></g><g id="change5_33"><path fill="#603b8f" d="M275.941,308.279c8.758,8.566,17.516,17.132,26.274,25.698c0.829,0.811,2.103-0.461,1.273-1.273 c-8.758-8.566-17.516-17.132-26.274-25.698C276.385,306.195,275.111,307.467,275.941,308.279L275.941,308.279z"/></g><g id="change5_34"><path fill="#603b8f" d="M278.608,300.121c9.112,9.848,18.358,19.57,27.736,29.165c0.811,0.83,2.083-0.443,1.273-1.273 c-9.378-9.595-18.624-19.317-27.736-29.165C279.092,297.996,277.822,299.271,278.608,300.121L278.608,300.121z"/></g><g id="change5_35"><path fill="#603b8f" d="M285.634,298.311c8.939,8.67,17.44,17.783,25.468,27.303c0.748,0.887,2.015-0.392,1.273-1.273 c-8.029-9.52-16.529-18.633-25.468-27.303C286.075,296.231,284.8,297.503,285.634,298.311L285.634,298.311z"/></g><g id="change5_36"><path fill="#603b8f" d="M158.923,357.337c-1.725-11.89-3.45-23.78-5.175-35.67c-0.166-1.142-1.9-0.656-1.736,0.479 c1.725,11.89,3.45,23.78,5.175,35.67C157.353,358.958,159.087,358.472,158.923,357.337L158.923,357.337z"/></g><g id="change5_37"><path fill="#603b8f" d="M154.383,316.635c0-0.367,0-0.733,0-1.1c0-0.231-0.1-0.473-0.264-0.636c-0.082-0.088-0.178-0.15-0.29-0.186 c-0.107-0.056-0.223-0.082-0.347-0.078c-0.233,0.01-0.474,0.087-0.636,0.264c-0.162,0.176-0.264,0.393-0.264,0.636 c0,0.367,0,0.733,0,1.1c0,0.231,0.1,0.473,0.264,0.636c0.082,0.088,0.178,0.15,0.29,0.186c0.107,0.056,0.223,0.082,0.347,0.078 c0.233-0.01,0.474-0.087,0.636-0.264C154.281,317.095,154.383,316.878,154.383,316.635L154.383,316.635z"/></g><g id="change5_38"><path fill="#603b8f" d="M210.407,351.334c11.82,0.433,23.64,0.866,35.461,1.299c1.158,0.042,1.157-1.758,0-1.8 c-11.82-0.433-23.64-0.866-35.461-1.299C209.248,349.492,209.25,351.292,210.407,351.334L210.407,351.334z"/></g><g id="change5_39"><path fill="#603b8f" d="M253.934,352.877c0.65,0.312,1.379,0.482,2.102,0.394c0.124,0.005,0.24-0.021,0.347-0.078 c0.112-0.036,0.208-0.098,0.29-0.186c0.156-0.156,0.274-0.412,0.264-0.636c-0.01-0.233-0.087-0.474-0.264-0.636 c-0.164-0.15-0.405-0.292-0.636-0.264c-0.252,0.031-0.505,0.029-0.757-0.004c0.08,0.011,0.16,0.021,0.239,0.032 c-0.261-0.036-0.515-0.106-0.758-0.207c0.072,0.03,0.143,0.06,0.215,0.091c-0.045-0.019-0.089-0.039-0.133-0.06 c-0.221-0.106-0.449-0.158-0.694-0.091c-0.209,0.057-0.435,0.219-0.538,0.414c-0.11,0.209-0.166,0.462-0.091,0.694 C253.59,352.552,253.725,352.777,253.934,352.877L253.934,352.877z"/></g><g id="change5_40"><path fill="#603b8f" d="M250.632,129.538c0.463,1.635,0.925,3.271,1.388,4.907c0.128,0.453,0.642,0.779,1.107,0.629 c0.461-0.149,0.766-0.622,0.629-1.107c-0.463-1.635-0.925-3.271-1.388-4.907c-0.128-0.453-0.642-0.779-1.107-0.629 C250.799,128.58,250.495,129.053,250.632,129.538L250.632,129.538z"/></g><g id="change5_41"><path fill="#603b8f" d="M247.417,123.739c0.146,0.548,0.291,1.095,0.437,1.643c0.058,0.218,0.22,0.425,0.414,0.538 c0.193,0.113,0.477,0.161,0.694,0.091c0.218-0.07,0.428-0.205,0.538-0.414c0.114-0.215,0.154-0.454,0.091-0.694 c-0.146-0.548-0.291-1.095-0.437-1.643c-0.058-0.218-0.22-0.425-0.414-0.538c-0.193-0.113-0.477-0.161-0.693-0.091 c-0.218,0.07-0.428,0.205-0.538,0.414C247.394,123.261,247.354,123.5,247.417,123.739L247.417,123.739z"/></g><g id="change5_42"><path fill="#603b8f" d="M252.464,207.684c1.457,0.166,2.962,0.002,4.353-0.461c0.446-0.148,0.784-0.628,0.629-1.107 c-0.144-0.444-0.629-0.788-1.107-0.629c-0.336,0.112-0.677,0.207-1.023,0.281c-0.148,0.032-0.297,0.06-0.447,0.085 c-0.042,0.007-0.364,0.068-0.136,0.022c-0.073,0.015-0.152,0.018-0.226,0.025c-0.68,0.068-1.364,0.06-2.043-0.017 c-0.469-0.054-0.92,0.452-0.9,0.9C251.588,207.317,251.961,207.627,252.464,207.684L252.464,207.684z"/></g><g id="change5_43"><path fill="#603b8f" d="M265.248,206.869c1.158,0,1.16-1.8,0-1.8C264.089,205.069,264.087,206.869,265.248,206.869L265.248,206.869z"/></g><g id="change5_44"><path fill="#603b8f" d="M172.866,310.798c1.1,0,2.2,0,3.299,0c0.471,0,0.922-0.414,0.9-0.9c-0.022-0.488-0.395-0.9-0.9-0.9 c-1.1,0-2.2,0-3.299,0c-0.471,0-0.922,0.414-0.9,0.9C171.988,310.386,172.362,310.798,172.866,310.798L172.866,310.798z"/></g><g id="change5_45"><path fill="#603b8f" d="M184.826,310.798c0.825,0,1.65,0,2.475,0c0.471,0,0.922-0.414,0.9-0.9c-0.022-0.488-0.395-0.9-0.9-0.9 c-0.825,0-1.65,0-2.475,0c-0.471,0-0.922,0.414-0.9,0.9C183.948,310.386,184.322,310.798,184.826,310.798L184.826,310.798z"/></g><g id="change5_46"><path fill="#603b8f" d="M285.454,354.719c1.46-0.757,2.803-1.753,3.957-2.923c0.331-0.336,0.36-0.943,0-1.273 c-0.357-0.328-0.919-0.358-1.273,0c-0.268,0.272-0.545,0.534-0.833,0.785c-0.148,0.129-0.298,0.255-0.451,0.378 c-0.034,0.027-0.068,0.054-0.102,0.082c-0.139,0.11-0.037-0.009,0.001,0c-0.03-0.007-0.211,0.159-0.236,0.176 c-0.624,0.458-1.284,0.865-1.972,1.222c-0.419,0.217-0.577,0.837-0.323,1.231C284.498,354.823,285.006,354.951,285.454,354.719 L285.454,354.719z"/></g><g id="change5_47"><path fill="#603b8f" d="M295.404,347.394c0.834-0.536,1.667-1.072,2.501-1.609c0.196-0.126,0.351-0.31,0.414-0.538 c0.059-0.215,0.033-0.502-0.091-0.694c-0.255-0.395-0.808-0.595-1.231-0.323c-0.834,0.536-1.667,1.072-2.501,1.609 c-0.196,0.126-0.351,0.31-0.414,0.538c-0.059,0.215-0.033,0.502,0.091,0.694C294.428,347.466,294.981,347.666,295.404,347.394 L295.404,347.394z"/></g><g id="change5_48"><path fill="#603b8f" d="M156.782,77.783c1.1,0,2.2,0,3.299,0c0.471,0,0.922-0.414,0.9-0.9c-0.022-0.488-0.395-0.9-0.9-0.9 c-1.1,0-2.2,0-3.299,0c-0.471,0-0.922,0.414-0.9,0.9C155.904,77.37,156.277,77.783,156.782,77.783L156.782,77.783z"/></g><g id="change5_49"><path fill="#603b8f" d="M167.673,79.015c0.823,0.147,1.646,0.294,2.469,0.441c0.243,0.043,0.473,0.038,0.693-0.091 c0.187-0.109,0.365-0.323,0.414-0.538c0.052-0.23,0.041-0.489-0.091-0.694c-0.12-0.187-0.31-0.373-0.538-0.414 c-0.823-0.147-1.646-0.294-2.469-0.441c-0.243-0.043-0.473-0.038-0.693,0.091c-0.187,0.109-0.365,0.323-0.414,0.538 c-0.052,0.23-0.041,0.489,0.091,0.694C167.256,78.788,167.446,78.974,167.673,79.015L167.673,79.015z"/></g><g id="change5_50"><path fill="#603b8f" d="M198.766,189.896c0.137-3.305,0.274-6.61,0.411-9.915c0.048-1.158-1.752-1.156-1.8,0 c-0.137,3.305-0.274,6.61-0.411,9.915C196.918,191.054,198.718,191.052,198.766,189.896L198.766,189.896z"/></g><g id="change5_51"><path fill="#603b8f" d="M200.083,171.732c0.175-2.059,0.349-4.118,0.524-6.177c0.041-0.485-0.443-0.9-0.9-0.9 c-0.521,0-0.859,0.414-0.9,0.9c-0.175,2.059-0.349,4.118-0.524,6.177c-0.041,0.485,0.443,0.9,0.9,0.9 C199.704,172.632,200.041,172.218,200.083,171.732L200.083,171.732z"/></g><g id="change5_52"><path fill="#603b8f" d="M203.789,181.043c0.15-0.96,0.301-1.921,0.451-2.881c0.039-0.247,0.041-0.469-0.091-0.693 c-0.109-0.187-0.323-0.365-0.538-0.414c-0.23-0.052-0.489-0.041-0.693,0.091c-0.184,0.119-0.378,0.312-0.414,0.538 c-0.15,0.96-0.301,1.921-0.451,2.881c-0.039,0.247-0.041,0.469,0.091,0.694c0.109,0.187,0.323,0.365,0.538,0.414 c0.23,0.052,0.489,0.041,0.693-0.091C203.559,181.462,203.753,181.269,203.789,181.043L203.789,181.043z"/></g><g id="change5_53"><path fill="#603b8f" d="M212.462,63.679c0.137-1.65,0.274-3.299,0.411-4.949c0.039-0.47-0.442-0.921-0.9-0.9 c-0.521,0.023-0.858,0.396-0.9,0.9c-0.137,1.65-0.274,3.299-0.411,4.949c-0.039,0.47,0.442,0.921,0.9,0.9 C212.083,64.556,212.42,64.183,212.462,63.679L212.462,63.679z"/></g><g id="change5_54"><path fill="#603b8f" d="M208.822,296.701c0-2.887,0-5.774,0-8.661c0-1.158-1.8-1.16-1.8,0c0,2.887,0,5.774,0,8.661 C207.022,297.859,208.822,297.861,208.822,296.701L208.822,296.701z"/></g><g id="change5_55"><path fill="#603b8f" d="M209.194,277.726c0.233-2.152,0.119-4.319-0.293-6.443c-0.093-0.477-0.664-0.75-1.107-0.629 c-0.499,0.137-0.722,0.628-0.629,1.107c0.381,1.961,0.444,3.975,0.229,5.965c-0.052,0.484,0.451,0.9,0.9,0.9 C208.824,278.626,209.142,278.211,209.194,277.726L209.194,277.726z"/></g><g id="change5_56"><path fill="#603b8f" d="M201.811,265.77c0-0.825,0-1.65,0-2.474c0-0.471-0.414-0.922-0.9-0.9c-0.488,0.022-0.9,0.395-0.9,0.9 c0,0.825,0,1.65,0,2.474c0,0.471,0.414,0.922,0.9,0.9C201.398,266.648,201.811,266.274,201.811,265.77L201.811,265.77z"/></g><g id="change5_57"><path fill="#603b8f" d="M211.296,370.524c0-0.825,0-1.65,0-2.474c0-0.471-0.414-0.922-0.9-0.9c-0.488,0.022-0.9,0.395-0.9,0.9 c0,0.825,0,1.65,0,2.474c0,0.471,0.414,0.922,0.9,0.9C210.884,371.402,211.296,371.028,211.296,370.524L211.296,370.524z"/></g><g id="change5_58"><path fill="#603b8f" d="M120.152,83.069c0-1.787,0-3.574,0-5.361c0-0.471-0.414-0.922-0.9-0.9c-0.488,0.022-0.9,0.395-0.9,0.9 c0,1.787,0,3.574,0,5.361c0,0.471,0.414,0.922,0.9,0.9C119.74,83.947,120.152,83.574,120.152,83.069L120.152,83.069z"/></g><g id="change5_59"><path fill="#603b8f" d="M120.977,70.284c0-0.137,0-0.275,0-0.412c0.005-0.124-0.021-0.239-0.078-0.347 c-0.036-0.112-0.098-0.208-0.186-0.29c-0.082-0.088-0.178-0.15-0.29-0.186c-0.107-0.056-0.223-0.082-0.347-0.078 c-0.08,0.011-0.16,0.021-0.239,0.032c-0.152,0.043-0.285,0.12-0.397,0.231c-0.047,0.061-0.094,0.121-0.141,0.182 c-0.081,0.14-0.122,0.292-0.123,0.454c0,0.137,0,0.275,0,0.412c-0.005,0.124,0.021,0.239,0.078,0.347 c0.036,0.112,0.098,0.208,0.186,0.29c0.082,0.088,0.178,0.15,0.29,0.186c0.107,0.056,0.223,0.082,0.347,0.078 c0.08-0.011,0.16-0.021,0.239-0.032c0.152-0.043,0.285-0.12,0.397-0.231c0.047-0.061,0.094-0.121,0.141-0.182 C120.935,70.598,120.976,70.447,120.977,70.284L120.977,70.284z"/></g></svg>