<?xml version="1.0" encoding="UTF-8" standalone="no"?><svg xmlns="http://www.w3.org/2000/svg" xmlns:xlink="http://www.w3.org/1999/xlink" contentScriptType="text/ecmascript" fill="#000000" width="77.5" zoomAndPan="magnify" contentStyleType="text/css" viewBox="0.0 0.0 77.5 42.7" height="42.7" preserveAspectRatio="xMidYMid meet" version="1"><defs><clipPath id="a"><path d="M 17 0 L 77.519531 0 L 77.519531 42.660156 L 17 42.660156 Z M 17 0"/></clipPath></defs><g><g id="change1_5" clip-path="url(#a)"><path fill="#000000" d="M 77.089844 9.40625 C 77.027344 8.371094 77.1875 7.351562 77.035156 6.285156 C 76.964844 5.507812 76.417969 3.535156 75.804688 2.964844 C 75.484375 2.628906 75.097656 2.554688 74.78125 2.425781 C 74.460938 2.292969 74.261719 2.082031 74.152344 1.480469 C 74.148438 1.40625 75.0625 2.863281 75.15625 1.972656 C 75.152344 1.902344 74.722656 1.351562 74.230469 0.875 C 73.742188 0.402344 73.21875 -0.00390625 73.21875 -0.00390625 L 71.066406 2.527344 C 71.066406 2.527344 71.289062 2.726562 71.574219 2.980469 C 71.835938 3.261719 72.164062 3.605469 72.347656 3.914062 C 72.421875 3.996094 72.71875 4.53125 72.980469 4.933594 C 73.183594 5.300781 73.402344 5.5625 73.496094 5.265625 C 73.558594 5.535156 73.769531 6.089844 73.9375 6.714844 C 74.210938 7.613281 74.351562 8.644531 74.367188 8.761719 C 74.558594 10.171875 74.480469 11.882812 74.152344 13.285156 C 73.867188 14.597656 73.265625 15.828125 72.738281 17.082031 C 72.410156 17.796875 72.203125 18.390625 71.898438 18.917969 C 71.621094 19.460938 71.320312 19.964844 70.808594 20.480469 C 69.773438 21.613281 68.972656 23.179688 67.84375 24.277344 C 66.554688 25.554688 65.144531 26.664062 63.640625 27.671875 C 62.148438 28.675781 60.566406 29.507812 58.875 30.007812 C 57.199219 30.507812 55.421875 30.804688 53.644531 30.574219 C 51.847656 30.398438 50.09375 30.066406 48.433594 29.476562 C 48.425781 29.472656 48.421875 29.472656 48.414062 29.46875 C 48.632812 29.085938 48.832031 28.734375 48.929688 28.503906 C 49.53125 27.179688 49.542969 27.347656 49.113281 26.253906 C 49.390625 26.402344 49.65625 26.359375 49.914062 26.113281 C 49.769531 25.957031 49.664062 25.773438 49.597656 25.5625 C 50.140625 25.542969 50.132812 24.988281 50.335938 24.421875 L 50.753906 24.023438 C 50.613281 23.730469 50.539062 23.421875 50.546875 23.089844 C 50.691406 22.707031 51.152344 22.195312 51.257812 21.867188 C 51.441406 21.292969 51.066406 21.175781 51.117188 20.894531 C 51.304688 19.882812 51.988281 18.800781 51.914062 17.675781 C 51.625 17.648438 51.375 17.535156 51.152344 17.332031 C 51.339844 16.996094 51.597656 16.769531 51.929688 16.648438 C 51.882812 16.460938 51.792969 16.304688 51.667969 16.179688 C 51.964844 15.742188 52.101562 15.238281 52.097656 14.691406 C 52.246094 13.605469 52.1875 13.433594 51.628906 13.097656 C 51.367188 12.273438 52.253906 11.605469 52.152344 10.796875 C 52.050781 10.25 51.792969 9.785156 51.417969 9.441406 C 51.628906 9.324219 51.734375 9.136719 51.753906 8.878906 C 51.597656 8.140625 51.949219 8.230469 51.339844 7.558594 C 50.695312 6.917969 51.121094 7.714844 50.625 7.703125 C 50.585938 7.464844 50.464844 7.296875 50.265625 7.210938 C 50.144531 7.488281 50.105469 7.773438 50.125 8.078125 C 49.296875 6.925781 50.234375 7.449219 50.5625 6.671875 C 50.6875 6.191406 50.730469 5.675781 50.691406 5.121094 C 50.808594 4.570312 50.558594 4.289062 50.015625 4.398438 C 50.042969 4.445312 49.753906 4.03125 49.433594 3.695312 C 49.140625 3.347656 48.816406 3.082031 49.128906 3.234375 C 48.308594 2.820312 48.621094 3.289062 47.75 3.316406 C 47.96875 2.9375 48.535156 2.160156 47.464844 1.863281 C 47.476562 2.113281 47.390625 2.320312 47.246094 2.5 C 46.449219 2.261719 45.945312 1.824219 44.875 1.992188 C 44.542969 1.449219 44.394531 1.421875 44.257812 1.546875 C 44.109375 1.691406 43.949219 1.902344 43.460938 2.117188 C 42.183594 2.59375 41.078125 3.367188 40.402344 4.355469 C 39.839844 5.082031 39.03125 6.917969 39.097656 7.660156 C 39.132812 8.53125 40.007812 8.871094 39.199219 9.707031 C 39.175781 9.769531 39.589844 8.230469 38.882812 8.722656 C 38.835938 8.773438 38.753906 9.390625 38.6875 9.988281 C 38.636719 10.578125 38.589844 11.15625 38.589844 11.15625 L 41.875 11.628906 C 41.875 11.628906 42.039062 10.214844 42.21875 9.429688 C 42.246094 9.304688 42.417969 8.632812 42.519531 8.125 C 42.601562 7.683594 42.628906 7.34375 42.351562 7.507812 C 42.488281 7.261719 42.691406 6.6875 42.960938 6.160156 C 43.34375 5.371094 43.855469 4.851562 43.925781 4.855469 C 44.511719 4.261719 46.226562 4.398438 46.941406 5.097656 C 47.675781 5.753906 48.078125 6.882812 48.371094 8.113281 C 48.710938 9.539062 48.941406 10.484375 48.742188 11.910156 C 48.507812 13.445312 48.78125 15.234375 48.5625 16.84375 C 48.3125 18.699219 47.996094 20.535156 47.625 22.375 C 47.257812 24.21875 46.785156 25.902344 46.03125 27.53125 C 45.941406 27.726562 45.832031 27.917969 45.734375 28.109375 C 45.125 27.699219 44.554688 27.238281 44.066406 26.695312 C 42.929688 25.445312 41.914062 23.929688 41.308594 22.175781 C 40.703125 20.4375 40.523438 18.5 40.972656 16.765625 C 41.078125 16.300781 41.347656 15.164062 41.609375 13.882812 C 41.839844 12.703125 42.039062 11.652344 42.039062 11.652344 L 38.636719 11.164062 C 38.636719 11.164062 38.714844 12.101562 38.6875 12.660156 C 38.644531 13.734375 38.484375 14.839844 38.320312 16.011719 C 38.148438 17.367188 38.027344 18.496094 38.121094 19.609375 C 38.21875 20.710938 38.539062 21.808594 39.382812 22.898438 C 38.542969 23.152344 39.253906 24.324219 39.492188 24.886719 C 39.824219 25.339844 40.042969 25.820312 40.183594 26.359375 C 40.542969 26.5 40.902344 26.648438 41.257812 26.816406 C 40.777344 27.101562 41.535156 28.652344 42.890625 29.878906 C 43.25 30.21875 43.640625 30.523438 44.03125 30.792969 C 43.710938 31.199219 43.375 31.59375 43.007812 31.96875 C 40.445312 34.59375 37.695312 37.140625 34.226562 38.476562 C 32.53125 39.121094 30.738281 39.789062 28.894531 40.027344 C 27.054688 40.277344 25.199219 40.015625 23.691406 39.085938 C 23.285156 38.851562 22.21875 38.289062 21.292969 37.660156 C 20.363281 37.042969 19.554688 36.417969 19.554688 36.417969 L 17.613281 39.253906 C 17.613281 39.253906 18.507812 39.613281 19.035156 39.878906 C 20.023438 40.390625 21.164062 40.953125 22.210938 41.414062 C 24.667969 42.507812 26.707031 43.234375 29.210938 42.058594 C 29.289062 42.929688 30.566406 42.472656 31.152344 42.378906 C 31.652344 42.160156 32.15625 42.066406 32.695312 42.082031 C 32.910156 41.769531 33.144531 41.472656 33.398438 41.1875 C 33.546875 41.722656 35.125 41.453125 36.710938 40.796875 C 38.292969 40.132812 39.792969 39.0625 40.152344 38.742188 C 40.007812 38.617188 39.957031 38.453125 39.992188 38.253906 C 40.15625 38.171875 40.285156 38.195312 40.382812 38.3125 C 40.96875 38.371094 41.285156 38.089844 41.300781 37.511719 C 42.175781 37.019531 42.84375 37.316406 42.984375 36.097656 C 43.253906 36.230469 43.675781 35.945312 44.097656 35.582031 C 44.496094 35.195312 44.882812 34.726562 45.117188 34.519531 C 45.917969 33.75 46.476562 32.785156 46.851562 31.746094 C 46.957031 31.832031 47.003906 31.929688 46.960938 32.054688 C 47.226562 32.59375 47.65625 32.726562 48.160156 32.421875 C 49.074219 32.890625 49.226562 33.617188 50.328125 33.03125 C 50.421875 33.65625 52.300781 33.738281 52.929688 33.808594 C 53.601562 33.902344 54.28125 33.863281 54.941406 33.777344 C 55.601562 33.65625 56.238281 33.417969 56.855469 33.175781 C 57.175781 33.347656 56.613281 33.566406 56.953125 33.777344 C 57.414062 33.285156 59.425781 33.074219 60.101562 32.8125 C 61.511719 32.394531 61.371094 32.457031 61.894531 31.414062 C 61.972656 31.714844 62.1875 31.886719 62.550781 31.914062 C 62.570312 31.710938 62.632812 31.511719 62.738281 31.308594 C 63.113281 31.679688 63.511719 31.28125 64.082031 31.042969 C 64.277344 31.054688 64.484375 31.074219 64.675781 31.066406 C 64.785156 30.75 64.960938 30.472656 65.207031 30.238281 C 65.585938 30.0625 66.304688 30.03125 66.605469 29.835938 C 67.148438 29.523438 66.949219 29.183594 67.1875 29.007812 C 67.625 28.707031 68.121094 28.421875 68.628906 28.125 C 69.144531 27.835938 69.628906 27.488281 69.949219 27.007812 C 69.742188 26.808594 69.617188 26.558594 69.574219 26.261719 C 69.933594 26.113281 70.285156 26.089844 70.628906 26.199219 C 70.707031 26.019531 70.730469 25.832031 70.707031 25.652344 C 71.203125 25.46875 71.628906 25.144531 71.964844 24.695312 C 72.710938 23.871094 72.773438 23.699219 72.515625 23.101562 C 72.78125 22.277344 73.859375 22.203125 74.265625 21.503906 C 74.472656 20.980469 74.523438 20.464844 74.410156 19.96875 C 74.648438 19.996094 74.851562 19.910156 75.019531 19.71875 C 75.289062 19.03125 75.53125 19.320312 75.425781 18.441406 C 75.3125 17.582031 75.160156 18.425781 74.769531 18.125 C 74.890625 17.917969 74.898438 17.71875 74.796875 17.53125 C 74.53125 17.671875 74.3125 17.863281 74.144531 18.121094 C 74.210938 16.710938 74.632812 17.691406 75.355469 17.308594 C 75.738281 17.03125 76.101562 16.707031 76.453125 16.34375 C 76.925781 16.09375 76.921875 15.78125 76.492188 15.476562 C 76.488281 15.566406 76.804688 13.738281 76.847656 14.292969 C 76.773438 13.53125 76.527344 13.957031 76.113281 13.253906 C 76.550781 13.308594 77.453125 13.507812 77.375 12.667969 C 77.148438 12.71875 76.925781 12.699219 76.707031 12.613281 C 76.746094 11.894531 77.105469 11.460938 76.957031 10.523438 C 78.105469 10.039062 77.148438 10.210938 77.089844 9.40625"/></g><g id="change1_1"><path fill="#000000" d="M 46.769531 32.226562 C 46.875 32.191406 46.941406 32.15625 46.941406 32.058594 C 46.820312 32.03125 46.726562 32.035156 46.769531 32.226562"/></g><g id="change1_2"><path fill="#000000" d="M 40.429688 38.5625 C 40.453125 38.457031 40.457031 38.382812 40.375 38.332031 C 40.289062 38.414062 40.246094 38.492188 40.429688 38.5625"/></g><g id="change1_3"><path fill="#000000" d="M 10.738281 27.625 C 10.171875 26.394531 9.824219 25.070312 9.5 23.78125 C 9.144531 22.289062 8.855469 21.378906 9.050781 19.980469 C 9.273438 18.5 9.054688 16.804688 9.488281 15.34375 C 9.949219 13.667969 10.703125 12.101562 11.644531 10.714844 C 11.835938 10.4375 12.074219 10.179688 12.289062 10.011719 C 12.453125 9.871094 12.449219 9.863281 12.574219 9.828125 C 12.671875 9.8125 12.785156 9.839844 12.859375 9.917969 C 12.914062 9.984375 12.902344 9.9375 13.003906 10.128906 C 13.085938 10.28125 13.171875 10.488281 13.238281 10.695312 C 13.527344 11.519531 13.871094 12.332031 13.984375 13.214844 C 14.058594 13.648438 14.171875 14.078125 14.195312 14.523438 C 14.207031 14.96875 14.21875 15.417969 14.230469 15.867188 C 14.179688 17.6875 14.09375 19.492188 13.71875 21.28125 C 13.417969 23.078125 12.789062 24.828125 11.953125 26.460938 C 11.644531 27.011719 11.328125 27.570312 11.003906 28.128906 C 10.914062 27.960938 10.816406 27.789062 10.738281 27.625 Z M 17.679688 35.269531 C 17.464844 35.144531 15.875 33.582031 15.964844 34.257812 C 15.78125 34.019531 15.316406 33.570312 14.832031 33.085938 C 14.125 32.367188 13.390625 31.578125 13.316406 31.476562 C 13.097656 31.222656 12.875 30.949219 12.65625 30.667969 C 12.796875 30.492188 12.953125 30.328125 13.136719 30.183594 C 13.089844 29.804688 13.101562 29.449219 13.09375 29.058594 C 13.328125 29.207031 13.679688 28.976562 14.09375 28.515625 C 14.519531 28.0625 14.976562 27.375 15.332031 26.597656 C 15.519531 26.214844 15.710938 25.820312 15.871094 25.433594 C 16.003906 25.035156 16.128906 24.652344 16.242188 24.304688 C 16.464844 23.605469 16.609375 23.046875 16.621094 22.800781 C 16.429688 22.796875 16.285156 22.707031 16.175781 22.53125 C 16.242188 22.359375 16.347656 22.289062 16.5 22.316406 C 16.980469 21.976562 17.046875 21.550781 16.6875 21.109375 C 17.019531 20.15625 17.683594 19.921875 17.007812 18.917969 C 17.644531 18.761719 17.4375 16.90625 17.523438 16.285156 C 17.566406 14.9375 17.214844 13.617188 16.539062 12.445312 C 16.679688 12.113281 16.957031 12.652344 17.132812 12.300781 C 16.679688 11.859375 16.175781 9.90625 15.933594 9.210938 C 15.859375 9.03125 15.78125 8.855469 15.707031 8.703125 C 15.628906 8.539062 15.507812 8.324219 15.414062 8.191406 C 15.222656 7.898438 15.046875 7.71875 14.875 7.597656 C 14.53125 7.375 14.152344 7.292969 13.441406 7.457031 C 13.59375 7.195312 13.5 6.863281 12.976562 6.640625 C 12.789062 6.816406 12.558594 6.964844 12.300781 7.132812 C 12.144531 6.902344 11.835938 6.875 11.464844 6.988281 C 11.28125 7.054688 11.089844 7.132812 10.875 7.265625 C 10.6875 7.375 10.542969 7.480469 10.371094 7.59375 C 10.136719 7.640625 9.90625 7.707031 9.679688 7.78125 C 9.589844 8.15625 9.460938 8.507812 9.277344 8.859375 C 8.96875 9.203125 8.324219 9.523438 8.101562 9.828125 C 7.714844 10.359375 8.03125 10.589844 7.882812 10.855469 C 7.378906 11.816406 6.433594 12.8125 6.296875 14.011719 C 6.574219 14.085938 6.808594 14.246094 6.996094 14.484375 C 6.761719 14.796875 6.457031 15 6.121094 15.089844 C 6.144531 15.289062 6.214844 15.464844 6.324219 15.605469 C 5.96875 16.03125 5.800781 16.550781 5.761719 17.125 C 5.558594 18.246094 5.609375 18.433594 6.167969 18.789062 C 6.414062 19.628906 5.535156 20.316406 5.65625 21.136719 C 5.761719 21.695312 6.042969 22.152344 6.425781 22.488281 C 6.21875 22.609375 6.105469 22.800781 6.101562 23.054688 C 6.292969 23.777344 5.898438 23.699219 6.539062 24.339844 C 7.164062 24.960938 6.757812 24.1875 7.25 24.191406 C 7.285156 24.429688 7.402344 24.59375 7.601562 24.679688 C 7.722656 24.40625 7.773438 24.121094 7.746094 23.816406 C 8.570312 24.972656 7.640625 24.449219 7.292969 25.203125 C 7.152344 25.664062 7.0625 26.148438 7.035156 26.644531 C 6.832031 27.136719 7.011719 27.382812 7.546875 27.347656 C 7.496094 27.273438 8.371094 28.898438 7.996094 28.492188 C 8.539062 29.035156 8.445312 28.5625 9.214844 28.855469 C 8.828125 29.082031 8.007812 29.472656 8.566406 30.085938 C 8.71875 29.90625 8.910156 29.789062 9.132812 29.722656 C 9.300781 29.964844 9.398438 30.203125 9.496094 30.449219 C 9.3125 30.699219 9.132812 30.953125 8.929688 31.199219 C 7.703125 32.632812 6.261719 33.964844 4.550781 34.578125 C 4.320312 34.652344 3.960938 34.886719 3.488281 35.054688 C 3.023438 35.234375 2.488281 35.449219 1.976562 35.648438 C 0.933594 35.945312 0 36.207031 0 36.207031 L 0.917969 39.519531 C 0.917969 39.519531 1.78125 39.007812 2.335938 38.769531 C 2.867188 38.566406 3.402344 38.289062 3.933594 37.996094 C 4.457031 37.703125 5.03125 37.492188 5.5 37.179688 C 6.089844 36.835938 6.636719 36.542969 7.152344 36.257812 C 7.636719 35.929688 8.089844 35.613281 8.519531 35.273438 C 8.964844 34.949219 9.328125 34.539062 9.667969 34.078125 C 9.992188 33.605469 10.347656 33.125 10.550781 32.460938 C 10.628906 32.53125 10.703125 32.574219 10.78125 32.597656 C 11.378906 33.351562 11.742188 34.234375 12.355469 34.980469 C 12.804688 35.570312 14.011719 36.984375 14.695312 37.265625 C 15.464844 37.609375 16.171875 36.980469 16.550781 38.085938 C 16.589844 38.132812 15.414062 37.066406 15.53125 37.921875 C 15.554688 37.980469 16.058594 38.339844 16.566406 38.667969 C 17.074219 39 17.585938 39.296875 17.585938 39.296875 L 19.460938 36.558594 C 19.460938 36.558594 18.296875 35.800781 17.679688 35.269531"/></g><g id="change1_4"><path fill="#000000" d="M 16.703125 22.472656 C 16.648438 22.378906 16.601562 22.320312 16.507812 22.335938 C 16.5 22.457031 16.523438 22.542969 16.703125 22.472656"/></g></g></svg>