<?xml version="1.0" encoding="UTF-8" standalone="no"?><svg xmlns="http://www.w3.org/2000/svg" xmlns:xlink="http://www.w3.org/1999/xlink" contentScriptType="text/ecmascript" fill="#000000" width="423.1" zoomAndPan="magnify" contentStyleType="text/css" viewBox="0.0 0.0 423.1 202.4" height="202.4" preserveAspectRatio="xMidYMid meet" version="1"><g><g id="change1_1"><path fill="#f4a224" d="M101.2,0L101.2,0C45.3,0,0,45.3,0,101.2v0c0,55.9,45.3,101.2,101.2,101.2h0c55.9,0,101.2-45.3,101.2-101.2 v0C202.4,45.3,157.1,0,101.2,0z M321.9,0L321.9,0C266,0,220.7,45.3,220.7,101.2v0c0,55.9,45.3,101.2,101.2,101.2h0 c55.9,0,101.2-45.3,101.2-101.2v0C423.1,45.3,377.8,0,321.9,0z"/></g></g><g><g id="change2_1"><path fill="#ffb038" d="M101.2,0L101.2,0C45.3,0,0,45.3,0,101.2v0c0,19.6,5.6,38,15.3,53.5c15.5,9.7,33.8,15.3,53.5,15.3h0 C124.7,170,170,124.7,170,68.8v0c0-19.6-5.6-38-15.3-53.5C139.2,5.6,120.8,0,101.2,0z M375.6,15.3C360.1,5.6,341.8,0,322.1,0h0 c-55.9,0-101.2,45.3-101.2,101.2v0c0,19.6,5.6,38,15.3,53.5c15.5,9.7,33.8,15.3,53.5,15.3h0c55.9,0,101.2-45.3,101.2-101.2v0 C390.9,49.1,385.3,30.8,375.6,15.3z"/></g></g><g><g id="change3_1"><path fill="#f9fbfc" d="M55.3,29.8c-10.3,1.5-19.2,8.7-22.7,18.5C32,50,32.7,51.5,34,51.7c1.3,0.2,2.5-0.8,3-2.1 c2.9-8,10.3-14,18.7-15.2c1.4-0.2,2.6-1.3,2.7-2.5C58.5,30.6,57.1,29.6,55.3,29.8z M30.8,53.7c-1.1,0.9-1.3,2.4-0.5,3.4 s2.4,1.1,3.5,0.2c1.1-0.9,1.3-2.4,0.5-3.4S31.8,52.8,30.8,53.7z M117.8,57.4l-43.8,43.8l43.8,43.8l10.5-10.5l-33.3-33.3l33.3-33.3 L117.8,57.4z M305.3,57.4l-10.5,10.5l33.3,33.3l-33.3,33.3l10.5,10.5l43.8-43.8L305.3,57.4z M276.3,29.8 c-10.3,1.5-19.2,8.7-22.7,18.5c-0.6,1.7,0.1,3.2,1.3,3.4c1.3,0.2,2.5-0.8,3-2.1c2.9-8,10.3-14,18.7-15.2c1.4-0.2,2.6-1.3,2.7-2.5 C279.4,30.6,278,29.6,276.3,29.8z M251.7,53.7c-1.1,0.9-1.3,2.4-0.5,3.4s2.4,1.1,3.5,0.2c1.1-0.9,1.3-2.4,0.5-3.4 S252.8,52.8,251.7,53.7z"/></g></g></svg>