<?xml version="1.0" encoding="UTF-8" standalone="no"?><svg xmlns="http://www.w3.org/2000/svg" xmlns:xlink="http://www.w3.org/1999/xlink" contentScriptType="text/ecmascript" fill="#000000" width="1000" zoomAndPan="magnify" contentStyleType="text/css" viewBox="0.0 0.0 1000.0 1000.0" height="1000" preserveAspectRatio="xMidYMid meet" version="1"><g><g id="change1_1"><path fill="#ffb038" d="M 0 500 C 0 776.144531 223.859375 1000 500 1000 C 776.144531 1000 1000 776.144531 1000 500 C 1000 223.855469 776.144531 0 500 0 C 223.859375 0 0 223.855469 0 500"/></g><g id="change2_1"><path fill="#f4a224" d="M 771.820312 441.878906 L 697.859375 388.1875 L 697.859375 284.417969 C 697.859375 279.898438 694.15625 276.199219 689.640625 276.199219 L 588.609375 276.199219 C 585.140625 276.199219 582.183594 278.40625 580.984375 281.472656 C 578.839844 282.308594 577.148438 284 576.308594 286.148438 C 574.167969 286.980469 572.480469 288.675781 571.640625 290.820312 C 570.085938 291.429688 568.855469 292.542969 567.914062 293.910156 L 545.027344 277.304688 C 520.277344 259.34375 479.742188 259.34375 454.96875 277.304688 L 228.167969 441.878906 C 223.566406 445.210938 220.003906 448.433594 217.425781 451.46875 C 215.621094 453.074219 214.007812 454.65625 212.710938 456.175781 C 210.949219 457.757812 209.347656 459.316406 208.066406 460.8125 C 206.28125 462.425781 204.660156 464.003906 203.375 465.523438 C 201.605469 467.101562 200.011719 468.65625 198.738281 470.152344 C 196.953125 471.75 195.339844 473.320312 194.042969 474.839844 C 192.261719 476.441406 190.632812 478.019531 189.34375 479.542969 C 187.585938 481.125 185.988281 482.675781 184.71875 484.175781 C 182.90625 485.785156 181.28125 487.371094 179.988281 488.902344 C 178.230469 490.480469 176.644531 492.027344 175.371094 493.519531 C 173.582031 495.121094 171.96875 496.691406 170.683594 498.207031 C 168.882812 499.8125 167.269531 501.390625 165.972656 502.910156 C 164.214844 504.492188 162.621094 506.046875 161.34375 507.546875 C 159.550781 509.152344 157.910156 510.742188 156.613281 512.269531 C 154.867188 513.84375 153.277344 515.394531 152 516.890625 C 150.230469 518.484375 148.613281 520.046875 147.324219 521.5625 C 145.527344 523.179688 143.890625 524.765625 142.59375 526.289062 C 140.839844 527.863281 139.261719 529.410156 137.976562 530.910156 C 136.167969 532.523438 134.550781 534.109375 133.246094 535.640625 C 131.492188 537.214844 129.90625 538.761719 128.628906 540.261719 C 126.847656 541.855469 125.25 543.425781 123.953125 544.933594 C 122.144531 546.546875 120.519531 548.136719 119.222656 549.664062 C 117.46875 551.238281 115.882812 552.789062 114.609375 554.28125 C 112.808594 555.890625 111.191406 557.472656 109.894531 559 C 108.125 560.578125 106.527344 562.136719 105.253906 563.636719 C 103.457031 565.246094 101.839844 566.820312 100.542969 568.34375 C 98.78125 569.929688 97.183594 571.484375 95.902344 572.992188 C 94.132812 574.574219 92.53125 576.140625 91.242188 577.652344 C 89.441406 579.261719 87.824219 580.84375 86.527344 582.363281 C 84.753906 583.945312 83.167969 585.507812 81.890625 587.003906 C 80.09375 588.613281 78.464844 590.191406 77.179688 591.714844 C 75.417969 593.289062 73.828125 594.847656 72.546875 596.34375 C 70.761719 597.941406 69.152344 599.515625 67.855469 601.027344 C 66.070312 602.636719 64.445312 604.210938 63.15625 605.734375 C 61.390625 607.316406 59.789062 608.871094 58.527344 610.371094 C 56.714844 611.984375 55.097656 613.558594 53.800781 615.078125 C 52.046875 616.660156 50.457031 618.21875 49.179688 619.710938 C 47.394531 621.308594 45.777344 622.878906 44.492188 624.394531 C 42.695312 625.996094 41.078125 627.582031 39.777344 629.101562 C 38.023438 630.679688 36.433594 632.234375 35.15625 633.734375 C 33.355469 635.347656 31.722656 636.933594 30.433594 638.457031 C 28.671875 640.039062 27.082031 641.585938 25.808594 643.078125 C 24.363281 644.378906 23.085938 645.644531 21.945312 646.886719 C 81.148438 839.789062 253.886719 983.019531 462.214844 998.585938 C 463.273438 997.613281 464.273438 996.597656 465.132812 995.488281 C 466.898438 994.09375 468.464844 992.539062 469.800781 990.828125 C 471.582031 989.421875 473.152344 987.859375 474.484375 986.140625 C 476.257812 984.742188 477.8125 983.183594 479.140625 981.480469 C 480.921875 980.074219 482.488281 978.519531 483.824219 976.800781 C 485.601562 975.398438 487.164062 973.835938 488.511719 972.117188 C 490.28125 970.726562 491.835938 969.167969 493.164062 967.457031 C 494.953125 966.054688 496.519531 964.488281 497.851562 962.769531 C 499.617188 961.371094 501.179688 959.816406 502.523438 958.113281 C 504.289062 956.710938 505.859375 955.148438 507.1875 953.433594 C 508.972656 952.027344 510.542969 950.46875 511.875 948.75 C 513.640625 947.355469 515.207031 945.796875 516.542969 944.089844 C 518.320312 942.6875 519.878906 941.121094 521.226562 939.40625 C 522.992188 938.011719 524.554688 936.445312 525.886719 934.734375 C 527.660156 933.34375 529.226562 931.777344 530.566406 930.066406 C 532.34375 928.660156 533.902344 927.101562 535.246094 925.382812 C 537.019531 923.988281 538.582031 922.425781 539.898438 920.722656 C 541.6875 919.316406 543.261719 917.753906 544.589844 916.035156 C 546.359375 914.640625 547.921875 913.082031 549.253906 911.371094 C 551.03125 909.972656 552.597656 908.402344 553.9375 906.683594 C 555.710938 905.292969 557.269531 903.734375 558.59375 902.027344 C 560.386719 900.625 561.945312 899.058594 563.277344 897.355469 C 565.058594 895.945312 566.617188 894.382812 567.96875 892.667969 C 569.734375 891.269531 571.289062 889.710938 572.621094 888.003906 C 574.398438 886.601562 575.976562 885.035156 577.308594 883.320312 C 579.066406 881.925781 580.636719 880.363281 581.976562 878.65625 C 583.738281 877.257812 585.3125 875.691406 586.640625 873.980469 C 588.421875 872.578125 589.996094 871.011719 591.324219 869.300781 C 593.101562 867.898438 594.664062 866.339844 595.992188 864.632812 C 597.769531 863.230469 599.332031 861.667969 600.679688 859.949219 C 602.445312 858.558594 604.007812 856.992188 605.328125 855.289062 C 607.117188 853.886719 608.679688 852.324219 610.015625 850.613281 C 611.792969 849.210938 613.359375 847.644531 614.703125 845.929688 C 616.480469 844.53125 618.023438 842.972656 619.355469 841.261719 C 621.140625 839.859375 622.710938 838.300781 624.035156 836.582031 C 625.816406 835.1875 627.371094 833.628906 628.710938 831.921875 C 630.484375 830.515625 632.046875 828.945312 633.398438 827.234375 C 635.164062 825.839844 636.714844 824.273438 638.046875 822.566406 C 639.832031 821.175781 641.398438 819.605469 642.730469 817.898438 C 644.507812 816.496094 646.070312 814.933594 647.417969 813.214844 C 649.1875 811.820312 650.738281 810.253906 652.070312 808.554688 C 653.855469 807.148438 655.433594 805.585938 656.761719 803.867188 C 658.53125 802.472656 660.085938 800.910156 661.425781 799.199219 C 663.195312 797.804688 664.765625 796.238281 666.09375 794.53125 C 667.882812 793.128906 669.449219 791.5625 670.773438 789.84375 C 672.554688 788.449219 674.113281 786.890625 675.441406 785.183594 C 677.222656 783.78125 678.785156 782.214844 680.132812 780.496094 C 681.90625 779.101562 683.457031 777.539062 684.789062 775.828125 C 686.570312 774.433594 688.136719 772.871094 689.46875 771.160156 C 691.25 769.757812 692.8125 768.195312 694.15625 766.472656 C 695.921875 765.078125 697.480469 763.519531 698.808594 761.8125 C 700.59375 760.414062 702.160156 758.84375 703.488281 757.132812 C 705.269531 755.730469 706.835938 754.171875 708.167969 752.460938 C 709.929688 751.066406 711.507812 749.5 712.835938 747.789062 C 714.613281 746.390625 716.183594 744.824219 717.515625 743.105469 C 719.296875 741.714844 720.859375 740.148438 722.183594 738.441406 C 723.960938 737.039062 725.527344 735.480469 726.867188 733.765625 C 728.640625 732.363281 730.195312 730.804688 731.527344 729.097656 C 737.417969 724.453125 741.140625 717.949219 741.140625 710.699219 L 741.140625 511.984375 C 742.808594 510.847656 744.003906 509.527344 744.738281 508.039062 C 747.003906 506.757812 748.523438 505.171875 749.394531 503.371094 C 751.675781 502.089844 753.195312 500.503906 754.082031 498.695312 C 756.355469 497.410156 757.859375 495.824219 758.742188 494.027344 C 761.019531 492.746094 762.535156 491.15625 763.421875 489.347656 C 765.703125 488.066406 767.214844 486.480469 768.097656 484.671875 C 770.367188 483.390625 771.882812 481.804688 772.765625 480.003906 C 775.039062 478.722656 776.566406 477.136719 777.445312 475.324219 C 779.71875 474.042969 781.234375 472.457031 782.113281 470.652344 C 791.9375 465.121094 788.921875 454.285156 771.820312 441.878906"/></g><g id="change3_1"><path fill="#ffffff" d="M 771.820312 441.878906 L 697.859375 388.1875 L 697.859375 284.417969 C 697.859375 279.898438 694.15625 276.199219 689.640625 276.199219 L 588.609375 276.199219 C 584.089844 276.199219 580.382812 279.898438 580.382812 284.417969 L 580.382812 302.949219 L 545.027344 277.304688 C 520.277344 259.34375 479.742188 259.34375 454.96875 277.304688 L 228.167969 441.878906 C 203.402344 459.851562 208.183594 474.558594 238.789062 474.558594 L 259.234375 474.558594 C 259.003906 475.816406 258.882812 477.097656 258.882812 478.394531 L 258.882812 710.699219 C 258.882812 724.765625 272.714844 736.167969 289.734375 736.167969 L 445.617188 736.167969 C 445.589844 735.59375 445.546875 735.019531 445.546875 734.449219 L 445.546875 600.175781 C 445.546875 585.089844 457.871094 572.753906 472.960938 572.753906 L 527.058594 572.753906 C 542.132812 572.753906 554.476562 585.089844 554.476562 600.175781 L 554.476562 729.34375 C 554.476562 729.34375 554.429688 735.59375 554.382812 736.167969 L 710.28125 736.167969 C 727.308594 736.167969 741.140625 724.765625 741.140625 710.699219 L 741.140625 478.394531 C 741.140625 477.097656 741.011719 475.816406 740.785156 474.558594 L 761.214844 474.558594 C 791.835938 474.558594 796.613281 459.851562 771.820312 441.878906"/></g></g></svg>