<?xml version="1.0" encoding="UTF-8" standalone="no"?><svg xmlns="http://www.w3.org/2000/svg" xmlns:xlink="http://www.w3.org/1999/xlink" contentScriptType="text/ecmascript" fill="#ffffff" width="441.5" zoomAndPan="magnify" contentStyleType="text/css" viewBox="29.5 229.3 441.5 40.0" height="40" preserveAspectRatio="xMidYMid meet" version="1"><g id="change1_1"><path fill="inherit" d="M 123.128906 251.554688 C 127.5625 251.902344 131.273438 251.644531 135.0625 251.3125 C 146.316406 250.316406 157.613281 249.769531 168.90625 249.371094 C 176.925781 249.089844 184.84375 247.761719 192.929688 247.953125 C 203.5 248.203125 214.054688 246.804688 224.609375 246.164062 C 234.683594 245.550781 244.851562 245.789062 254.832031 244.238281 C 261.890625 243.144531 268.925781 244.121094 275.976562 243.339844 C 292.378906 241.523438 308.917969 243.269531 325.390625 241.59375 C 332.8125 240.839844 340.488281 242.292969 348.050781 241.492188 C 358.667969 240.367188 369.320312 241.933594 379.921875 241.121094 C 393.863281 240.046875 407.761719 241.640625 421.683594 241.371094 C 422.121094 241.363281 422.554688 241.058594 423.601562 240.660156 C 412.058594 236.316406 399.550781 237.652344 388.3125 232.277344 C 389.972656 229.507812 391.945312 229.257812 394.128906 229.367188 C 403.808594 229.867188 413.523438 229.910156 422.972656 232.640625 C 425.4375 233.351562 428.132812 233.472656 430.726562 233.5 C 442.394531 233.632812 453.675781 236.8125 465.242188 237.707031 C 467.214844 237.859375 468.765625 238.890625 470.347656 240.039062 C 470.976562 241.636719 470.621094 243.222656 469.816406 245.664062 C 445.289062 254.710938 418.90625 259.46875 392.65625 269.210938 C 395.894531 263.28125 401.4375 263.609375 405.3125 261.347656 C 409.347656 258.992188 413.851562 257.464844 418.054688 255.371094 C 422.398438 253.210938 427.3125 252.671875 431.894531 250.746094 C 431.050781 248.5625 429.414062 249.011719 428.292969 249.207031 C 420.792969 250.527344 413.265625 250.132812 405.703125 250.203125 C 392.761719 250.324219 379.769531 248.871094 366.863281 250.957031 C 366.628906 250.992188 366.390625 251.105469 366.164062 251.078125 C 353.914062 249.726562 341.6875 250.847656 329.4375 251.1875 C 322.140625 251.394531 314.796875 250.160156 307.46875 251.253906 C 297.589844 252.730469 287.683594 250.4375 277.769531 251.628906 C 266.722656 252.949219 255.59375 251.71875 244.507812 252.042969 C 239.785156 252.179688 234.976562 251.808594 230.367188 252.605469 C 225.335938 253.476562 220.433594 253.222656 215.53125 252.5625 C 211.667969 252.046875 208.007812 253.066406 204.269531 253.332031 C 193.253906 254.105469 182.222656 253.316406 171.191406 254.441406 C 163.019531 255.277344 154.6875 254.648438 146.429688 254.507812 C 142.410156 254.441406 138.445312 254.023438 134.40625 254.882812 C 128.835938 256.0625 123.144531 256.074219 117.507812 255.15625 C 113.714844 254.535156 109.855469 255.398438 106.316406 255.890625 C 95.980469 257.320312 85.484375 254.539062 75.296875 257.542969 C 74.4375 257.796875 73.410156 257.566406 72.472656 257.453125 C 64.441406 256.476562 56.496094 257.320312 48.496094 258.113281 C 42.210938 258.738281 35.835938 258.4375 29.472656 258.15625 C 35.8125 256.867188 42.074219 255.035156 48.644531 255.886719 C 50.84375 256.171875 52.847656 255.214844 54.957031 255.152344 C 66.703125 254.804688 78.421875 253.839844 90.140625 253.148438 C 100.910156 252.515625 111.722656 252.609375 123.128906 251.554688"/></g></svg>