<?xml version="1.0" encoding="UTF-8" standalone="no"?><svg xmlns="http://www.w3.org/2000/svg" xmlns:xlink="http://www.w3.org/1999/xlink" contentScriptType="text/ecmascript" fill="#f9fbfc" width="292.1" zoomAndPan="magnify" contentStyleType="text/css" viewBox="-3.1 -0.5 292.1 265.1" height="265.1" preserveAspectRatio="xMidYMid meet" version="1"><g id="change1_1"><path d="M160.6,201.7c-0.7,5.4-4.9,8.7-7.7,12.8c-3.5,5.2-7.8,9.9-11.9,14.7c-0.6,0.7-1.7,1.2-2.6,1.6c-0.6,0.2-1.4-0.1-2-0.2 c0.4,0.5,0.9,1,1.1,1.6c0.2,0.5,0.2,1.4-0.1,1.8c-1.1,1.2-2.3,2.6-3.7,3.3c-2.1,1.1-4.4,1.8-4.8,4.8c-0.1,0.9-1.8,1.9-3,2.2 c-2.4,0.8-4.6,1.5-5.4,4.3c-0.2,0.5-1.6,0.6-2.3,1c-0.6,0.4-1.2,1-1.7,1.6c-0.5,0.7-0.6,1.8-1.3,2.1c-4.7,2.2-9.4,4.3-14.1,6.4 c-0.8,0.4-2,0.3-2.5,0.9c-2.5,3.1-6.3,2.5-9.4,2.5c-2.9-0.1-5.6,0.4-8.3,1c-1.1,0.2-2.2,0.5-3.3,0.4c-7.9-0.3-15.9-0.2-23.6-1.3 c-6.4-0.9-12.6-3.3-17.5-8.2c-1.7-1.8-4.3-2.7-6.2-4.3c-15.8-13.4-24.2-31-27.6-50.9c-5.8-34.3-2.7-68.2,8.2-101.3 c6.1-18.6,15.1-35.9,26.5-52c9.9-14,21.5-26.6,36.1-35.9c8.1-5.2,16.8-9.4,26.7-9.2c2.7,0,5.6,0.3,8.1,1.1 c13.2,4.4,23.4,13,32.1,23.7c11.2,13.8,17.6,30,23.6,46.4c0.3,0.7,0.7,1.4,1.1,2.1c0.5-0.5,1.3-0.9,1.5-1.5c0.8-1.9,1.3-3.9,2.1-5.7 c8.4-18.6,16.7-37.3,25.4-55.9c1.5-3.3,4.1-6.3,6.7-8.9c1.5-1.5,3.9-2,6-2.9c0.6-0.3,1.5-0.1,2.2-0.1c3.1-0.2,0.9,5.5,4.5,4.3 c3-1,4.1,0.3,6,2.3c2.4,2.5,5.9,3.9,7,7.6c0.8,2.8,1.8,5.5,2.1,8.3c0.2,2.1,0,4.6-3,5.3c-1.5,5.1-4.3,9.8-4.9,15.3 c-0.4,4-2.1,7.9-3.2,11.8c-0.8,2.9-2,5.7-2.6,8.6c-0.3,1.5,0.1,3.1,0.2,4.7c0.1,0.9,0.5,1.7,0.5,2.6c-0.1,2.2-2.3,2.1-3.4,3.2 c-1.8,1.8,2.1,1.5,1.6,3.1c-0.4,1.6-0.7,3.3-1.2,4.9c-0.2,0.5-0.8,0.9-1.3,1.4c-0.1-0.5-0.1-1.1-0.3-1.6c-0.2-0.6-0.5-1.1-0.8-1.6 c-0.3,0.5-0.8,0.9-0.8,1.4c-0.2,1.3-0.8,3.3-0.2,3.8c2.6,2.2,1,4.4,0.3,6.5c-3.5,10.7-7.2,21.3-10.8,31.9c-0.2,0.6-0.7,1.2-1.1,1.8 c-0.4-0.8-1.3-1.6-1.2-2.3c0.3-2,1.1-4,1.5-6c0.2-0.7,0-1.4,0-2.1c-0.4,0.6-0.9,1.1-1.3,1.8c-3.5,5.9-5.4,12.5-7.5,18.9 c-0.2,0.7-0.3,1.9,0,2.1c3.2,2.3,2,5.6,2,8.6c-0.1,3.3,1.7,6.1,2.6,9.1c0.2,0.7,0.6,1.4,0.6,2.1c-0.3,4.2-0.9,8.5,4.4,10.2 c2,9,8.8,15.5,12.3,23.7c1.5,3.5,4.1,6.6,6.7,9.6c0.8,1,3,1.3,4.5,1.2c5.8-0.3,10.6-3.4,15.4-6.2c6.4-3.7,11.5-8.9,16.1-14.8 c2.4-3.1,5.2-5.9,8-8.6c0.7-0.7,2.4-0.4,3.6-0.6c-0.3,1-0.5,2.1-0.8,3.1c-2.1,7-6.1,12.8-10.8,18.2c-0.4,0.4-0.2,1.2-0.3,1.9 c0.5-0.2,1.1-0.3,1.4-0.7c4.3-4.7,8.5-9.4,12.7-14.2c1.3-1.6,2.2-3.6,3.7-4.9c0.7-0.7,2.4-0.6,3.5-0.5c0.3,0,0.4,1.8,0.4,2.8 c0,0.9-0.6,1.8-0.7,2.7c0,0.4,0.4,0.9,0.7,1.3c0.1,0.1,0.7-0.2,0.9-0.4c0.4-0.4,0.7-0.9,1.1-1.3c2.5-2.6,4.6-2.3,6.4,0.7 c0.9,1.5-1.2,5.6,3.4,3.8c0,0.9,0.4,1.9,0,2.6c-2.1,4.6-4.4,9.1-6.6,13.7c-0.7,1.3-1.6,2.6-2.2,3.9c-0.5,1.1-0.7,2.3-1.1,3.4 c0.9-0.9,2-1.8,2.6-2.9c2.7-4.5,5.2-9.1,7.8-13.6c0.3-0.6,1.1-0.9,1.6-1.4c-0.1,0.7,0,1.4-0.3,2c-7.4,17.7-19.2,31.4-36.7,39.5 c-8.3,3.8-17,5.8-26.3,3.6c-5.6-1.3-11.4-1.9-17-2.8c-9.9-1.5-17.8-7-24.5-13.9c-6.3-6.6-11.9-13.9-17.6-21.1 c-1.3-1.7-1.7-2-2.8,0.1c-0.8,1.6-2.5,2.7-3.7,4.1c0.9-2.6,1.9-5.2,2.8-7.8c0.2-0.6,0-1.4-0.1-2.1c-0.7,0.3-1.7,0.5-2.1,1 c-3.4,5.3-6.8,10.7-10.1,16c-0.6,0.9-0.9,2.1-1.2,3.1c-0.1,0.3,0.2,0.8,0.4,1.2c0.4-0.1,0.8-0.1,1-0.4c0.7-0.8,1.2-1.7,1.9-2.6 C155.4,207.4,156.7,203.4,160.6,201.7 M82.5,54.2c1.2-1.8,2.2-3.9,3.6-5.5c2-2.2,4.3-4.2,6.5-6.3c0.4-0.4,0.6-0.9,0.9-1.3 c-0.6,0.1-1.3,0.2-1.9,0.4c-0.2,0-0.3,0.2-0.4,0.3c-11.6,9.3-20,21.1-27.3,34c-0.2,0.3,0.2,1,0.3,1.5c0.4-0.3,0.9-0.6,1.2-1 C69.8,70,74,63.6,78.5,57.4c1-1.4,2.8-2.3,4.2-3.4c-0.5,1.2-0.9,2.5-1.7,3.5c-8.2,10.1-14.8,21.2-20.8,32.8 c-5.2,10.2-9.7,20.7-12.6,31.8c-3.5,13.5-5.7,27.1-6.4,41.1c-0.8,17.5-0.6,34.9,5.4,51.6c2.4,6.8,5,13.7,9.8,19.4 c1.8,2.2,3.7,3.2,6.3,2c4.5-2.2,9.3-4.1,13.4-6.9c9.3-6.5,16.6-15.2,23.1-24.3c15.3-21.5,27.7-44.6,39.5-68.2c2-4,2.3-7.7,1.2-11.8 c-7-25.1-14-50.2-21-75.3c-1.3-4.5-3-8.9-4.8-13.2c-0.6-1.5-1.6-3.1-3.8-2.3c-2.6,1-5.6,1.5-7.7,3.2c-5.3,4.1-10.2,8.8-15.3,13.2 C85.8,51.7,84.1,52.9,82.5,54.2 M109.8,210.6c1.1-0.7,1.7-0.8,2.1-1.2c1.7-2,3.5-3.9,5.1-6c11.4-14.9,19.4-31.7,27.8-48.2 c0.5-1,0.8-2.1,1-3.2c0.1-0.7-0.1-1.4-0.2-2.1c-0.5,0.4-1.1,0.7-1.4,1.3c-1,1.8-1.9,3.6-3,5.4c-7.7,13.3-15.3,26.6-23.1,39.9 c-2.3,3.9-5,7.4-7.5,11.2C110.2,208.3,110.2,209.2,109.8,210.6 M48.4,49.3c0.8-0.7,1.5-1.1,2-1.7c2.9-3.2,5.5-6.7,8.7-9.5 C67,31,75.2,24.3,83.2,17.3c0.4-0.4,0.4-1.2,0.6-1.8c-0.7-0.1-1.6-0.4-2-0.1c-1.2,0.8-2,2.2-3.3,2.8c-5,2.6-9.5,5.8-13.3,10 c-3.1,3.4-6.1,7.1-9.7,10c-3.4,2.6-4.4,6.5-7,9.5C48.2,47.9,48.4,48.5,48.4,49.3"/></g></svg>