<?xml version="1.0" encoding="UTF-8" standalone="no"?><svg xmlns="http://www.w3.org/2000/svg" xmlns:xlink="http://www.w3.org/1999/xlink" contentScriptType="text/ecmascript" fill="#f9fbfc" width="189.7" zoomAndPan="magnify" contentStyleType="text/css" viewBox="-0.1 -0.7 189.7 342.3" height="342.3" preserveAspectRatio="xMidYMid meet" version="1"><g id="change1_1"><path d="M169.9,59.3c-0.6,13.9-5.9,25.6-14.4,35.9c-3.3,4-6.3,8.4-11.2,10.8c-0.1,0.1-0.3,0.2-0.4,0.3c-4.6,4-4.5,4.9,1.2,7.1 c13.7,5.2,24.3,14.4,33.1,26c4.7,6.2,8,12.9,9.9,20.4c0.6,2.5,1.5,5-1.3,6.9c-0.4,0.2-0.4,1.7-0.2,1.9c2.5,1.3,1.1,3.4,0.6,4.8 c-1.4,3.8-3.3,7.4-5,11.1c-0.2,0.5-0.2,1.2-0.2,1.8c0.5-0.4,1.1-0.8,1.6-1.2c0.5-0.4,0.9-0.8,1.3-1.2c0,0.6,0.4,1.4,0.1,1.9 c-1.7,2.7-3.3,5.5-5.4,8c-8.6,10.1-19.4,17.3-31,23.4c-20.4,10.8-42.3,16.9-65.2,19.7c-12.6,1.6-24.6-0.1-36.4-4.4 c-3.6-1.3-7-3.4-10.3-5.4c-2.1-1.2-3.4-0.6-3.5,1.6c-0.4,7.6-3.8,14.8-3,22.7c0.4,3.7-0.5,7.8-1.6,11.5c-0.9,3,0.5,6.6-2,9.2 c-0.2,0.2-0.3,0.8-0.2,0.9c3.7,2.4,0.8,5.2,0.5,7.8c-0.3,3-0.6,5.9-0.8,8.9c-0.7,8.2-1.1,16.4-2.1,24.5c-0.6,5.1-1.9,10.2-3,15.3 c-0.2,0.8-0.6,2-1.1,2.2c-3.1,1-2.7,3.6-3,6c-0.1,0.7-0.6,1.3-0.9,1.9c-0.3-0.6-0.8-1.1-1-1.7c-0.1-0.6,0.2-1.3,0-1.9 c-0.1-0.2-1.3-0.4-1.4-0.2c-1,1.5-1.7,3.2-2.7,4.8c-0.3,0.5-1,0.7-1.4,1c-0.3-0.6-0.5-1.3-0.8-1.9c-0.2-0.6-0.2-1.5-0.6-1.7 c-3.3-1.7-5.1-4.7-5.6-9.2c-0.3-2.4-0.8-4.8-1.1-7.3c-0.4-4.2-0.7-8.3-0.9-12.5c-0.3-6.3-0.6-12.7-0.5-19c0.4-25,1-50.1,1.4-75.1 c0.1-7.6-0.2-15.2,0.4-22.8c1.6-20.9,3.7-41.8,5.5-62.6c1.6-17.3,5.6-34,12.1-50.1C24.9,65.9,31.4,53.2,40,41.9 C55.2,21.7,74.3,6.9,99.6,1.6c9.4-2,18.9-2.3,28.2,0.4c3.8,1.1,7.9,2.6,11,4.9c12.7,9.5,22.7,21.3,27.7,36.7 C168.2,48.6,168.8,54,169.9,59.3 M50.9,194.6c15.4-0.6,27.9-3.4,40.3-6.9c17.5-5,33.7-12.8,48.5-23.6c5.5-4,8.7-9.4,12.5-14.6 c1.3-1.8,0.8-3.2-1.3-3.9c-2.3-0.7-4.6-1.2-6.8-1.9c-2-0.6-4.9-0.8-5.7-2.2c-2.2-3.8-4,0.6-5.9-0.3c-0.3-0.1-0.7-0.2-1-0.2 c-4.4-0.4-8.8-0.8-13.2-1.1c-0.3,0-0.7,0-1,0.2c-2.1,1.7-4.6,1.2-7,1.7c-10.4,2.2-20.8,4.2-30.8,8.1c-6.1,2.4-12.2,4.8-18.3,7.1 c-1.3,0.5-2.6,0.9-1.4-1.3c0.1-0.2-0.5-1-0.7-1c-0.8,0.2-1.6,0.6-2.4,0.8c-0.7,0.1-1.4-0.1-2.2-0.2c0.2-0.6,0.2-1.5,0.6-1.8 c1.6-1.5,3.4-2.8,5-4.2c0.3-0.2,0.2-0.8,0.3-1.2c-0.3,0-0.7-0.2-1-0.1c-1.1,0.4-2.1,1.1-3.2,1.3c-1,0.2-2.9,0.2-3.1-0.4 c-1.3-2.7-2.6-2.6-4.5-0.7c-0.4,0.4-1.7-0.1-2.6-0.2c0.4-0.7,0.7-1.7,1.3-2.2c1.8-1.7,3.7-3.2,5.5-4.9c0.3-0.3,0.4-0.7,0.7-1.1 c-0.4,0-0.9-0.1-1.3,0.1c-1.3,0.6-2.6,1.3-3.9,2c-1.9,1.1-3.7,2.4-5.6,3.4c-3.4,1.6-3.6,1.5-4.3,4.5c-1.1,4.6-3.3,9-1.4,14 c0.4,1.1-0.3,2.6-0.6,3.9c-0.2,1-0.7,1.9-0.8,2.8c-0.2,5.9,0.2,11.9-0.7,17.6c-0.5,3,0.5,3.8,2.5,4.2 C42.6,193.3,47.9,194.1,50.9,194.6 M133.3,38.6c0.1-3.4-1.7-3.2-3.2-3.3c-10.6-0.5-20.6,1.7-29.6,7.2c-4.9,3-9.5,6.4-14,10.1 c-9.6,7.9-20,22.3-26.7,35.7c-0.4,0.9-1.8,1.3-2.8,1.8c-0.8,0.5-1.9,0.6-2.4,1.2c-3.3,4-3.6,9.3-5.8,13.8c1.8,3.3-0.4,5.6-2,8.1 c-0.8,1.2-1.3,2.6-2,3.9c1.3-0.4,2.6-0.9,3.8-1.3c1.4-0.5,2.9-0.9,4.2-1.6c5.1-2.9,10.2-5.9,15.3-8.9c14.5-8.7,28.3-18.3,40.7-29.7 c8.6-7.9,16.6-16.5,21.3-27.4C131.5,44.8,132.4,41.1,133.3,38.6 M106.2,195.9c0.3-0.1,0.6-0.2,1-0.3c7-1.4,13.6-4,19.8-7.5 c3.4-1.9,6.5-4.4,10-5.9c3.5-1.5,5.2-4.5,7.7-6.9c0.2-0.2,0.2-0.6,0.4-0.9c-0.4-0.1-1-0.3-1.3-0.2c-0.9,0.4-1.8,0.9-2.6,1.5 c-8.6,6.4-18.2,11.1-27.8,15.6c-2.4,1.1-4.9,2.3-7.3,3.5c-0.4,0.2-0.6,0.6-0.9,0.9C105.6,195.8,105.9,195.8,106.2,195.9 M134.1,220.5c0.9-0.4,2.1-0.7,3.1-1.2c8.3-4.6,16.7-8.9,24.7-14c4.4-2.8,8-6.8,11.9-10.3c0.5-0.4,0.7-1.1,1-1.7 c-0.6,0.2-1.2,0.3-1.6,0.6c-11.7,9.5-24.3,17.8-37.7,24.6c-0.6,0.3-1.2,0.6-1.8,1c-0.1,0.1-0.1,0.4-0.2,0.7 C133.5,220.3,133.8,220.4,134.1,220.5 M92.5,14.2c-0.1-0.2-0.3-0.4-0.4-0.6c-0.6,0.1-1.3,0.1-1.9,0.3c-11.4,3.2-20.4,10.3-28.9,18.2 c-0.5,0.5-0.7,1.3-1.1,1.9c0.7-0.4,1.5-0.6,2.1-1.1c7.9-6.2,16.5-11.2,25.3-15.9c1.2-0.6,2.3-1.4,3.5-2C91.6,14.8,92,14.5,92.5,14.2 M79.9,111.1c1.2-0.5,2.2-0.7,3-1.2c4.8-3,9.8-6,14.4-9.3c3.1-2.2,5.9-5,8.8-7.5c0.3-0.3,0.4-0.8,0.5-1.2c-0.5,0-0.9-0.1-1.4,0 c-0.3,0.1-0.6,0.4-0.8,0.6c-5.2,3.7-10.5,7.3-15.7,11.1c-1.2,0.8-2.2,1.9-3.8,0.9c-1.1,2.5-3.1,4-5.4,5.4 C79.4,109.8,79.7,110.5,79.9,111.1 M101.5,39c-1.2,0-1.8-0.2-2.1,0C89.8,43.3,82,50,75.4,58c-0.2,0.3-0.1,0.8-0.2,1.3 c0.4-0.2,1-0.3,1.3-0.6c6.9-7.3,14.6-13.5,23.2-18.5C100.2,40,100.5,39.6,101.5,39 M133.6,110.8c6.1,0.2,7.2-5,10.6-7.1 c0.2-0.1,0-1.5-0.4-1.7c-0.4-0.3-1.4-0.1-1.8,0.3c-2.7,2.2-5.4,4.5-8.1,6.8c-0.5,0.4-0.7,1-1.1,1.5 C133.4,110.8,134,110.9,133.6,110.8 M52.7,127.4c-0.8-0.2-1.4-0.5-1.9-0.4c-3.4,0.8-6.5,2.4-8.9,5.1c-0.3,0.3-0.4,1.1-0.2,1.3 c0.3,0.3,1,0.5,1.4,0.4c2.9-1.5,5.8-3.1,8.7-4.8C52.1,128.7,52.2,128.1,52.7,127.4"/></g></svg>