<?xml version="1.0" encoding="UTF-8" standalone="no"?><svg xmlns="http://www.w3.org/2000/svg" xmlns:xlink="http://www.w3.org/1999/xlink" contentScriptType="text/ecmascript" fill="#000000" width="353.9" zoomAndPan="magnify" contentStyleType="text/css" viewBox="-1.7 -0.0 353.9 138.7" height="138.7" preserveAspectRatio="xMidYMid meet" version="1"><g id="change1_1"><path fill="#000000" d="M350.3294,24.4347c-5.5786-1.8687-11.2212-3.5562-16.9014-5.1094c-0.1313-0.1211-0.312-0.2275-0.5625-0.3108 c-16.3179-5.4282-33.1982-8.7979-50.3853-9.7104c-0.2314-0.0125-0.4644-0.0183-0.6963-0.0295 c-0.064-0.0034-0.127-0.0103-0.1909-0.0134c-0.6489-0.033-1.2998-0.0549-1.9507-0.0776c-0.0054-0.0002-0.0107-0.0005-0.0166-0.0007 c-12.2988-0.428-24.8721,1.0356-35.707,6.9573c-0.1069,0.0583-0.2124,0.1208-0.3188,0.1802 c-0.6851,0.3811-1.3633,0.7769-2.0337,1.1946c-0.2197,0.137-0.437,0.2817-0.6553,0.4226c-0.3647,0.2361-0.7354,0.4585-1.0952,0.7058 c-0.2163,0.1489-0.4229,0.3074-0.6362,0.4592c-0.0796,0.0564-0.1621,0.1055-0.2417,0.1626c-0.1177,0.085-0.229,0.1758-0.3457,0.2615 c-0.3569,0.2622-0.7095,0.5281-1.0571,0.7988c-0.3555,0.2749-0.707,0.5527-1.0537,0.8352c-0.105,0.0867-0.2095,0.1741-0.314,0.2617 c-4.0034,3.3162-7.4023,7.1399-10.2949,11.3364c2.7515-5.4727,6.252-10.5569,10.7012-15.0457 C246.7762,7.42,259.2191,4.1075,273.4598,4.3761c16.9038,0.3186,33.9761,3.8523,49.9775,9.1755 c1.7349,0.5771,3.9365,0.3281,5.4707-0.7278c0.812-0.5591,2.541-2.3796,0.6821-2.998c-17.4429-5.8027-36.0776-9.7766-54.5361-9.8254 c-14.7031-0.0391-29.0044,3.0989-40.5059,12.6489c-19.3257,16.0466-24.7739,40.8333-25.8599,64.874 c-22.0059-22.8096-52.3516-36.9973-84.1035-39.0293c-18.3379-1.1736-37.2158,1.9729-52.8438,12.0647 c-13.3159,8.5991-23.3813,21.167-31.0239,34.9063c-6.4063,11.5164-11.3081,23.7681-15.5962,36.2217 c-3.5747-4.8857-7.3145-9.6487-11.2603-14.2595c-0.9995-1.168-2.8809-1.2776-4.5244-0.7859 c-0.647-1.0366-1.2939-2.0732-1.9082-3.1357c-1.8086-3.1282-9.144-0.1431-7.0581,3.4644 c5.6416,9.7573,12.7334,18.4385,21.0322,25.9651c-0.4292,1.345-0.856,2.6907-1.2778,4.0361 c-0.0464,0.1477-0.0571,0.2786-0.0532,0.4021c0.001,0.0308,0.002,0.0615,0.0054,0.0908c0.0151,0.1145,0.0469,0.2202,0.1001,0.3142 c0.0107,0.0183,0.0254,0.0339,0.0371,0.0515c0.0645,0.0964,0.1455,0.1833,0.2441,0.259c0,0.0002,0,0.0002,0.0005,0.0005 c0.7622,0.5847,2.4165,0.5864,2.9971,0.5203c1.4478-0.165,2.8872-0.3613,4.3237-0.5718c1.2676,0.3547,2.9316,0.0447,4.1797-0.6785 c13.8799-2.4778,27.2021-7.0786,39.7705-13.647c1.3813-0.7219,1.6997-1.3799,1.4229-1.9009 c-0.0146-0.3955-0.2227-0.782-0.7402-1.0972c-12.1357-7.3838-28.9673,0.8215-41.6777,6.5364 c8.4102-24.3372,20.4185-48.6521,41.9448-63.6892c14.7925-10.3335,31.6904-14.0916,49.5781-13.1267 c15.4399,0.8325,31.0703,3.3726,45.5635,8.8994c16.0776,6.1313,30.0615,15.9883,40.9136,29.3662 c0.8394,1.0347,2.7598,1.0149,4.4419,0.4106c1.5181-0.4692,2.8521-1.355,3.0098-2.4072 c2.2896-15.3181,5.6421-34.604,14.0771-49.5073c2.7446-4.7148,6.0483-9.0469,10.0815-12.7886 c10.8169-10.0349,24.9517-11.4985,39.124-10.7437c1.291,0.0688,2.5791,0.1768,3.8677,0.2749 c6.8623,0.7585,13.6816,2.1086,20.2563,3.4951c13.665,2.8813,27.3335,6.2883,40.5835,10.7261 c1.7329,0.5803,3.939,0.3267,5.4712-0.7278C350.4617,26.8717,352.1854,25.0563,350.3294,24.4347z M63.0105,123.0319 c-8.1172,3.1626-16.5313,5.0718-25.1694,5.7212c3.2573-1.3748,6.5317-2.7056,9.8755-3.8472 C52.616,123.2333,58.0325,121.6329,63.0105,123.0319z M75.0647,56.8263c-5.1416,2.8479-9.939,6.2275-14.3838,10.021 c2.5962-2.9734,5.3828-5.7883,8.3989-8.4001c23.7158-20.5337,58.1152-18.8662,86.3652-8.21 c-8.8447-2.0415-17.9424-3.3088-27.0723-3.9631C109.6985,44.9352,91.5691,47.6849,75.0647,56.8263z"/></g></svg>