<?xml version="1.0" encoding="UTF-8" standalone="no"?><svg xmlns="http://www.w3.org/2000/svg" xmlns:xlink="http://www.w3.org/1999/xlink" contentScriptType="text/ecmascript" fill="#000000" width="798.5" zoomAndPan="magnify" contentStyleType="text/css" viewBox="-2.5 0.0 798.5 507.2" height="507.2" preserveAspectRatio="xMidYMid meet" version="1"><g id="change1_1"><path fill="#000000" d="M392.2,0c14.7,2.2,29.4,4.6,44.1,6.6c28.6,4.1,35.1,11.1,32.3,38.3c-12.2,122.2-24.6,244.5-37.1,366.7 c-0.8,8.2,0.1,16.7-2,24.5c-1.5,5.8-6.6,10.6-10.1,15.9c-4.2-5.2-11.1-9.9-12.1-15.6c-8.1-48.5-15.7-97-22.4-145.7 c-12.3-89.9-24-179.8-35.3-269.8c-0.8-6.7,2.9-13.9,4.5-20.9H392.2z M414.2,346.7l2.7-0.5c11.3-104.5,22.5-209.1,34-315.7l-82.6-9.9 C383.8,130.4,398.9,238.6,414.2,346.7L414.2,346.7z M238.1,463.5c-1.8,3.1-3.4,9.6-6.7,10.6c-4.4,1.3-11.8,0.1-14.9-3 c-7.9-8.1-15-17.1-21-26.7C122.1,328.7,59.2,207.5,3.2,82.6C-1.3,72.7-2.5,63,9.4,59.2c26.3-8.3,53-15.6,79.9-22.3 c15.9-4,23.7,4.1,28.3,19.6c38.5,131.5,77.7,262.8,116.7,394.2L238.1,463.5z M182.4,387.3l6.8-2.5 c-32.7-107.7-65.5-215.3-99.3-326.3L23.4,80.3C77.2,184.2,129.8,285.7,182.4,387.3L182.4,387.3z M796,192.6c-2.9,4.5-5.5,9.5-9,13.7 c-77.9,92.2-155.8,184.4-233.8,276.5c-5.7,6.7-10.1,14.7-16.5,20.5c-3.3,3-9.6,2.7-14.5,3.9c-0.9-4.5-3.7-9.8-2.2-13.3 c6.3-15.1,14-29.6,21-44.4C589.3,347,637.7,244.5,686,142c17-36.2,21.4-39.2,52.8-14.5c20.4,16,36.3,37.8,54.1,57.1 C794.5,186.3,794.8,189.2,796,192.6z M586.5,405.9l2.9,3.1c59.5-70.4,119.1-140.6,178.2-211.4c3-3.5,3.5-13.8,0.8-16.5 c-17.5-17.4-36.2-33.5-55.3-50.8C669.4,225.3,628,315.6,586.5,405.9z"/></g></svg>