<?xml version="1.0" encoding="UTF-8" standalone="no"?><svg xmlns="http://www.w3.org/2000/svg" xmlns:xlink="http://www.w3.org/1999/xlink" contentScriptType="text/ecmascript" fill="#f9fbfc" width="31" zoomAndPan="magnify" contentStyleType="text/css" viewBox="9.0 2.0 31.0 46.0" height="46" preserveAspectRatio="xMidYMid meet" version="1"><g id="change1_1"><path fill="inherit" d="M24,48c-3.178,0-5-2.733-5-7.5c0-4.887,2.94-9.817,3.849-11.224C20.339,14.317,17.325,9,15.5,9 c-2.413,0-2.916,2.851-3.001,4.55c-0.026,0.532-0.466,0.95-0.999,0.95H10c-0.552,0-1-0.448-1-1C9,5.869,11.49,2,16.4,2 c2.913,0,5.074,1.654,6.424,4.917c1.096,2.557,2.105,6.877,3.124,13.428l5.396-17.638C31.472,2.287,31.86,2,32.3,2H39 c0.344,0,0.664,0.177,0.847,0.468s0.203,0.656,0.055,0.966L27.36,29.503c0.023,0.09,0.05,0.188,0.078,0.295 C27.945,31.688,29,35.622,29,38.7C29,47.094,25.503,48,24,48z"/></g></svg>