<?xml version="1.0" encoding="UTF-8" standalone="no"?><svg xmlns="http://www.w3.org/2000/svg" xmlns:xlink="http://www.w3.org/1999/xlink" contentScriptType="text/ecmascript" fill="#000000" width="62" zoomAndPan="magnify" contentStyleType="text/css" viewBox="0.0 0.0 62.0 62.0" height="62" preserveAspectRatio="xMidYMid meet" version="1"><g><g><g><path fill="#969faa" d="M59,61H29c-1.105,0-2-0.895-2-2V5c0-1.105,0.895-2,2-2h30c1.105,0,2,0.895,2,2v54 C61,60.105,60.105,61,59,61z"/></g><g><path fill="#e6e9ed" d="M27.05,4.55C27.02,4.69,27,4.84,27,5v12h-6c0-1.48-0.8-2.77-2-3.46l4-6.93 C21.24,5.58,19.19,5,17,5s-4.24,0.58-6,1.61l4,6.93c-1.2,0.69-2,1.98-2,3.46H5c0,2.04,0.51,4.11,1.61,6 c1.09,1.89,2.62,3.38,4.39,4.39l4-6.93C15.59,20.8,16.27,21,17,21s1.41-0.2,2-0.54l4,6.93c1.57-0.9,2.95-2.17,4-3.77v5.87 C24.26,31.69,20.78,33,17,33C8.16,33,1,25.84,1,17S8.16,1,17,1C20.81,1,24.3,2.33,27.05,4.55z"/></g><g><path fill="#fcd770" d="M27,17v6.62c-1.05,1.6-2.43,2.87-4,3.77l-4-6.93c1.2-0.69,2-1.98,2-3.46H27z"/></g><g><path fill="#fcd770" d="M15,20.46l-4,6.93c-1.77-1.01-3.3-2.5-4.39-4.39C5.51,21.11,5,19.04,5,17h8 C13,18.48,13.8,19.77,15,20.46z"/></g><g><path fill="#fcd770" d="M23,6.61l-4,6.93C18.41,13.2,17.73,13,17,13s-1.41,0.2-2,0.54l-4-6.93C12.76,5.58,14.81,5,17,5 S21.24,5.58,23,6.61z"/></g><g><path fill="#ffc729" d="M19,13.54c1.2,0.69,2,1.98,2,3.46s-0.8,2.77-2,3.46C18.41,20.8,17.73,21,17,21s-1.41-0.2-2-0.54 c-1.2-0.69-2-1.98-2-3.46s0.8-2.77,2-3.46C15.59,13.2,16.27,13,17,13S18.41,13.2,19,13.54z"/></g><g><circle fill="#b4dd7f" r="2" cx="51" cy="55"/></g><g><circle fill="#b4dd7f" r="2" cx="43" cy="55"/></g><g><path fill="#ff826e" d="M51,37c3.31,0,6,2.69,6,6s-2.69,6-6,6s-6-2.69-6-6S47.69,37,51,37z"/></g><g><circle fill="#fc6e51" r="2" cx="51" cy="43"/></g><g><path fill="#ff826e" d="M1 39H15V57H1z"/></g><g><path fill="#f0d0b4" d="M35,49c1.1,0,2,0.9,2,2c0,0.55-0.22,1.05-0.59,1.41C36.05,52.78,35.55,53,35,53h-2 c1.1,0,2,0.9,2,2c0,0.55-0.22,1.05-0.59,1.41C34.05,56.78,33.55,57,33,57h-6H15V39l2.36-1.77c1.08-0.81,2.34-1.33,3.67-1.52 l1.54-0.22c1.5-0.22,2.98-0.55,4.43-1c0.75-0.22,1.49-0.49,2.22-0.78l1.48-0.59c0.2-0.08,0.41-0.12,0.62-0.12h0.06 c0.9,0,1.62,0.72,1.62,1.62c0,0.98-0.35,1.88-0.95,2.58c-0.59,0.7-1.43,1.2-2.39,1.36l-1.76,0.29c-0.52,0.09-0.9,0.54-0.9,1.07 c0,0.6,0.48,1.08,1.08,1.08H43c1.1,0,2,0.9,2,2c0,0.55-0.22,1.05-0.59,1.41C44.05,44.78,43.55,45,43,45h-8c1.1,0,2,0.9,2,2 c0,0.55-0.22,1.05-0.59,1.41C36.05,48.78,35.55,49,35,49z"/></g><g><path fill="#ccd1d9" d="M31 7H57V11H31z"/></g><g><path fill="#ccd1d9" d="M31 25H57V29H31z"/></g><g><path fill="#69d6f4" d="M31 11H57V25H31z"/></g></g><g><path fill="inherit" d="M59,2H29c-0.914,0-1.724,0.42-2.275,1.067C23.886,1.087,20.48,0,17,0C7.626,0,0,7.626,0,17s7.626,17,17,17 c3.187,0,6.314-0.919,9-2.594v2.335c-1.173,0.328-2.366,0.588-3.572,0.76l-1.541,0.22c-1.494,0.213-2.921,0.805-4.127,1.71 L14.667,38H0v20h26v1c0,1.654,1.346,3,3,3h30c1.654,0,3-1.346,3-3V5C62,3.346,60.654,2,59,2z M12.101,18 c0.22,1.079,0.801,2.018,1.595,2.723l-3.039,5.266c-1.294-0.914-2.383-2.105-3.183-3.49c-0.799-1.385-1.287-2.924-1.429-4.5 H12.101z M14,17c0-1.654,1.346-3,3-3s3,1.346,3,3s-1.346,3-3,3S14,18.654,14,17z M17,12c-0.552,0-1.075,0.112-1.572,0.278 l-3.042-5.266c2.875-1.328,6.351-1.329,9.226,0l-3.041,5.266C18.074,12.112,17.552,12,17,12z M21.899,18H26v5.307 c-0.733,1.05-1.617,1.954-2.655,2.683l-3.041-5.267C21.098,20.018,21.679,19.079,21.899,18z M17,32C8.729,32,2,25.271,2,17 S8.729,2,17,2c3.245,0,6.416,1.075,9,3.016V16h-4.101c-0.22-1.079-0.801-2.018-1.595-2.723l3.591-6.224l0.42-0.841L23.502,5.74 c-3.936-2.276-9.068-2.276-13.004,0L9.634,6.243l4.061,7.034c-0.794,0.705-1.375,1.644-1.595,2.723H3.999l-0.001,0.999 c-0.002,2.274,0.601,4.522,1.744,6.501c1.143,1.979,2.788,3.625,4.758,4.761l0.867,0.497l4.062-7.035 C15.926,21.889,16.448,22,17,22c0.552,0,1.075-0.112,1.572-0.278l3.535,6.119l0.475,0.949l0.919-0.529 c0.906-0.522,1.745-1.16,2.5-1.886v2.611C23.39,30.952,20.292,32,17,32z M14,56H2V40h12V56z M16,39.5l1.96-1.47 c0.938-0.704,2.048-1.164,3.209-1.33l1.541-0.22c2.355-0.336,4.669-0.955,6.878-1.838l1.484-0.593 C31.152,34.016,31.236,34,31.382,34C31.723,34,32,34.277,32,34.618c0,1.469-1.052,2.71-2.5,2.952l-1.759,0.293 C26.732,38.031,26,38.895,26,39.917C26,41.065,26.934,42,28.083,42H43c0.551,0,1,0.449,1,1s-0.449,1-1,1H28v2h7 c0.551,0,1,0.449,1,1s-0.449,1-1,1h-7v2h7c0.551,0,1,0.449,1,1s-0.449,1-1,1h-7v2h5c0.551,0,1,0.449,1,1s-0.449,1-1,1H16V39.5z M60,59c0,0.551-0.449,1-1,1H29c-0.551,0-1-0.449-1-1v-1h5c1.654,0,3-1.346,3-3c0-0.395-0.081-0.77-0.22-1.116 C37.055,53.538,38,52.383,38,51c0-0.771-0.301-1.468-0.78-2c0.48-0.532,0.78-1.229,0.78-2c0-0.352-0.072-0.686-0.184-1H43 c0.549,0,1.057-0.159,1.5-0.417C45.53,48.167,48.053,50,51,50c3.86,0,7-3.14,7-7s-3.14-7-7-7c-2.947,0-5.47,1.833-6.5,4.417 C44.057,40.159,43.549,40,43,40H28.083C28.037,40,28,39.963,28,39.917c0-0.041,0.029-0.075,0.069-0.082l1.76-0.293 C32.246,39.14,34,37.069,34,34.618C34,33.174,32.826,32,31.323,32c-0.343,0-0.678,0.064-0.994,0.191l-1.483,0.593 c-0.279,0.112-0.564,0.207-0.846,0.31V5c0-0.551,0.449-1,1-1h30c0.551,0,1,0.449,1,1V59z M46,43c0-2.757,2.243-5,5-5s5,2.243,5,5 s-2.243,5-5,5S46,45.757,46,43z"/><path fill="inherit" d="M30,30h28V6H30V30z M32,28v-2h24v2H32z M33.323,16l2.498,6.243l3.1-5.167L42,23.236L44.618,18H56v6H32v-8H33.323z M32,14 v-2h24v4H43.382L42,18.764l-2.92-5.841l-2.9,4.833L34.677,14H32z M56,8v2H32V8H56z"/><path fill="inherit" d="M0 34H2V36H0z"/><path fill="inherit" d="M4 34H6V36H4z"/><path fill="inherit" d="M8 34H10V36H8z"/><path fill="inherit" d="M50 20H54V22H50z"/><path fill="inherit" d="M46 20H48V22H46z"/><path fill="inherit" d="M51,46c1.654,0,3-1.346,3-3s-1.346-3-3-3s-3,1.346-3,3S49.346,46,51,46z M51,42c0.551,0,1,0.449,1,1s-0.449,1-1,1 s-1-0.449-1-1S50.449,42,51,42z"/><path fill="inherit" d="M43,52c-1.654,0-3,1.346-3,3s1.346,3,3,3s3-1.346,3-3S44.654,52,43,52z M43,56c-0.551,0-1-0.449-1-1s0.449-1,1-1 s1,0.449,1,1S43.551,56,43,56z"/><path fill="inherit" d="M51,52c-1.654,0-3,1.346-3,3s1.346,3,3,3s3-1.346,3-3S52.654,52,51,52z M51,56c-0.551,0-1-0.449-1-1s0.449-1,1-1 s1,0.449,1,1S51.551,56,51,56z"/><path fill="inherit" d="M36 32H40V34H36z"/><path fill="inherit" d="M42 32H46V34H42z"/><path fill="inherit" d="M48 32H58V34H48z"/></g></g></svg>