<?xml version="1.0" encoding="UTF-8" standalone="no"?><svg xmlns="http://www.w3.org/2000/svg" xmlns:xlink="http://www.w3.org/1999/xlink" contentScriptType="text/ecmascript" fill="#000000" width="501.2" zoomAndPan="magnify" contentStyleType="text/css" viewBox="-0.1 -2.1 501.2 333.4" height="333.4" preserveAspectRatio="xMidYMid meet" version="1"><g id="change1_1"><path fill="#f4a224" d="M308.82632,191.86104c-6.93353,2.34247-14.0621,4.02676-21.04395,6.20793 c-1.85855,0.58064-3.67108,1.27829-5.33975,2.29605c-2.26224,1.37991-2.72919,2.50172-1.92404,5.0321 c1.41501,4.44711,3.21701,8.74861,5.14755,12.99197c2.46585,5.41997,5.00296,10.80746,7.49445,16.21582 c0.28082,0.60968,0.89172,1.31808,0.08472,1.90414c-0.66663,0.4841-1.242-0.11729-1.70953-0.5184 c-1.76727-1.51645-3.48959-3.0851-5.2384-4.6232c-4.66324-4.10146-9.18881-8.36266-14.1015-12.17479 c-0.56201-0.43611-1.13919-0.85742-1.73849-1.23979c-2.07306-1.32259-2.59787-1.14435-3.24277,1.17313 c-0.45102,1.62073-0.85321,3.2572-1.21347,4.9006c-1.85709,8.47176-3.68628,16.94968-5.54941,25.42009 c-0.16956,0.77072-0.10635,1.96758-1.20776,1.92825c-1.20926-0.0432-1.0639-1.25824-1.16791-2.1226 c-0.94284-7.83459-1.65741-15.69225-2.38261-23.54909c-0.12463-1.3506-0.34952-2.70403-0.88383-3.96767 c-0.61288-1.44942-1.39594-1.84467-2.93472-1.44867c-1.70403,0.43854-3.26596,1.21916-4.79152,2.08954 c-6.8638,3.91591-13.40344,8.35161-20.11386,12.51324c-1.76022,1.09169-3.52103,2.18246-5.28517,3.26781 c-0.32967,0.2028-0.66539,0.40295-1.01859,0.55812c-0.30769,0.13518-0.64465,0.13521-0.89772-0.134 c-0.25165-0.26768-0.25468-0.60353-0.07066-0.89461c0.3103-0.49086,0.64508-0.96904,1.00215-1.42712 c3.70071-4.74796,7.40309-9.49464,10.89005-14.40393c1.72717-2.43153,3.36926-4.9136,4.40581-7.7394 c0.04457-0.12151,0.1002-0.23889,0.14522-0.36026c1.11299-3.00165,0.68858-3.80742-2.38564-4.48732 c-3.35469-0.74193-6.78052-1.01909-10.1705-1.53053c-5.11742-0.772-10.24513-1.47647-15.36992-2.19943 c-1.53728-0.21684-3.08052-0.39142-4.6187-0.60222c-0.51424-0.07048-1.10498-0.14864-1.13258-0.82455 c-0.02679-0.65477,0.54782-0.84267,1.04025-0.97054c2.88124-0.748,5.78059-1.42772,8.65347-2.20569 c5.18501-1.40414,10.43068-2.5872,15.55019-4.22852c0.92017-0.295,1.8269-0.66573,2.68822-1.10313 c1.85228-0.94052,3.1344-3.27502,2.35376-5.74019c-2.46535-7.78491-5.41692-15.38344-8.42612-22.96413 c-0.64471-1.62416-1.3378-3.22916-1.99815-4.84724c-0.1953-0.47862-0.36935-0.96716-0.52681-1.45959 c-0.16988-0.53136-0.1143-1.05418,0.32762-1.4243c0.48972-0.41023,0.98703-0.16911,1.42131,0.14276 c1.89273,1.35904,3.78209,2.72296,5.66046,4.1017c3.13094,2.29808,6.24536,4.61873,9.38066,6.91075 c2.04402,1.49425,4.18712,2.83414,6.56477,3.73491c1.88756,0.71509,2.62239,0.60326,4.01799-1.05827 c5.09628-6.06705,9.41513-12.67355,13.72519-19.29146c1.94296-2.9832,3.83582-5.99911,5.78912-8.97549 c0.42749-0.65135,0.80267-1.80347,1.81973-1.2971c0.90503,0.45064,0.44586,1.50929,0.26132,2.29742 c-1.01877,4.34973-1.95239,8.71725-2.66647,13.12709c-0.56876,3.51228-1.10077,7.03482-0.98779,10.61174 c0.02234,0.70793,0.06061,1.4292,0.2157,2.1163c0.4245,1.88097,1.38608,2.59592,3.51996,2.56007 c1.60641-0.20251,3.33426-0.74806,4.99786-1.47572c6.41089-2.80397,12.63699-5.97797,18.72256-9.42937 c1.2948-0.73434,2.58392-1.47922,3.88959-2.19365c0.39722-0.21741,0.86334-0.39752,1.26324-0.0146 c0.47382,0.45372,0.27359,0.98334-0.01651,1.41501c-0.35818,0.53297-0.78998,1.02251-1.22995,1.49355 c-5.56851,5.96062-11.25122,11.80972-17.09711,17.49959c-0.55521,0.54037-1.11853,1.09142-1.57013,1.7157 c-1.13992,1.57597-0.82892,2.58534,0.94421,3.30621c1.27655,0.51898,2.63986,0.67862,3.98294,0.82014 c2.24951,0.23703,4.51273,0.35905,6.77298,0.47626c5.68549,0.29485,11.36758,0.61455,16.99323,1.55766 c0.06378,0.01071,0.12979,0.01062,0.19241,0.02542c0.86298,0.20378,2.11417,0.18639,2.19193,1.22113 C310.97491,191.76457,309.61435,191.59479,308.82632,191.86104z"/></g><g id="change2_1"><path fill="#a3bcf9" d="M159.96426,259.61746c2.68935,12.59021-5.63878,24.49597-17.69527,27.06287 c-0.75551,0.16089-1.53775,0.20184-2.30952,0.27921c-1.29459,0.12991-2.22594,0.65347-2.96347,1.84702 c-3.38058,5.47055-8.36668,8.78772-14.59772,10.07474c-6.74505,1.39304-12.97894,0.0213-18.55388-4.11819 c-1.40363-1.04224-2.70491-2.18872-3.80833-3.52899c-0.7536,0.16864-0.71101,0.75891-0.80847,1.23117 c-1.44726,7.01239-5.29015,12.35983-11.5378,15.76328c-6.52086,3.55234-13.35934,3.82422-20.2026,0.85852 c-6.57972-2.8515-10.78908-7.86459-12.85477-14.69547c-0.95056-3.14328-1.14458-6.35297-0.65202-9.60168 c0.02908-0.19193,0.06953-0.38211,0.09851-0.5741c0.33184-2.19464,0.32653-2.1532-1.90881-2.41953 c-10.8348-1.29095-19.19942-9.80331-20.21432-20.40192c-0.51135-5.3399,0.52186-10.27687,3.44471-14.80453 c0.90852-1.4073,0.84143-1.56639-0.80985-2.14101c-5.32525-1.85306-9.5532-5.05548-12.51126-9.91368 c-5.363-8.80789-4.03291-20.43779,2.84714-27.49234c3.30103-3.3847,7.04938-5.93112,11.73516-6.78024 c7.28786-1.32062,13.96238-0.0966,19.84617,4.78326c9.01951,7.48058,10.45903,20.60799,4.81091,29.53416 c-0.10377,0.16397-0.20483,0.33054-0.29433,0.50255c-0.66179,1.27182-0.62531,1.49376,0.7527,1.95668 c3.05107,1.02495,5.78529,2.57314,8.19283,4.70387c4.19181,3.71001,6.5929,8.36929,7.4986,13.87448 c0.42764,2.5994,0.20768,5.14764-0.1557,7.71414c-0.21048,1.48663-0.13474,1.64639,1.23346,1.79849 c6.03645,0.67099,11.15435,3.15128,15.28854,7.62442c0.17031,0.18427,0.39701,0.31635,0.68854,0.54388 c0.5942-0.58115,0.60914-1.19,0.71974-1.74261c0.79609-3.97821,2.64875-7.40482,5.36157-10.39066 c0.08703-0.09579,0.18198-0.1846,0.26625-0.28268c1.04356-1.21399,1.05039-1.56039-0.17804-2.49637 c-0.93211-0.71017-1.78028-1.49988-2.60341-2.32471c-8.00127-8.01747-8.91888-20.80064-2.14072-29.84396 c0.54076-0.72145,1.09194-1.43504,1.67462-2.20001c-0.42817-0.69408-1.1601-0.58061-1.73466-0.68773 c-3.83051-0.71419-7.27674-2.24464-10.33891-4.65976c-4.69225-3.70073-7.48309-8.54152-8.39111-14.40126 c-0.93956-6.06363,0.25041-11.71982,3.85959-16.76117c6.55871-9.16151,17.44254-11.93707,27.02823-8.25539 c7.63589,2.93274,12.26934,8.59932,14.19817,16.5027c0.24372,0.99879,0.25401,2.05222,0.43385,3.06947 c0.26597,1.50435,0.45647,1.62277,1.92598,1.16502c2.60957-0.81299,5.24529-1.33301,8.00629-1.30963 c10.46326,0.08859,19.98785,7.69708,22.03192,17.96579c1.90778,9.58408-1.13731,17.45694-8.81377,23.53008 c-0.64595,0.51109-1.44281,0.84459-1.95387,1.51015c0.2175,0.68073,0.81023,0.68353,1.26477,0.85387 C153.17511,245.55019,158.17981,251.26328,159.96426,259.61746z M487.21762,185.60158 c-0.42798-0.22627-1.10922-0.32581-1.02859-0.98926c0.05911-0.48669,0.63437-0.58884,1.01843-0.81146 c0.11185-0.06488,0.23041-0.11829,0.34595-0.1768c7.34781-3.72665,13.55222-12.36879,12.28015-22.99667 c-0.48148-4.02339-1.77402-7.68692-4.1828-10.92419c-5.49652-7.38705-12.96802-10.15555-21.96515-9.22273 c-2.6665,0.2765-2.71469,0.31425-2.6409-2.41475c0.08899-3.28767-0.44635-6.43658-1.70401-9.47926 c-3.85263-9.32161-13.52283-15.16641-23.45264-14.14761c-10.48383,1.07558-18.67966,8.83607-20.44031,19.35444 c-2.28177,13.63142,8.45264,26.3884,22.25073,26.45915c1.75385,0.00902,3.48416-0.10851,5.2135-0.43034 c1.14325-0.2128,1.38483,0.05673,1.34158,1.22664c-0.03091,0.83727-0.24738,1.67746-0.20032,2.50613 c0.19614,3.45401,0.94073,6.78094,2.41891,9.93413c0.67648,1.4429,0.5564,1.60945-0.95877,1.93361 c-2.02603,0.43343-4.0574,0.84172-5.948,1.74458c-5.02695,2.4006-8.78351,6.09985-11.32916,11.04337 c-0.80496,1.56317-0.7977,1.54942-2.48419,0.8403c-3.12833-1.31541-6.31659-2.36273-9.4848-2.03131 c-4.95334-0.27921-9.89154,1.26358-13.63782,3.94164c-6.49548,4.6434-9.7229,11.05447-9.82288,18.87601 c-0.06662,5.20815,1.60751,10.03348,4.93674,14.22121c6.66718,8.38646,18.12729,11.03822,27.6626,6.60226 c5.05753-2.35283,8.77328-6.10606,11.20117-11.13661c0.70123-1.45305,0.81207-1.52776,2.1824-0.82504 c2.81622,1.4442,5.82654,2.16756,8.94019,2.41676c1.40237,0.11226,2.41257,0.6577,3.36365,1.63559 c2.63736,2.7117,5.87677,4.51318,9.5007,5.42409c8.7135,2.19032,16.44833,0.35144,22.78998-6.1983 c5.3692-5.54555,7.35892-12.26474,6.05994-19.81992C498.15485,194.66035,493.95044,189.16144,487.21762,185.60158z M365.51578,71.40376c2.44824,13.1601,15.30093,21.30834,28.27658,18.09039c9.99307-2.47826,18.49869-12.53346,17.08444-24.72478 c-0.55655-4.79749-2.35226-8.96758-5.43097-12.63177c-1.159-1.37939-1.20648-1.39997-0.30899-2.83618 c2.63382-4.21472,3.64282-8.82767,3.30844-13.73192c-0.39017-5.72282-2.66464-10.68469-6.75281-14.65967 c-4.44583-4.32266-9.8121-6.64659-15.37003-6.43706c-2.31155,0.0701-3.85446,0.01911-5.40002,0.32919 c-4.94852,0.99268-8.99976,3.47634-12.37747,7.16932c-4.8103,5.25928-6.58038,11.47657-5.72867,18.4595 c0.55518,4.55187,2.52292,8.51954,5.42749,12.0527c1.12234,1.36516,1.06638,1.40509,0.18387,2.87626 C365.43961,60.34098,364.46036,65.7304,365.51578,71.40376z M411.22849,171.01443 c0.11392-12.70734-10.61761-23.37651-22.88062-22.86369c-12.05676-0.7195-23.17181,10.24974-23.03622,22.74925 c0.13712,12.63879,9.72754,22.99173,22.91019,23.01051C401.53806,193.92947,411.11661,183.49202,411.22849,171.01443z"/></g><g id="change3_1"><path fill="#d75443" d="M131.51819,296.75317c2.56082,8.97101-1.1286,19.18097-8.93035,24.71378 c-9.06162,6.42621-21.18978,5.63556-29.343-1.91928c-2.01912-1.87091-3.51352-4.13538-4.83221-6.52734 c-0.1823-0.33066-0.36276-0.66226-0.71068-1.2977c-1.87115,7.57629-5.87592,13.21664-12.68555,16.57034 c-4.99014,2.45767-10.24766,3.05258-15.68242,1.69482c-4.45237-1.11234-8.24485-3.33957-11.39511-6.68445 c-3.10923-3.30133-4.95992-7.21323-5.87067-11.62833c-0.92815-4.49942-0.09334-8.83368,1.34768-13.3064 c-2.1296,0.26288-3.89196,0.91855-5.75244,1.08649c-6.7506,0.60931-12.71143-1.26685-17.73108-5.77643 c-7.32421-6.5798-9.62794-16.27704-6.24586-25.52618c0.15558-0.42548,0.3224-0.84708,0.49397-1.26642 c0.23708-0.5795,0.06052-1.00824-0.46843-1.30453c-0.33862-0.1897-0.69081-0.35507-1.03109-0.54199 c-8.33297-4.57681-12.58568-11.53387-12.68005-21.12566c-0.08734-8.87653,6.27259-18.71629,16.22589-21.64986 c0.24839-0.07321,0.49354-0.15955,0.74499-0.21973c1.5829-0.37907,1.79012-0.2843,1.97758,1.35977 c0.30116,2.64139,0.62449,5.26244,1.65569,7.75156c2.66032,6.42134,7.32417,10.70172,13.82193,13.04651 c0.36461,0.13161,0.74383,0.22246,1.11525,0.33559c0.70117,0.21359,0.97881,0.60338,0.53378,1.2923 c-0.17564,0.27182-0.35804,0.54007-0.5192,0.82037c-4.99241,8.68291-4.93289,17.30443,0.7471,25.58989 c3.64695,5.31989,8.86751,8.40436,15.34031,9.21149c0.25693,0.03207,0.51517,0.05518,0.77098,0.09409 c2.15476,0.328,2.19009,0.37173,1.85792,2.603c-1.08312,7.27518,0.64855,13.77109,5.56333,19.27942 c3.47918,3.89938,7.90898,6.23059,13.06373,7.0802c7.30852,1.20447,13.71546-0.84726,19.23724-5.67273 c2.09055-1.82697,3.76094-4.03006,4.85806-6.58371c-0.64135-0.51569-1.04499-0.15115-1.43963-0.01093 c-13.84621,4.91986-29.03526-4.05212-30.84366-19.44614c-0.47009-4.00125,0.22271-7.8862,1.8195-11.57614 c0.80421-1.85837,1.16787-1.97162-0.98324-3.35016c-7.33626-4.70132-11.06894-11.48676-11.00833-20.17648 c0.04183-5.99977,2.26811-11.2653,6.50749-15.55006c1.09284-1.10458,1.43037-2.13084,1.11504-3.60373 c-0.60748-2.83749-0.32312-5.68301,0.36784-8.46555c0.35399-1.42554,0.13431-2.64297-0.53131-3.90683 c-4.65734-8.84366-14.22994-13.62209-24.05513-11.9726c-0.31918,0.05359-0.63978,0.09903-0.96033,0.1438 c-1.71991,0.24016-1.96989,0.01559-1.83321-1.64342c0.84708-10.28133,8.5885-18.91727,18.8327-20.74719 c13.09171-2.33855,23.91859,6.08282,26.64256,16.92659c0.8384,3.33748,0.85282,3.44574,4.42453,3.31599 c9.15658-0.33257,19.29951,6.11873,22.23486,16.7256c0.17245,0.62317,0.31738,1.25565,0.43793,1.89087 c0.13849,0.73015-0.13103,1.26521-0.84656,1.5415c-0.36214,0.13985-0.72685,0.27376-1.08454,0.42441 c-3.97279,1.67358-7.23017,4.26788-9.79739,7.71577c-1.3562,1.82147-1.32973,1.85414,0.02585,3.62997 c3.39452,4.44705,4.94437,9.48441,4.77496,15.0517c-0.09173,3.01292-0.8653,5.87714-2.08965,8.62679 c-0.76926,1.72762-0.75417,1.72974,0.8539,2.73897c7.73488,4.85434,11.54832,11.89325,11.3017,20.97729 c-0.15091,5.55969-2.29481,10.44098-6.07686,14.56204c-0.21877,0.2384-0.45904,0.45703-0.67729,0.69586 c-0.97717,1.0697-0.99107,1.19879,0.20721,2.09637c2.79705,2.09497,5.9416,3.39886,9.38408,3.98288 c5.65249,0.95895,10.93657-0.04071,15.86865-2.96561C130.88742,295.10068,131.07779,295.21042,131.51819,296.75317z M471.07318,219.92958c-1.16974-1.56372-1.25015-1.59869-3.04041-0.87389c-6.47556,2.6217-12.86823,2.48975-19.17972-0.54985 c-0.23328-0.11234-0.46713-0.22359-0.70355-0.32907c-0.55884-0.24922-1.00763-0.14757-1.29907,0.42337 c-0.17651,0.34584-0.3418,0.69748-0.5213,1.04172c-4.50055,8.62901-11.61731,12.96645-21.34927,12.84126 c-9.94583-0.12788-18.7706-7.23314-21.22681-16.88657c-0.34613-1.36023-0.17697-2.47086,0.56189-3.6678 c2.33133-3.77682,3.47275-7.91164,3.44058-12.36571c-0.00446-0.6136-0.24106-1.28146,0.2186-1.86481 c0.72552,0.03984,0.87857,0.70802,1.24945,1.10674c4.29266,4.61514,9.56543,7.31815,15.85568,7.66502 c12.17688,0.67151,22.20215-7.43382,24.3295-19.44473c0.29657-1.67429,0.30292-3.34776,0.27765-5.02974 c-0.01282-0.85329,0.23459-1.39793,1.22516-1.25803c1.23752,0.17487,2.45108-0.09026,3.67172-0.21768 c12.26385-1.27989,21.48578-12.33459,20.46762-24.91685c-0.99841-12.33708-11.91821-21.57181-23.39883-21.14468 c-7.96774,0.29642-14.13425,3.64551-18.75488,10.04178c-1.29706,1.79552-2.17297,3.806-3.00259,6.0134 c-0.90768-0.45093-1.14752-1.15311-1.49121-1.75742c-3.13104-5.50456-3.76822-11.33894-2.26709-17.44649 c0.57974-2.3586,0.58282-2.38496-1.42648-3.81182c-4.20062-2.98311-8.84503-4.36478-14.03021-4.29776 c-12.29611,0.15887-22.51273,10.33526-22.51974,22.5971c-0.00125,2.17577,0.05936,2.24265,2.23062,2.46489 c9.21378,0.94283,17.01358,7.24178,19.59457,15.72177c0.50357,1.65446,0.44238,3.03712-0.88315,4.24014 c-0.19046,0.17287-0.35403,0.3786-0.51346,0.58211c-3.92819,5.01508-5.73788,10.68555-5.02872,17.03923 c0.15985,1.43236-0.21042,2.28062-1.30408,3.125c-9.95895,7.68954-24.32028,5.83405-32.06122-4.18091 c-1.42148-1.83904-1.61368-1.88898-3.11545-0.03442c-5.77151,7.1274-7.37415,15.10258-3.94934,23.64821 c3.41135,8.51215,9.93695,13.31772,19.09271,14.49184c1.59097,0.20399,3.17786,0.20695,5.06461,0.12215 c-3.06073,6.30615-3.58929,12.60942-1.28552,19.01221c2.34805,6.52576,6.86252,11.05069,13.27954,13.59537 c5.31027,2.10576,10.73132,2.23436,16.129,0.27557c7.28308-2.64296,12.01471-7.81641,14.49808-15.07446 c0.2312,0.09692,0.32181,0.1055,0.34329,0.1485c0.172,0.34509,0.3443,0.69121,0.49194,1.0472 c1.33481,3.21872,3.27203,6.00972,5.84622,8.36763c4.56961,4.18561,10.04153,6.23705,16.13391,6.08305 c6.7681-0.17111,12.49225-2.93964,17.03766-8.08789C476.57422,240.66756,477.19202,228.10928,471.07318,219.92958z M380.77216,55.50389c0.07892-5.44566-1.78183-10.43755-5.32761-14.66645c-1.25226-1.49345-0.98819-1.56596,0.0679-2.87682 c4.50598-5.59297,6.3078-11.93532,5.01096-19.06362c-2.1676-11.91559-13.57825-20.98495-27.10742-18.478 c-17.23651,3.19387-24.68015,23.94529-13.47562,37.43206c1.27005,1.52878,0.99252,1.54477,0.04651,2.70111 c-3.55847,4.34983-5.61041,9.26978-5.45102,14.98516c0.06067,1.28933,0.00208,2.58207,0.2319,3.86822 c2.60941,14.60266,17.44962,23.04727,31.26117,17.66255C374.80353,73.64716,380.62396,65.73608,380.77216,55.50389z M131.88693,72.04429c-14.60504-0.00028-23.269,12.45426-23.16068,23.26757c0.12482,12.46882,10.43224,23.11566,23.21996,23.01621 c11.1257,0.0415,23.06107-8.55815,23.06003-23.17775C155.00529,81.44938,144.13896,72.04458,131.88693,72.04429z"/></g><g id="change4_1"><path fill="#122026" d="M142.54971,276.16263c-0.24008,0.85916,0.21768,1.87195-0.00461,2.84134 c-0.06734,0.29364,0.01248,0.63638-0.15224,0.92865c-0.51833,0.91943-0.94012,1.84134-0.51093,2.94186 c0.07181,0.18411-0.06834,0.53317-0.22227,0.70718c-0.42546,0.48117-0.42514,1.0434-0.48186,1.62698 c-0.08585,0.88412-0.80899,1.51993-1.6575,1.55582c-0.53273,0.02252-1.06381-0.45084-1.37958-1.18423 c-0.51021-1.18494-0.33871-2.32193,0.49239-3.22958c0.47208-0.51559,0.58476-0.98868,0.42769-1.56113 c-0.17999-0.65594-0.06616-1.25171,0.07849-1.89359c0.16679-0.74008,0.31975-1.48367,0.14099-2.29034 c-0.19838-0.89542-0.53716-1.82098,0.13687-2.75912c0.23595-0.32837,0.19379-1.0007-0.24709-1.43021 c-0.17885-0.17422-0.39781-0.40408-0.41896-0.62579c-0.07242-0.75842,0.06763-1.56058-0.12724-2.27698 c-0.17937-0.65948-0.72379-1.20065-0.60085-1.98746c0.10855-0.69485-0.14783-1.35654-0.78069-1.63739 c-0.92311-0.40964-1.09204-1.2677-1.32751-2.03006c-0.21132-0.68427-0.58571-1.28708-0.79457-1.93793 c-0.37581-1.17105-1.35278-1.54614-2.27095-1.94135c-0.67564-0.29077-1.38907,0.11551-1.93372,0.55988 c-1.63786,1.33633-3.37366,2.49188-5.41104,3.1192c-0.54327,0.16724-0.82327,0.6022-1.18996,0.95575 c-0.23571,0.22723-0.57632,0.59467-0.80236,0.44751c-1.04793-0.68201-1.80694,0.40497-2.71487,0.35605 c-0.93344-0.05032-1.69524,0.58749-2.63376,0.53931c-0.32985-0.01691-0.66672,0.36191-1.02142,0.50925 c-0.50058,0.20795-1.05869,0.22971-1.49544-0.07373c-0.59781-0.41534-1.11267-0.11591-1.65504,0.03403 c-0.5086,0.14062-0.98955,0.24313-1.49278-0.06216c-0.26895-0.16318-0.62285-0.17993-0.90983-0.32089 c-0.8826-0.4335-1.77283-0.75513-2.78676-0.56699c-0.52107,0.09668-0.879-0.19308-1.04257-0.66861 c-0.22191-0.6452,0.01731-1.53714,0.51572-1.70441c0.95848-0.32159,1.88173-0.8071,2.98538-0.29889 c0.59358,0.27338,1.28387,0.31659,2.03728,0.1796c1.02327-0.18613,2.12972-0.04858,3.17936,0.09973 c0.53212,0.0752,1.06548,0.17825,1.50806-0.06247c0.99026-0.53845,2.14347-0.42621,3.14104-0.89084 c0.37357-0.17401,0.75744-0.01746,1.13708-0.01453c1.13842,0.00888,2.202-0.29709,2.87688-1.28571 c0.36973-0.5416,0.76778-0.85077,1.42336-0.77991c0.58733,0.06351,0.9165-0.332,1.32916-0.6572 c1.16351-0.91678,1.81994-2.37604,3.24372-3.00354c0.29559-1.23387,1.82623-1.52493,2.11487-2.81731 c0.09998-0.44748,0.55241-0.93451,0.97414-1.16545c0.72623-0.39764,1.0318-1.03001,1.10104-1.72231 c0.08272-0.82733,0.82341-1.41516,0.8327-2.10948c0.01158-0.86804,0.37012-1.46233,0.78377-2.10921 c0.58406-0.91333,0.64211-1.94852,0.48584-2.95953c-0.14371-0.92995-0.13934-1.81818,0.2672-2.65157 c0.26132-0.53578,0.26776-0.97046-0.10301-1.42609c-0.30589-0.3759-0.39037-0.80537-0.27469-1.27711 c0.04533-0.18488,0.17348-0.44408,0.0975-0.54933c-0.73145-1.01338-0.1077-2.23625-0.55621-3.32942 c-0.23053-0.56187-0.18155-1.24005-0.67876-1.73604c-0.65961-0.65804-0.25302-1.64653-0.68645-2.37735 c-0.40967-0.69073-1.42175-0.96262-1.34387-2.00974c0.02959-0.3988-0.22072-0.79323-0.57097-0.96199 c-0.86836-0.41841-1.31009-1.21526-1.87347-1.91426c-0.44182-0.54808-0.81126-1.18303-1.53679-1.43753 c-0.11592-0.04065-0.26047-0.12906-0.30231-0.23183c-0.46135-1.13416-1.53627-1.40811-2.51126-1.83154 c-0.23267-0.10107-0.56399-0.22099-0.6339-0.41148c-0.49731-1.35527-1.83074-1.23643-2.8486-1.62088 c-0.54279-0.20502-1.2346-0.25735-1.56013-0.70193c-0.89275-1.21939-2.32663-0.92126-3.47459-1.397 c-0.15697-0.06506-0.43893-0.06035-0.55256,0.03874c-0.79762,0.69569-1.74448,0.30049-2.39526,0.01753 c-1.22697-0.53349-2.42775-0.03809-3.6098-0.2802c-0.84138,0.55754-1.8775,0.17407-2.79131,0.64374 c-0.81232,0.41747-1.87315-0.06963-2.78349,0.42389c-0.32767,0.17761-0.74023-0.14386-0.93064-0.52568 c-0.6255-1.25424,0.4359-2.88513,1.85626-2.85564c0.12743,0.00261,0.2533,0.06436,0.38116,0.07001 c1.18447,0.05251,1.35094-0.10704,1.15644-1.30095c-0.06512-0.39986-0.10823-0.74739,0.09167-1.11247 c0.80145-1.46353,1.60224-2.92758,2.38193-4.40266c0.15936-0.30154,0.39193-0.4938,0.6405-0.70267 c0.29352-0.24672,0.67577-0.50377,0.78528-0.83405c0.55982-1.68871,1.98408-2.82574,2.72051-4.39114 c0.19705-0.41901,0.38586-0.87648,0.90939-0.9037c0.7859-0.04088,1.31432-0.47037,1.78346-1.0228 c0.80853-0.95212,2.08173-1.2446,2.95996-2.12933c0.48773-0.49133,1.49345,0.04633,1.35962,0.72562 c-0.21977,1.1156,0.10088,2.55432-1.52442,3.02c-0.3298,0.09453-0.56622,0.51286-0.84727,0.78035 c-0.32777,0.31187-0.60767,0.72368-0.99571,0.91277c-0.94914,0.46249-1.70702,1.02716-1.97877,2.1228 c-0.06962,0.28076-0.36229,0.68047-0.59956,0.71664c-1.3663,0.20816-1.62331,1.42142-2.03933,2.34869 c-0.29381,0.65477-0.64883,1.2162-1.04622,1.79233c-0.54047,0.78368-1.12315,1.5755-0.87625,2.64658 c0.05189,0.22517-0.07351,0.4912-0.11449,0.72305c1.29645,0.79477,2.59967,0.86244,3.9287,0.32748 c0.52225-0.21025,0.98902-0.24245,1.47386,0.058c0.62195,0.38548,1.27808,0.59691,2.02969,0.44771 c0.46331-0.09201,0.84116,0.14322,1.26069,0.3499c1.54951,0.76328,2.99382,1.82814,4.82703,1.8611 c0.82516,0.65884,1.95686,0.74786,2.67309,1.7054c0.71959,0.96214,1.67683,1.78847,2.65421,2.50487 c1.13063,0.82877,2.03363,1.9016,3.21136,2.69041c0.95441,0.63919,1.64682,1.69441,1.9135,2.83759 c0.21977,0.942,0.64395,1.68088,1.34117,2.27806c0.47482,0.40668,0.59482,0.9507,0.83617,1.47676 c0.73274,1.59688,0.89536,3.34418,1.45242,4.98123c0.19853,0.58334-0.01199,1.1559-0.01674,1.73257 c-0.02347,2.83963-0.08536,5.67896-0.13654,8.51831c-0.013,0.71863-0.36623,1.33487-0.56863,1.98845 c-0.43742,1.41223-1.44855,2.50972-1.80101,3.98256c-0.30695,1.28247-1.07957,2.48035-1.97156,3.52968 c-0.5004,0.58862-0.98082,1.19424-1.58769,1.93573c1.07526,0.52335,1.57973,1.54871,2.62561,1.82715 c0.15063,0.0401,0.33876,0.26181,0.35916,0.41904c0.20711,1.59476,1.71678,2.30478,2.40897,3.57025 c0.18373,0.33588,0.54213,0.64624,0.50533,1.01593c-0.09438,0.94736,0.48393,1.71048,0.60004,2.5914 c0.03262,0.24756,0.03656,0.61359,0.18999,0.71155c0.88583,0.56509,0.71049,1.44409,0.75241,2.26328 c0.01941,0.37909-0.1288,0.82553,0.22751,1.0918c0.62152,0.46448,0.70561,1.29327,0.57025,1.75458 C142.18419,273.82269,142.89122,274.9404,142.54971,276.16263z M450.29538,175.94641 c0.02029-0.11325-0.04495-0.25681-0.10529-0.36736c-0.90228-1.65503-0.85547-3.75075-2.38834-5.11804 c-0.26535-0.23666-0.15479-0.61351-0.12531-0.92577c0.05606-0.59187-0.16196-1.02563-0.70862-1.23621 c-0.59662-0.22978-0.95193-0.61057-1.07596-1.24892c-0.04529-0.23349-0.20395-0.47815-0.37869-0.6478 c-0.9649-0.93648-2.15222-1.71764-2.87622-2.80887c-0.82275-1.24005-2.46423-1.38603-3.12573-2.71713 c-0.06482-0.13057-0.33615-0.22011-0.51337-0.2229c-0.95206-0.01527-1.74789-0.29619-2.36322-1.08199 c-0.1741-0.22234-0.56265-0.36382-0.86328-0.38354c-0.87909-0.05766-1.59216-0.53705-2.29306-0.94273 c-0.60046-0.34744-1.11398-0.61682-1.80249-0.36157c-0.56677,0.02533-1.16592,0.13118-1.67026-0.25127 c-0.43323-0.32857-0.05112-0.89578-0.29535-1.2639c-0.35718-0.53844-0.14261-0.97774,0.12796-1.4337 c0.47595-0.80193,0.34918-1.73419,0.53271-2.59877c0.08685-0.40918-0.06967-0.90408-0.22046-1.32248 c-0.31345-0.86964-1.28308-1.03317-1.80609-0.29309c-0.3338,0.47232-0.60663,0.96214-1.09985,1.31319 c-0.31653,0.22522-0.40085,0.64613-0.48016,1.03285c-0.16241,0.79192,0.08569,1.67068-0.60602,2.3586 c-0.23053,0.22926-0.00842,0.61758,0.20908,0.87151c0.28754,0.33572,0.37234,0.64955,0.02927,1.01122 c-0.37643,0.39677-0.79147,0.78539-1.33035,0.39597c-0.83231-0.60141-1.52838-0.31372-2.3266,0.08949 c-0.86899,0.43903-1.746,1.19684-2.83347,0.41882c-0.11615-0.08305-0.40656-0.03268-0.55414,0.05743 c-0.65439,0.39932-1.40433,0.59084-2.01636,1.11153c-0.72479,0.61658-1.5321,1.39528-2.39481,1.53294 c-1.487,0.23743-2.23248,1.07108-2.81558,2.27072c-0.11691,0.24055-0.3504,0.30623-0.60986,0.39104 c-1.37726,0.45021-1.54755,0.82787-1.11801,2.2683c0.34738,1.16489,0.91507,1.39006,1.78235,0.62791 c1.41309-1.24174,2.94434-2.29761,4.61023-3.1655c0.22491-0.11714,0.54303-0.22575,0.62463-0.41968 c0.51141-1.21515,1.63583-1.30313,2.68671-1.61244c0.67401-0.19833,1.39139-0.4516,2.03381-0.53307 c1.02469-0.13005,2.03754-0.40578,3.14008-0.30496c1.46149,0.13365,2.92563,0.08922,4.35431,0.54797 c0.32605,0.10471,0.75198-0.11392,1.13416-0.16827c0.44693-0.06351,1.06821-0.17509,1.28662,0.13658 c0.60938,0.86952,1.60797,0.95697,2.40048,1.08862c1.19824,0.19905,2.1402,0.81706,3.147,1.32434 c0.90564,0.45628,1.84909,0.9617,2.25354,2.02353c0.12222,0.32092,0.39526,0.50362,0.70145,0.62782 c1.59271,0.64604,2.87326,1.61354,3.46069,3.31215c0.03973,0.11482,0.17679,0.1925,0.23636,0.30457 c0.72229,1.35863,1.55469,2.68713,1.88971,4.19675c0.24969,1.12518,0.3288,2.27054,1.31705,3.0587 c0.29709,0.23695,0.31586,0.56888,0.18356,0.87654c-0.19409,0.45111-0.06708,0.88786-0.0195,1.32935 c0.06226,0.57761,0.36844,0.96072,0.95709,1.0596c0.50824,0.08537,1.02075,0.18871,1.53262,0.19611 c0.52921,0.00769,0.98657-0.58154,0.80682-1.07477C450.52341,178.19522,450.08139,177.13861,450.29538,175.94641z M484.46765,200.42023c0.72003-0.82185,0.63788-1.83862,0.44553-2.75101c-0.12-0.56917-0.11118-1.08815-0.15356-1.63573 c-0.07541-0.97214,0.02551-1.90643,0.10947-2.85629c0.03357-0.37856,0.09723-0.74728-0.1918-1.10052 c-0.87985-1.07576-0.71347-2.39828-0.75369-3.65096c-0.01868-0.58487-0.00626-1.15492-0.19095-1.71935 c-0.27631-0.84499-0.41867-1.69966-1.1738-2.37083c-0.42361-0.37651-0.35797-1.26486-0.74469-1.72954 c-0.82303-0.98856-1.42096-2.08287-1.99615-3.2146c-0.22537-0.44366-0.53885-0.90973-1.05551-1.09843 c-1.12494-0.411-1.53424-1.70648-2.65283-2.11615c-0.91544-1.28961-2.14709-2.10274-3.71329-2.32114 c-0.60458-0.08427-1.12817-0.21237-1.53793-0.6891c-0.18488-0.21512-0.47882-0.25363-0.71851-0.16704 c-0.66187,0.23912-1.33942,0.46753-1.94846,0.8107c-0.52643,0.29662-0.48792,1.14587,0.0329,1.48412 c0.48264,0.31343,0.98212,0.64253,1.52182,0.81909c1.62067,0.53027,3.29709,0.93117,4.27737,2.53778 c0.05463,0.08954,0.28693,0.07217,0.3392,0.16153c0.49844,0.85121,1.56061,1.08104,2.08246,1.88007 c0.457,0.69997,1.07394,1.3203,1.44501,2.02065c0.43546,0.82199,1.18213,1.40775,1.53964,2.1595 c0.5762,1.21141,1.87827,2.25484,1.30212,3.87914c-0.05444,0.15343-0.00494,0.44452,0.10767,0.53947 c0.59918,0.50508,0.27725,1.18138,0.41174,1.76558c0.2413,1.04736,0.05746,2.21851,0.82901,3.13345 c0.10529,0.12482,0.17661,0.43253,0.1011,0.53117c-0.66272,0.866-0.4274,1.65697,0.10187,2.46976 c0.08081,0.12425,0.01273,0.38971-0.05765,0.56049c-0.26501,0.64249-0.15613,1.42279-0.76831,1.94371 c-0.30637,0.2607-0.45776,0.67896-0.34128,1.06302c0.32581,1.07457-0.48071,1.96173-0.43558,2.98026 c-0.81885,1.13803-0.99954,2.52023-1.3576,3.81415c-0.23544,0.85069-0.55225,1.65541-1.16641,2.18062 c-0.82169,0.70276-1.17618,1.48093-1.02289,2.42618c-0.36917,0.37025-0.733,0.49765-1.11053,0.60274 c-0.96881,0.26958-1.8204,0.67241-2.09698,1.77271c-0.06601,0.26236-0.27792,0.47453-0.55261,0.4771 c-0.9567,0.00887-1.40399,0.86552-2.0802,1.30171c-1.36597,0.88109-1.53699,2.0007-0.79364,3.11934 c0.4238,0.63745,1.14905,0.76894,1.59674,0.13225c0.51715-0.7354,1.24768-1.09067,1.948-1.54349 c1.33429-0.86282,2.23862-2.31009,3.83163-2.83243c0.09848-0.03226,0.13992-0.21223,0.22928-0.30215 c1.45938-1.46732,2.30774-3.37347,3.57327-4.98042c0.11041-0.14009,0.15594-0.35849,0.16788-0.54454 c0.1015-1.59305,0.97479-2.8848,1.58633-4.29013c0.51105-1.17418,1.49753-2.3105,0.80148-3.77284 C484.07764,200.97061,484.24561,200.67357,484.46765,200.42023z M77.13108,222.68506 c0.84442-0.0981,1.72944-0.36383,2.65862-0.05208c2.02287,0.67873,4.37293,0.15004,6.18665,1.70056 c0.30438,0.26018,0.8734,0.18536,1.28824,0.34709c0.82687,0.32239,1.72854,0.52376,2.15845,1.48396 c0.18188,0.40631,0.61948,0.62994,1.10522,0.69714c1.34576,0.18622,2.50272,0.79674,3.5545,1.6313 c0.10021,0.07953,0.20312,0.16431,0.31879,0.21429c0.49447,0.21384,1.12543-0.00923,1.2788-0.52136 c0.16419-0.54837,0.28143-1.12553,0.3077-1.6953c0.01764-0.38268-0.20455-0.86102-0.61801-0.87781 c-1.17451-0.04759-1.78759-0.95068-2.58781-1.56334c-0.2597-0.19881-0.4699-0.47777-0.82882-0.37936 c-0.97011,0.26599-1.62036-0.34073-2.21305-0.89207c-0.83323-0.77524-1.92175-1.02229-2.90044-1.23901 c-0.79221-0.17543-1.45351-0.29767-1.9946-0.91696c-0.42751-0.48923-0.924-0.74522-1.63919-0.84995 c-0.86179-0.12617-1.76236-0.20016-2.57339-0.39514c-1.20155-0.28879-2.37064-0.26575-3.56355-0.28082 c-0.38249-0.03653-0.77504-0.03128-1.14482-0.12048c-0.42689-0.10297-0.77784-0.01151-1.05832,0.2883 c-0.54753,0.58507-1.27306,0.54102-1.96928,0.59851c-1.4345,0.11853-2.98183-0.18665-4.08994,1.12907 c-0.06867,0.08156-0.26995,0.15483-0.3429,0.11371c-0.93425-0.52672-1.37436,0.42517-2.0519,0.65778 c-1.27586,0.438-2.20247,1.47586-3.52092,1.89537c-1.00197,0.31882-0.93117,1.68962,0.00043,2.29675 c0.72372,0.47163,1.41297,0.93652,2.21495,0.08c0.18382-0.19637,0.60606-0.16049,0.91162-0.2542 c0.36765-0.11276,0.751-0.19905,1.02507-0.50905c1.25941-1.42438,3.06772-1.75273,4.73503-2.35611 C73.52778,222.28275,75.34287,222.89275,77.13108,222.68506z M97.21161,260.34418c1.46376-1.17917,1.33988-2.81366,1.19291-4.43304 c-0.03946-0.43471-0.38799-0.65239-0.78177-0.76451c-0.34801-0.09904-0.64775,0.03908-0.8671,0.29305 c-0.66681,0.77206-1.31114,1.56348-1.9707,2.34183c-1.10844,1.30807-2.21471,2.61807-3.33714,3.91403 c-0.38239,0.44156-0.8282,0.9617-1.38773,1.00525c-1.03323,0.08047-1.69525,0.88416-2.62608,1.13901 c-0.33881,0.09277-0.59245,0.62711-0.90812,0.65079c-1.2087,0.09061-2.20375,1.12604-3.51262,0.74768 c-0.29048-0.08395-0.67146-0.07068-0.94714,0.04697c-1.34278,0.57303-2.74783,0.46945-4.15302,0.59598 c-1.78493,0.16077-3.49085,0.0199-5.14143-0.49771c-1.15962-0.36365-2.57083-0.0481-3.47506-1.22736 c-0.24975-0.32568-0.74222-0.22043-1.03479,0.10373c-0.30054,0.33304-0.58036,0.69864-0.79605,1.09033 c-0.19701,0.35782-0.19948,0.84122,0.12051,1.08142c0.85932,0.64508,1.6991,1.47864,2.75504,1.6337 c0.9066,0.13315,1.77953,0.24866,2.58909,0.6716c0.49451,0.25833,0.99055,0.30194,1.49611,0.10181 c0.54256-0.21475,1.0246-0.33099,1.65347-0.13428c0.76171,0.23834,1.65755-0.06555,2.36533,0.56885 c0.14513,0.13007,0.55261,0.13483,0.73421,0.02454c0.49546-0.30106,0.98632-0.24158,1.64702-0.11771 c0.3693-0.03107,0.97693,0.08734,1.38-0.14667c1.40861-0.81775,3.19989-0.38937,4.50639-1.45862 c1.17812,0.01459,1.98009-0.92633,3.03271-1.19675c0.6468-0.16614,1.20529-0.32025,1.61965-0.91641 c0.44135-0.63495,1.36407-0.4165,1.89738-0.86041c0.58951-0.49081,0.54441-1.44537,1.2116-1.9324 c0.10419-0.07608,0.1862-0.22101,0.29703-0.24377C95.96947,262.17868,96.37933,261.01465,97.21161,260.34418z M365.95837,34.74559 c0.18869-0.0323,0.41754,0.2654,0.64758,0.36409c1.14816,0.49271,2.08041,1.44531,3.41095,1.55809 c0.61938,0.0525,1.03058,0.41507,1.31503,0.99761c0.35019,0.71713,0.9884,1.19452,1.68088,1.55885 c0.84778,0.44609,1.55042,0.03453,1.64407-0.90527c0.10168-1.02094-0.52661-1.81841-0.82004-2.7178 c-0.03476-0.10652-0.17258-0.23936-0.27722-0.25378c-0.97333-0.13403-1.58835-0.74872-2.14578-1.48909 c-0.20108-0.26706-0.59189-0.18482-0.90671-0.23874c-0.56622-0.09698-1.19595-0.10633-1.59338-0.60449 c-0.70697-0.88621-1.69812-0.97404-2.71655-1.1931c-1.34729-0.28987-2.86887-0.04766-4.00177-1.14781 c-0.23383-0.22712-0.6037-0.19051-0.91727-0.03519c-0.23599,0.11686-0.4772,0.18885-0.74271,0.10457 c-1.45483-0.46179-2.88907-0.30808-4.35364,0.02528c-0.59756,0.13607-1.25806,0.19748-1.9162,0.00602 c-0.76773-0.22342-1.55017-0.05051-2.24197,0.32677c-0.69949,0.3815-1.37921,0.69332-2.2027,0.47421 c-0.39905-0.10614-0.82211-0.02291-1.05392,0.31363c-0.38852,0.56404-0.91028,0.61967-1.5202,0.63153 c-0.87665,0.01702-1.6286,0.41076-2.21561,1.0449c-1.07745,1.16403-2.08292,2.38406-3.45432,3.25325 c-0.67645,0.42873-0.95163,1.11689-0.79742,2.01789c0.18719,1.0936,1.21927,1.24318,1.89139,0.72572 c0.40768-0.31382,0.75153-0.71049,1.15845-1.02554c1.94821-1.50834,3.6474-3.46444,6.37411-3.59633 c0.05914-0.00285,0.12375-0.04482,0.17267-0.08466c1.26031-1.02554,2.78979-0.79406,4.24252-0.89635 c0.94962-0.06687,1.92712,0.1208,2.75333-0.60587c0.34283-0.30149,0.86169-0.21773,1.56516-0.21806 c0.26331,0.04501,0.78015,0.09537,1.27515,0.22769c0.62106,0.16599,1.22055,0.55711,1.83572,0.57111 C363.41092,33.96558,364.54538,34.98699,365.95837,34.74559z M310.08896,190.32974 c-0.98004-0.20773-1.93231-0.04031-2.80609,0.43242c-0.34457,0.18643-0.63373,0.34879-1.06262,0.33559 c-1.69464-0.05215-3.22653,0.63837-4.72928,1.27843c-0.65234,0.27782-1.17746,0.70561-1.95367,0.51979 c-0.41959-0.10045-0.74094,0.20839-0.92194,0.57068c-0.45987,0.92059-1.24124,1.02995-2.17709,0.89944 c-0.65662-0.31828-1.19385-0.142-1.62054,0.49959c-0.0878,0.13197-0.34137,0.25249-0.49329,0.22707 c-1.04892-0.17548-1.81244,0.49457-2.70139,0.82104c-1.85318,0.68047-3.7478,1.24921-5.63101,1.84639 c-1.27454,0.40408-2.5733,0.89436-3.66879,1.55289c-1.11133,0.668-2.24316,1.38716-3.31482,2.1584 c-0.103,0.07419-0.19662,0.16818-0.27554,0.26796c-0.3645,0.46114-0.3002,0.95821-0.11746,1.46765 c0.15475,0.43135,0.5134,0.56447,0.9093,0.59729c0.5123,0.0424,1.20993,0.2155,1.49536-0.14598 c0.87708-1.11101,2.73856-0.48872,3.33972-1.99152c0.02713-0.06792,0.24863-0.12479,0.34158-0.08868 c0.5849,0.22713,0.98499-0.05408,1.37259-0.43633c0.33246-0.32791,0.74152-0.47473,1.21228-0.53174 c0.37613-0.04558,0.80011-0.12123,1.09558-0.33308c1.22342-0.87718,2.55783-1.31816,4.06509-1.28255 c0.2301,0.00542,0.5098-0.12131,0.68878-0.27658c0.57269-0.49675,1.23691-0.67682,1.96814-0.67877 c0.74637-0.00189,1.14771-0.71646,1.91562-0.8208c1.2486-0.16965,2.5741-0.43655,3.56863-1.25224 c0.87692-0.71921,1.85608-0.83218,2.83731-0.8282c0.681,0.00275,1.23441-0.07127,1.81482-0.42589 c0.88498-0.54056,1.8576-0.85196,2.92288-0.78665c1.24274,0.07622,2.05725-0.62057,2.71524-1.56104 C311.51111,191.45985,311.16873,190.55861,310.08896,190.32974z M236.55234,209.15518 c-0.43974-0.05298-0.82199,0.36247-0.85776,0.85945c-0.03111,0.433,0.31122,0.8644-0.02831,1.30331 c-0.8063,1.04248-0.31966,2.74992-1.78935,3.47777c-0.15091,0.07469-0.15118,0.46416-0.21143,0.70998 c-0.29224,1.19162-0.60719,2.35573-1.80751,3.0199c-0.33278,0.18419-0.66373,0.5459-0.59439,0.94179 c0.17097,0.97662-0.45135,1.64037-0.96658,2.21756c-0.96313,1.07901-1.18927,2.74583-2.71458,3.37485 c-0.19264,0.07944-0.37846,0.40294-0.3997,0.6291c-0.07385,0.78619-0.63448,1.18927-1.09099,1.73154 c-0.43401,0.5155-0.92586,0.81801-1.47771,1.12866c-0.65923,0.37114-0.29414,1.22858-0.72649,1.72688 c-0.12677,0.14615-0.25523,0.2977-0.40828,0.41312c-1.61548,1.21828-2.39133,3.10594-3.64807,4.61264 c-0.41721,0.50023-0.95445,0.86209-1.32552,1.38893c-0.35091,0.49815-0.23831,0.99628,0.07118,1.4435 c0.26976,0.39,0.67412,0.66139,1.16745,0.49709c1.48036-0.49304,2.8855-1.10196,3.42776-2.76566 c0.11919-0.36569,0.21104-0.74133,0.34825-1.09984c0.26166-0.68384,0.63565-1.29414,1.39771-1.49529 c0.6907-0.1823,1.11119-0.67625,1.40855-1.24309c0.24358-0.46429,0.52843-0.84302,0.89455-1.22034 c0.43803-0.45155,0.74271-0.99373,1.33078-1.34396c0.64523-0.38432,0.43423-1.28276,0.83936-1.87332 c0.22826-0.33269,0.47943-0.59216,0.79405-0.81477c0.58215-0.41194,1.07994-0.91281,1.4041-1.54524 c0.61119-1.19238,1.20851-2.3873,2.22139-3.30809c0.2397-0.21788,0.50296-0.44569,0.52325-0.78775 c0.03439-0.57841,0.31781-0.99432,0.80838-1.23213c0.74431-0.36087,0.39691-1.1684,0.74089-1.6649 c0.36143-0.52171,0.82921-0.96877,1.23019-1.46495c0.0665-0.08232,0.05791-0.2541,0.03505-0.37523 c-0.19948-1.054,0.21323-1.89885,0.90536-2.63898c0.28029-0.29984,0.46971-0.58496,0.33511-1.02811 c-0.17557-0.57808-0.09532-1.15089,0.18292-1.73514c0.09244-0.22081,0.04994-0.48868-0.09177-0.69992 C238.02368,209.61426,237.35136,209.2515,236.55234,209.15518z M269.01028,175.51318 c0.97296,0.06184,1.36572-0.12051,1.50015-0.63992c0.22113-0.85495-0.20462-2.07452-1.00232-2.46811 c-0.43698-0.21565-0.83551-0.45543-0.9599-0.87297c-0.23627-0.79292-0.61902-1.5321-0.67838-2.39886 c-0.07446-1.08763-0.02457-2.1808-0.08508-3.26733c-0.05905-1.06097-0.04871-2.1797,0.05615-3.26614 c0.07114-0.73738,0.64139-1.24338,0.94846-1.87039c0.31189-0.63675-0.32373-1.40808,0.19659-2.05664 c0.03983-0.04974,0.07797-0.10832,0.09381-0.16884c0.33975-1.29724,0.8082-2.5325,0.89008-3.92883 c0.0835-1.42325,0.25058-2.93834,1.1655-4.19684c0.38724-0.53268,0.54623-1.1516,0.42523-1.83771 c-0.11481-0.65102,0.02472-1.24774,0.39084-1.83673c0.84418-1.35805,0.79144-1.91606-0.13165-3.12514 c-0.57101-0.74791-1.38721-0.69414-1.89334,0.11031c-0.45355,0.72073-0.22742,1.79446-1.19202,2.26318 c-0.10797,0.05255-0.17987,0.38994-0.12225,0.53842c0.37363,0.96252,0.04181,1.74409-0.52548,2.50871 c-0.23477,0.31633-0.21176,0.72893-0.22528,1.12181c-0.01318,0.38206,0.03329,0.92116-0.18796,1.11375 c-0.87601,0.76242-0.67505,1.69037-0.66003,2.6498c0.00989,0.62959-0.21301,1.2679-0.36594,1.89401 c-0.39102,1.60178-1.26755,3.04504-1.40671,4.74997c-0.05383,0.66013-0.33395,1.36526-0.48911,2.05408 c-0.06961,0.30913-0.14795,0.68683-0.0351,0.95441c0.4993,1.18338,0.19012,2.39952,0.2478,3.59998 c0.03763,0.78172,0.11554,1.53026-0.42575,2.20699c-0.26682,0.33359-0.1821,0.74733,0.0903,1.07036 c0.25906,0.30708,0.48196,0.58177,0.2832,1.02635c-0.22415,0.5013,0.06738,0.84262,0.42133,1.1718 c0.7471,0.69489,1.56924,1.34074,2.17416,2.14661C267.96298,175.36592,268.41223,175.61903,269.01028,175.51318z M278.83292,185.56601c0.89084,0.00983,1.78366-0.42085,2.20407-1.21396c0.82101-1.54861,2.11374-2.7272,3.30603-3.9185 c1.47849-1.47728,2.96091-2.97263,4.54077-4.35382c0.34573-0.30234,0.59521-0.63403,0.8107-1.05148 c0.55624-1.07704,2.12073-1.25299,2.41458-2.61014c0.01379-0.06375,0.21942-0.09923,0.34061-0.12427 c0.58704-0.12151,0.87491-0.5215,0.97006-1.07207c0.08414-0.4872,0.2605-0.8522,0.8125-0.93542 c0.17957-0.02708,0.36081-0.13005,0.51279-0.23833c0.58466-0.41649,0.21359-1.28278,0.78467-1.70795 c0.50259-0.37415,1.32507-0.08031,1.66711-0.81142c0.39926-0.85339,1.58105-1.09238,1.7106-2.20143 c0.02496-0.21361,0.47787-0.37875,0.7352-0.56357c0.76205-0.54735,1.15073-1.38522,1.56067-2.16965 c0.26953-0.51576,0.16913-1.15411-0.2919-1.61671c-0.41675-0.41806-0.90091-0.38638-1.43329-0.19383 c-0.60803,0.21991-1.18256,0.42119-1.63113,0.95351c-0.91376,1.08435-2.0228,2.02686-2.8024,3.19411 c-0.58755,0.8799-1.1059,1.69269-2.12717,2.09021c-0.21872,0.08513-0.50537,0.31462-0.53586,0.5123 c-0.19431,1.25931-1.29382,1.66873-2.09842,2.36809c-1.20145,1.04422-2.49738,1.98402-3.47305,3.27913 c-1.19571,1.58722-2.44266,3.13649-3.94012,4.46091c-0.38657,0.3419-0.96201,0.62233-1.11276,1.05011 c-0.44952,1.27548-1.34161,1.96767-2.5354,2.42343c-0.20642,0.07878-0.4498,0.36514-0.46924,0.57477 c-0.07059,0.76062-0.44287,1.3084-0.96713,1.82819c-0.41138,0.40785-0.38443,0.94424-0.09839,1.43416 C277.93655,185.37982,278.36172,185.52756,278.83292,185.56601z M245.3219,172.83232 c-0.64888-0.05507-1.3839,0.05431-1.74007-0.56219c-0.46913-0.81221-1.3145-1.00487-1.99844-1.45181 c-0.31842-0.20815-0.72652-0.27782-0.85783-0.69797c-0.2074-0.66348-0.66615-0.90512-1.33278-0.84579 c-0.4984,0.04439-0.84647-0.15485-1.09407-0.61583c-0.60805-1.13177-1.77199-1.61334-2.79938-2.21082 c-0.64751-0.37666-1.38934-0.43124-1.68553-1.37451c-0.19687-0.62692-1.01486-1.11996-1.68813-1.13225 c-1.02014-0.01854-1.53629-0.58107-1.89363-1.32736c-0.24586-0.5134-0.5345-0.80017-1.05595-1.01346 c-0.76208-0.31183-1.47015-0.75563-2.20128-1.1432c-0.50681-1.35085-2.12024-1.59219-2.79587-2.82945 c-0.37401-0.68492-1.12025-0.53795-1.52315,0.19237c-0.21536,0.3905-0.37372,0.80226-0.62683,1.18565 c-0.53833,0.81535-0.45898,1.21591,0.43153,1.71878c1.13605,0.64148,2.14157,1.39893,2.95247,2.42523 c0.19412,0.24571,0.50771,0.39334,0.74725,0.60753c1.11308,0.99538,2.52904,1.5706,3.6445,2.52496 c0.98737,0.8448,2.04962,1.5569,3.09912,2.30026c0.66672,0.47227,1.57336,0.65567,1.84355,1.60387 c0.04216,0.14796,0.27953,0.26022,0.44765,0.34933c1.62582,0.86192,3.20393,1.82007,4.66779,2.91794 c0.73506,0.55124,1.73907,0.65468,2.28618,1.32661c1.15587,1.41965,2.87469,1.29881,4.35751,1.8058 c0.49675,0.16978,1.0025-0.16501,1.45694-0.40787c0.30769-0.16447,0.4144-0.47682,0.47469-0.93301 c-0.04045-0.13417-0.08182-0.39264-0.19221-0.61707C247.65147,173.42036,246.57025,172.93817,245.3219,172.83232z M293.08444,235.048c-0.58231-0.27342-1.18439-0.50552-1.78195-0.74562c-0.36569-0.14694-0.80591-0.2975-0.88037-0.69246 c-0.21329-1.13202-0.9903-1.55238-1.98203-1.84187c-1.04169-0.30414-1.86111-0.87811-2.04276-2.07886 c-0.07114-0.47009-0.41547-0.80142-0.80984-1.04672c-0.60364-0.37547-1.19333-0.79161-1.83899-1.07729 c-1.1058-0.48927-1.97379-1.24529-2.52802-2.28041c-0.26358-0.49223-0.54095-0.84116-1.03189-1.06641 c-0.29138-0.13367-0.53281-0.3326-0.71542-0.62477c-0.56665-0.90654-1.37808-1.50577-2.39203-1.85774 c-0.29074-0.10086-0.73047-0.30135-0.76813-0.51489c-0.22092-1.25546-1.37518-1.41837-2.17432-2.0005 c-1.16379-0.84775-2.63513-1.38989-3.0527-3.00391c-0.02902-0.11211-0.13675-0.24765-0.24103-0.28944 c-0.77286-0.30983-1.55417-0.59875-2.02344-0.77689c-0.41345,0-0.47897-0.00687-0.5426,0.00114 c-0.47882,0.06013-0.87833,0.2653-1.06146,0.72818c-0.15976,0.40384,0.00272,0.73662,0.31772,1.02914 c0.23108,0.21455,0.5123,0.4523,0.59814,0.7327c0.35599,1.16328,1.24826,1.74741,2.24033,2.26996 c0.51105,0.26917,1.07968,0.52652,1.44962,0.9427c0.51288,0.57695,0.93677,1.2162,1.70605,1.4854 c0.15155,0.99092,1.13605,1.10426,1.69449,1.65524c1.02594,1.01207,2.19159,1.88786,3.08191,3.039 c0.3898,0.50392,0.73154,1.08792,1.47348,1.14769c0.48431,0.97934,1.47372,1.32391,2.31766,1.85367 c0.10382,0.06517,0.15964,0.20232,0.24985,0.29424c0.73782,0.75203,1.79874,1.14702,2.33447,2.13155 c0.07959,0.14629,0.30884,0.25085,0.48877,0.2966c1.49686,0.38045,2.27142,1.57422,3.10532,2.70981 c0.18768,0.25557,0.39853,0.63713,0.64648,0.67924c0.82358,0.13983,1.37448,0.62798,1.94,1.17015 c0.36029,0.3454,0.91684,0.38271,1.2438,0.03276c0.49725-0.53218,1.48291-0.68527,1.40323-1.69714 C293.48575,235.3593,293.31161,235.15463,293.08444,235.048z M223.63524,198.81285c0.13062-0.11386,0.39421-0.19804,0.54517-0.14621 c1.06059,0.36404,1.81581-0.4211,2.71571-0.65396c0.61517-0.15926,1.07283-0.6264,1.80148-0.61066 c1.2365,0.02679,2.28215-0.51491,3.18922-1.43094c0.52701-0.53227,0.72818-1.04176,0.57893-1.70688 c-0.10699-0.47691-0.93614-0.93713-1.58-0.93277c-0.18695,0.00133-0.38008,0.05424-0.55896,0.1162 c-0.88327,0.30609-1.93723,0.25334-2.49472,1.25314c-0.10201,0.18282-0.43916,0.28697-0.68454,0.32904 c-1.65186,0.28279-3.06383,1.30521-4.76382,1.4751c-1.13553,0.11354-2.28062,0.33066-3.16869,1.19751 c-0.16656,0.16257-0.49622,0.14365-0.72192,0.26283c-0.7851,0.41479-1.64819,0.23676-2.4673,0.36964 c-0.82616,0.13402-1.33913,0.99434-2.21754,1.07724c-0.19284,0.0182-0.3835,0.07426-0.57594,0.07863 c-1.35568,0.03087-2.65654,0.50821-4.03322,0.44627c-0.55518-0.02495-1.21175,0.10747-1.66646,0.40578 c-0.80521,0.52805-1.68402,0.51671-2.55409,0.68816c-0.86548,0.17046-1.72072,0.44922-2.5394,0.78168 c-0.55412,0.22504-0.7921,0.83081-0.66719,1.27179c0.28352,1.00035,1.66769,1.97235,2.70207,1.78526 c1.19585-0.21626,2.4136-0.36931,3.49141-1.04979c0.57738-0.36452,1.18552-0.6559,1.9846-0.49559 c0.67117,0.13469,1.44844-0.06071,1.97113-0.56755c0.36594-0.35489,0.63797-0.62352,1.26788-0.24179 c1.558-0.44119,3.29602-0.7359,4.84914-1.43895c1.13899-0.51556,2.37747-0.76849,3.47331-1.44232 C222.11627,199.26184,223.01216,199.35608,223.63524,198.81285z M260.04831,246.33507 c-0.08868-0.11484-0.03806-0.38792,0.02432-0.56c0.27939-0.77083,0.01761-1.49774-0.05035-2.26048 c-0.12027-1.35001-0.49271-2.63295-0.71609-3.95135c-0.22745-1.34268,0.04013-2.69019,0.01926-4.03668 c-0.00589-0.38048,0.10452-0.7504-0.06488-1.13123c-0.74194-1.66785-0.7915-3.45761-0.81659-5.23238 c-0.00931-0.66061-0.1842-1.20792-0.36328-1.82222c-0.27658-0.94882-1.2283-1.71629-0.81631-3.00549 c-0.00616-0.09946,0.05713-0.39456-0.05157-0.5975c-0.43259-0.80724-0.72702-1.62108-0.63699-2.5663 c0.0303-0.31866-0.27872-0.56105-0.59444-0.69632c-0.41322-0.17699-0.82318-0.36217-1.24001-0.53008 c-0.71922-0.28963-1.32324,0.02333-1.42014,0.76624c-0.04054,0.31107-0.00801,0.64464,0.05734,0.95403 c0.1548,0.73296,0.69992,1.28271,0.69412,2.15979c-0.00484,0.73323,0.70869,1.4521,0.40237,2.3389 c-0.04317,0.12492,0.11552,0.37788,0.24818,0.49556c0.77945,0.69135,0.61345,1.61485,0.61032,2.48277 c-0.00114,0.30225-0.29523,0.63145-0.07256,0.92116c0.48763,0.63448,0.49379,1.29607,0.23595,2.00313 c0.61989,1.02798,0.12383,2.2204,0.56071,3.33836c0.4726,1.2094,0.86118,2.57498,0.16779,3.92899 c-0.17377,0.33936,0.05048,0.73346,0.2269,1.0968c0.59464,1.2244,0.93637,2.44699,0.61197,3.88301 c-0.29242,1.29466-0.35312,2.64987,0.19293,3.99178c0.26181,0.64336,0.53735,1.3839,0.09363,2.22438 c-0.34042,0.64478,0.56006,1.50542,1.34155,1.45644c1.29538-0.08119,2.43637-1.3342,1.98441-2.48564 C260.26556,248.45294,260.77951,247.2822,260.04831,246.33507z M468.82632,142.83968 c0.67941,0.78082,1.52124,1.37312,2.31845,2.02229c0.80191,0.65297,1.53784,1.40144,1.10437,2.61879 c-0.14587,0.40938,0.02466,0.83669,0.31927,1.05556c0.70316,0.52249,0.83112,1.21112,0.9212,2.01709 c0.09506,0.84892,0.68845,1.14946,1.56204,0.98788c1.12268-0.20773,1.64209-1.06329,1.2511-2.13997 c-0.15063-0.41479-0.56589-0.77448-0.60184-1.1821c-0.10709-1.21036-0.71814-2.17709-1.2399-3.21773 c-0.49146-0.97987-0.52728-2.202-1.85693-2.62546c-0.26083-0.0831-0.3132-0.69659-0.55734-0.98448 c-0.41681-0.49152-0.45358-1.22847-1.06387-1.58331c-1.57986-0.91827-2.79501-2.2592-4.05267-3.54436 c-0.34943-0.35712-0.71671-0.54825-1.19342-0.49512c-0.49835,0.05553-0.97433-0.05786-1.1611-0.50667 c-0.39352-0.946-1.21268-1.05518-2.04007-1.2187c-0.37762-0.07465-0.82608-0.09669-1.10379-0.31718 c-1.24997-0.99216-2.76154-0.79396-4.18225-1.00876c-0.19046-0.03197-0.38016-0.08342-0.57175-0.09271 c-1.172-0.05687-1.3562,0.07233-1.65225,1.13306c-0.05215,0.18677-0.11096,0.37334-0.142,0.56404 c-0.15051,0.92656,0.08795,1.25906,1.04111,1.49686c1.4389,0.35889,3.0755-0.08916,4.32565,1.06122 c0.07303,0.0672,0.25156,0.03712,0.37863,0.02565c1.40363-0.12672,2.47888,0.54845,3.49152,1.40173 c0.63895,0.53848,1.27274,1.07411,2.03726,1.45622c0.914,0.45685,1.86307,0.90294,1.97369,2.16661 C468.15952,142.25163,468.57211,142.54767,468.82632,142.83968z M378.918,45.34449c1.17743-0.51685,2.44119-0.71215,3.66666-1.04888 c0.61597-0.16922,1.22235-0.37339,1.85953,0.02936c0.34314,0.21698,0.75299,0.0986,1.1001-0.12639 c0.35455-0.22983,0.73639-0.25174,1.11148-0.08826c0.92505,0.40322,1.88724,0.11378,2.83002,0.17135 c0.38477,0.02348,0.83524-0.14896,1.1489-0.00285c1.05737,0.49276,2.10938,0.94302,3.30121,0.93904 c1.39215,0.96289,3.07495,1.34311,4.49844,2.24008c0.75656,0.47678,1.5238,0.90238,2.12509,1.63383 c0.88306,1.07439,2.37518,1.1875,3.50369,1.9192c0.41147,0.26677,0.95987-0.32188,0.93695-1.08525 c-0.02737-0.08532-0.04077-0.38297-0.19391-0.55901c-0.54706-0.62896-1.16257-1.19561-1.26733-2.10008 c-0.0173-0.14944-0.23737-0.35318-0.3992-0.39511c-0.83081-0.21531-1.24573-0.86733-1.70587-1.49577 c-0.14377-0.19639-0.37924-0.37049-0.60907-0.4514c-1.00336-0.35304-1.85733-1.18423-3.05707-0.93814 c-0.22452,0.046-0.56845-0.02784-0.7233-0.18145c-0.86172-0.85495-2.03845-0.76537-3.07819-1.00828 c-0.59061-0.13796-1.19385-0.28114-1.55719-0.67359c-1.02005-1.10171-2.40326-0.99472-3.57727-0.90589 c-1.46286,0.11065-2.97412-0.10941-4.41599,0.40701c-0.70779,0.25349-1.34662-0.41261-2.0708-0.34583 c-0.77823,0.0717-1.11002,1.01245-2.05643,0.92301c-0.82697-0.07821-1.5907,0.49057-2.33737,0.86382 c-0.66797,0.33393-0.7399,1.01241-0.30298,1.85451C377.95023,45.50171,378.25662,45.63483,378.918,45.34449z M62.3758,214.37064 c0.54469,0.13786,1.15862,0.05719,1.41894-0.36803c0.5794-0.94635,2.03862-1.23213,1.97335-2.65454 c-0.00683-0.14783,0.20199-0.32069,0.33578-0.45747c1.65968-1.69577,3.28251-3.43138,5.01447-5.05013 c0.46971-0.43907,1.02346-0.69196,1.13012-1.42535c0.08001-0.54967,0.51329-0.7997,1.03783-1.02109 c1.11864-0.47217,2.16918-1.1035,3.27862-1.6003c1.20786-0.5408,2.1311-1.60561,3.56204-1.77255 c0.54492-0.06355,1.19272-1.50122,1.04793-1.89714c-0.30291-0.82854-1.00648-0.90604-1.74628-0.90707 c-0.12891-0.00018-0.25777-0.01617-0.64481-0.0423c-0.78937,0.03789-1.81628,0.10229-2.46607,1.11821 c-0.09907,0.1548-0.23158,0.31311-0.38718,0.40312c-1.59324,0.9213-3.06734,2.06992-4.91705,2.5024 c-0.49755,0.11638-0.84119,0.42906-1.06676,0.99481c-0.32525,0.81573-0.79031,1.61609-1.80267,1.83781 c-0.48527,0.10628-0.72871,0.50735-0.88308,0.95099c-0.33601,0.96559-1.05428,1.60783-1.90444,2.06715 c-0.58875,0.3181-0.84998,0.68161-0.84253,1.35886c0.00475,0.43324-0.1703,0.97466-0.68403,1.056 c-0.9839,0.15579-1.16142,0.8549-1.34159,1.64304c-0.1548,0.67734-0.26711,1.35818-0.76835,1.94547 C61.33963,213.49818,61.76239,214.21536,62.3758,214.37064z M46.06399,238.74249c1.00017-0.42976,2.18417-0.55742,3.04054-1.1649 c1.12227-0.79619,2.26685-0.1198,3.17936-0.45197c0.67919,0.06604,1.15644-0.13434,1.69368-0.06923 c1.33031,0.16121,1.68629-0.23557,1.69914-1.62259c0.00939-1.01524-0.22741-1.26025-1.23545-1.22769 c-0.82735,0.0267-1.69155,0.2493-2.47095,0.07648c-0.91208-0.20222-1.64403,0.02382-2.41205,0.37566 c-0.34846,0.15961-0.79088,0.53104-1.0356,0.43018c-1.25862-0.51877-2.22775-0.09769-3.13613,0.73286 c-0.03787,0.03464-0.12926,0.03207-0.18906,0.0182c-0.99903-0.23166-1.4879,0.53935-2.15424,1.02841 c-0.71021,0.52124-1.75292,0.30353-2.43443,1.06111c-0.38204,0.4247-0.87601,0.75455-1.1466,1.2834 c-0.34877,0.68161-1.21755,0.36699-1.6557,0.87653c-0.29463,0.34262-0.60665,0.67044-0.89745,1.01619 c-0.2032,0.24164-0.2796,0.61371-0.6236,0.70808c-1.39037,0.38145-1.39559,1.74146-1.91692,2.72478 c-0.19729,0.37209,0.02663,0.75214,0.36129,1.0105c0.29264,0.22589,0.60354,0.17026,0.9048,0.01747 c1.59269-0.80777,3.10653-1.70772,4.36868-3.0197c0.6441-0.66951,1.33951-1.3101,2.29367-1.65187 c0.75365-0.26993,1.47593-0.7538,2.12578-1.21165C44.95116,239.31052,45.49364,238.98763,46.06399,238.74249z M386.69659,193.58952 c-0.62476-0.70613-1.20352-1.61543-2.4082-1.03185c-0.15903,0.07706-0.37405,0.09579-0.55139,0.06754 c-0.70734-0.11273-1.28024-0.54645-1.91687-0.82195c-0.62756-0.27165-1.42288,0.40033-2.04706-0.09048 c-1.15173-0.90565-2.34866-1.70303-3.76376-2.13048c-0.37363-0.94579-1.87106-0.98932-1.832-2.27907 c0.00275-0.09035-0.14468-0.224-0.25183-0.27313c-1.1954-0.54762-1.88531-1.48378-2.25226-2.73108 c-0.09988-0.33963-0.43686-0.60559-0.62415-0.95195c-0.3728-0.68962-2.25653-1.08904-2.92615-0.68312 c-0.15735,0.09532-0.34149,0.24249-0.39072,0.40332c-0.20441,0.66785-0.44382,1.29544,0.04477,2.0184 c0.62009,0.91756,1.37607,1.66101,2.21451,2.35931c0.66559,0.55432,1.53906,0.93367,1.56967,2.04758 c0.01114,0.4054,0.46637,0.81042,0.89603,0.95479c0.7121,0.23921,1.16159,0.78893,1.68045,1.25337 c0.24081,0.2155,0.44144,0.53716,0.7601,0.55844c0.92438,0.06184,1.54898,0.72568,2.11554,1.24783 c1.15369,1.0632,2.43564,1.36018,3.90738,1.28146c0.37524-0.02007,0.94446-0.11388,1.09836,0.08223 c0.59937,0.76361,1.32712,0.67468,2.0163,0.49162c0.97073,0.36983,1.74606,0.10718,2.45731-0.41029 C386.94998,194.61925,387.07007,194.01172,386.69659,193.58952z M401.6109,210.02136 c-0.49997,0.06166-0.9859,0.27698-1.46518,0.45686c-0.66147,0.24828-1.30612,0.55702-2.0433,0.37325 c-0.48508-0.12099-0.87878,0.06493-1.25708,0.34454c-0.31085,0.22969-0.61499,0.49457-0.96536,0.63875 c-0.64044,0.26353-1.48834,0.23669-1.75809,1.02098c-0.29068,0.84523-1.26358,0.70831-1.72195,1.43246 c-0.56683,0.89531-1.43295,1.71436-2.354,2.24829c-1.83554,1.06404-2.37088,2.96407-3.311,4.60507 c-0.35846,0.6257-0.19867,1.12773,0.28546,1.55959c0.46216,0.41223,0.97302,0.62173,1.58939,0.30602 c0.74445-0.38132,1.40186-0.78407,1.85385-1.58398c0.61438-1.08722,1.3511-2.13942,2.20709-3.04419 c0.59076-0.62445,1.57712-0.87776,1.57574-1.98735c-0.00015-0.12245,0.25061-0.2755,0.41275-0.3629 c1.15967-0.62517,2.51047-0.91922,3.39297-2.03012c0.12701-0.15993,0.48227-0.20924,0.72449-0.1937 c0.74533,0.04796,1.39423-0.03708,1.84543-0.74265c0.1828-0.28578,0.55219-0.32245,0.8801-0.29532 c0.38486,0.03177,0.76642,0.10301,1.3342,0.18315c0.59244,0.04335,1.0556-0.40785,0.97144-1.14168 C403.65118,210.44232,402.96558,209.85423,401.6109,210.02136z M30.499,253.22168c-0.50167,0.17821-0.96937,0.31523-1.62696,0.24004 c-0.48157-0.24031-0.95184,0.12408-1.50339,0.31458c-1.55366,0.53662-2.97267,1.38577-4.59733,1.78467 c-0.93401,0.22932-2.03174,0.54222-2.47444,1.65623c-0.10666,0.2684-0.33452,0.38318-0.58982,0.44379 c-0.42276,0.10028-0.70217,0.39594-0.80387,0.76794c-0.25141,0.91931-0.96958,1.3161-1.72842,1.69138 c-0.40391,0.19974-0.89218,0.35318-0.97572,0.85715c-0.10284,0.62054-0.56926,0.98776-0.85713,1.47748 c-0.39074,0.66461-0.7049,1.37619-1.02407,2.08026c-0.22511,0.49658-0.00043,0.90698,0.41076,1.16003 c0.59966,0.36896,1.6437,0.09344,2.06285-0.50128c0.99206-1.40771,1.91772-2.86755,3.51788-3.7114 c0.32331-0.1705,0.55185-0.53204,0.8052-0.82202c1.15613-1.32321,2.60972-2.25635,4.2026-2.90347 c0.8057-0.3273,1.7086-0.31042,2.38238-1.05362c0.36976-0.40781,1.13968-0.04944,1.64045-0.43442 c0.62349-0.47925,1.27123-0.82776,2.12908-0.71379c0.37123,0.04932,0.73074-0.28181,0.79818-0.71419 C32.42441,253.83368,31.43453,252.88933,30.499,253.22168z M336.05557,86.80574c-0.689,0.26212-1.57785,0.24903-1.9512,1.09815 c-0.13989,0.31842-0.38025,0.49541-0.72897,0.55778c-0.4046,0.07233-0.75232,0.30167-0.88577,0.68014 c-0.35031,0.99377-1.27399,1.40035-2.00125,1.992c-0.28632,0.23291-0.69058,0.33189-0.89355,0.68929 c-0.6098,1.07363-1.89557,1.56511-2.3736,2.76077c-0.06033,0.15091-0.26996,0.28892-0.43906,0.34241 c-1.73376,0.54844-2.47238,2.16875-3.5343,3.39571c-0.58923,0.6808-0.98901,1.69212-0.39154,2.70623 c0.32373,0.54948,1.02478,0.77874,1.46252,0.31966c0.61282-0.64262,1.4509-1.10337,1.76889-2.00101 c0.09296-0.26255,0.20441-0.48128,0.50244-0.49561c0.75635-0.03642,1.05978-0.58358,1.44534-1.12656 c0.55737-0.78486,1.24619-1.47524,1.85941-2.22202c0.25079-0.30537,0.49203-0.61246,0.89987-0.68578 c0.78052-0.14028,1.28537-0.55299,1.45074-1.35193c0.05777-0.27924,0.26227-0.40749,0.54233-0.46364 c0.47098-0.09447,0.76312-0.4404,1.07144-0.78097c0.60303-0.66601,1.20081-1.32969,1.97845-1.82529 c0.88168-0.56191,1.1337-1.522,1.31592-2.49049C337.27292,87.12733,336.74857,86.54209,336.05557,86.80574z M446.46683,217.07591 c-1.8963-1.26361-3.32242-3.02507-4.95718-4.56586c-0.59576-0.56148-0.97275-1.39272-1.89368-1.58549 c-0.25919-0.05435-0.41995-0.29594-0.49557-0.55556c-0.28302-0.97214-0.72391-1.93423-0.79721-2.92288 c-0.10132-1.36572-1.16815-1.90981-1.93112-2.70613c-0.39307-0.41032-0.97025-0.24538-1.44806,0.0303 c-0.44565,0.25729-0.57846,0.668-0.53952,1.15512c0.02368,0.12752,0.0639,0.25433,0.06711,0.38211 c0.06378,2.53027,1.8389,4.30734,2.83255,6.42766c0.04968,0.10596,0.17728,0.21484,0.28958,0.24539 c0.54459,0.14812,0.74979,0.71922,1.14401,0.95866c0.7894,0.47949,0.88647,1.36797,1.43103,1.95464 c1.38345,1.4906,3.26981,2.25307,4.95294,3.30502c0.60858,0.38034,1.46573-0.00523,1.82004-0.65132 C447.23849,218.00652,447.13196,217.51917,446.46683,217.07591z M309.46326,213.37317 c-0.89731-0.60544-1.76312-1.30583-2.90955-1.41017c-0.38184-0.03481-0.88599,0.06213-1.12149-0.14407 c-0.74222-0.64975-1.60614-0.67616-2.49551-0.76196c-0.36722-0.03537-0.71954-0.25154-1.07303-0.39899 c-1.23398-0.51482-2.45459-1.06377-3.70175-1.5441c-0.81439-0.31363-1.81314-0.09007-2.48517-0.85178 c-0.07016-0.07944-0.24066-0.0703-0.36832-0.10321c-0.84998,0.26042-1.71405,0.49182-2.55029,0.79886 c-0.30505,0.11197-0.42258,0.46078-0.41101,0.81079c0.01178,0.35631,0.17093,0.59126,0.5032,0.74141 c0.34573,0.15622,0.80206,0.06029,1.05261,0.41328c0.7518,1.05916,2.03806,0.98076,3.07361,1.30174 c0.90033,0.27916,1.90411,0.14256,2.52438,1.08255c0.08475,0.12843,0.34305,0.19417,0.52347,0.1991 c1.05939,0.02902,1.93951,0.54388,2.87808,0.94748c0.97452,0.41901,2.13049,0.37695,2.97827,1.16612 c0.10098,0.0939,0.41592,0.07777,0.55432-0.00972c0.52682-0.33327,1.14154-0.17819,1.68448-0.35936 c0.42258-0.14099,0.85101-0.30623,1.22366-0.54407C309.80585,214.4119,309.88416,213.65726,309.46326,213.37317z M190.77478,224.29477c-0.50717-0.08517-1.02692-0.09598-1.58194-0.14317c-1.0264-0.16071-2.06319,0.15982-2.87811,0.69992 c-1.47049,0.97449-2.99222,1.65329-4.72223,2.01723c-1.476,0.31055-2.91861,0.82471-4.33517,1.35724 c-0.88635,0.33316-1.72313,0.82504-2.53416,1.32376c-0.69115,0.42496-0.70377,1.5168-0.00214,1.7446 c0.93776,0.30444,1.83131,0.83716,2.96793,0.38609c0.76598-0.30399,1.49065-0.64322,2.22771-1.00186 c0.75421-0.367,1.68239-0.22195,2.29788-1.08751c0.4462-0.62741,1.36972,0.04115,2.01965-0.29532 c0.61829-0.3201,0.94487-1.13867,1.75017-1.11838c1.43996,0.03629,2.70728-0.69476,4.10132-0.85846 c1.37328-0.16127,1.54344-0.53682,1.58205-1.94981C191.68446,224.75638,191.37126,224.39496,190.77478,224.29477z M202.85342,168.14539c1.5569,1.03142,3.06023,2.13559,3.92888,3.88078c0.10538,0.21172,0.33934,0.43163,0.55948,0.49983 c0.54665,0.16936,0.85672,0.52875,1.07877,1.0215c0.24866,0.55196,0.64233,0.95573,1.23213,1.16034 c0.23827,0.08266,0.5251,0.17035,0.67027,0.35161c0.66354,0.8284,1.79247,1.24187,1.96747,2.53304 c0.09676,0.71376,0.98705,0.84348,1.53847,0.31648c0.27336-0.26128,0.47696-0.57823,0.79614-0.82095 c0.84105-0.63954,0.91182-1.03128,0.26207-1.69658c-0.52211-0.53468-0.95445-1.13936-1.78862-1.40125 c-0.81488-0.25583-0.74464-1.4519-1.45064-1.957c-0.10457-0.07478-0.21584-0.14095-0.327-0.20592 c-1.22079-0.71405-2.15495-1.75363-3.13004-2.74779c-0.8035-0.81934-1.74632-1.48064-2.56723-2.2932 c-0.51309-0.50789-1.26646-0.71997-1.63548-1.50934c-0.30969-0.66249-1.22009-0.52321-1.52234,0.16722 c-0.17979,0.41072-0.26971,0.86075-0.33781,1.08649C201.96309,167.42099,202.30893,167.78456,202.85342,168.14539z M295.69904,137.24448c1.1409-0.2202,2.1116-0.78381,2.52914-1.88339c0.26965-0.71016,0.73813-1.17058,1.20743-1.69872 c0.54147-0.60947,1.37442-1.02141,1.47083-1.96761c0.91318-0.73036,1.26154-1.9752,2.25815-2.59512 c0.80093-0.49815,1.2363-1.29559,1.86337-1.92967c0.50589-0.51163,0.61398-1.26443,0.74844-1.90525 c0.00156-0.62773-0.65161-1.14999-1.21863-0.92628c-1.30194,0.51368-2.80811,0.79221-3.44562,2.27361 c-0.48108,1.11798-1.854,1.61424-1.98819,2.97011c-0.01755,0.17734-0.34995,0.36674-0.57336,0.47289 c-0.93283,0.44269-1.44879,1.23935-1.92731,2.10156c-0.37506,0.67581-0.76581,1.3671-1.27811,1.93579 c-0.51367,0.57011-0.67529,1.25294-0.85324,1.92232C294.27121,136.84505,294.85989,137.40643,295.69904,137.24448z M170.59381,232.8342c-0.19284-0.16258-0.4332-0.26961-0.62224-0.43568c-0.89095-0.78262-0.89247-0.75266-1.75392-0.24603 c-1.13243,0.66589-2.11255,1.67178-3.56801,1.66833c-0.16841-0.0004-0.36722,0.13403-0.5004,0.26033 c-0.44121,0.41837-0.96431,0.62956-1.55557,0.71135c-0.46971,0.06499-0.83974,0.2883-1.11755,0.68602 c-0.14095,0.20181-0.33331,0.50235-0.52008,0.5159c-1.25821,0.09113-2.13104,1.22162-3.42274,1.21811 c-0.51154-0.00137-0.8062,0.38145-0.91504,0.85858c-0.11415,0.50031-0.18188,1.0112-0.2699,1.51746 c-0.12639,0.40892-0.03471,0.76988,0.33231,1.00626c0.36893,0.23756,0.73805,0.1414,1.08554-0.0761 c0.05322-0.03331,0.08978-0.09206,0.13957-0.1322c1.15636-0.93254,2.33376-1.80904,3.94582-1.69116 c0.18088,0.01323,0.37035-0.09895,0.55664-0.15004c0.68854-0.18875,0.85405-1.00647,1.3985-1.25584 c0.55252-0.25299,1.25822-0.15172,1.88055-0.28261c0.21707-0.04567,0.44376-0.28729,0.56593-0.49757 c0.38438-0.66179,0.89906-0.8504,1.62837-0.63425c0.40218,0.11917,0.80966-0.05656,1.02858-0.38536 c0.35014-0.52585,0.82692-0.70677,1.40311-0.9017C171.25246,234.27028,171.33858,233.46219,170.59381,232.8342z M318.95294,108.6426 c0.62039-0.34081,1.02271-0.7775,0.91562-1.54069c-0.11279-0.80416-0.74603-0.97959-1.3782-1.16113 c-0.06223-0.01788-0.12512-0.03363-0.18832-0.04748c-0.86017-0.1879-1.12848-0.09333-1.52496,0.7307 c-0.22882,0.47564-0.43726,0.92642-0.90341,1.22032c-1.79132,1.1295-2.63348,3.13297-4.14636,4.52014 c-0.50681,1.54007-1.63086,2.60242-2.80734,3.62341c-0.2695,0.23381-0.30969,0.55052-0.34055,0.88886 c0.0806,0.49561,0.1051,1.02483,0.45834,1.44318c0.21451,0.25402,0.54816,0.52956,0.82672,0.32018 c0.85321-0.64115,2.07471-0.93282,2.35794-2.15528c0.2431-1.04897,0.80899-1.73518,1.83664-2.05038 c0.57877-0.17751,1.04843-0.47715,1.2655-1.09426c0.13412-0.38131,0.4642-0.61217,0.79211-0.82669 c0.28171-0.18415,0.50671-0.4247,0.55148-0.76171C316.86203,110.29355,317.71561,109.32231,318.95294,108.6426z M176.45473,142.09892c1.24873,0.33217,1.73106,0.03215,1.75041-1.40637c0.08585-0.76035-0.23604-1.52992-1.12799-2.02069 c-0.28142-0.15485-0.54132-0.34834-0.81999-0.50883c-0.23372-0.1346-0.41707-0.2892-0.43178-0.58458 c-0.04988-1.00397-0.7202-1.64246-1.47035-2.09613c-0.72908-0.44102-0.86111-1.41473-1.73593-1.70517 c-0.19833-0.06583-0.19511-0.60587-0.38843-0.84305c-0.84418-1.0356-1.54106-2.26584-3.07994-2.44312 c-0.8147-0.0939-1.39357,0.46629-1.2272,1.27312c0.06364,0.30846,0.16978,0.64452,0.36157,0.88368 c0.73416,0.91515,1.2753,1.9332,1.73712,3.00194c0.21457,0.49655,0.57965,0.81839,1.0817,1.04518 c0.58543,0.26436,1.17305,0.56778,1.4854,1.18745c0.548,1.0872,1.2603,2.0278,2.07219,2.95332 C175.20714,141.45758,175.67561,141.89168,176.45473,142.09892z M328.69086,218.54291 c-0.95718-0.34636-1.92484-0.66684-2.89877-0.96294c-0.83691-0.25446-1.62454-0.78136-2.59256-0.32449 c-0.29053,0.1371-0.83786,0.04097-1.11526-0.1593c-1.13162-0.81688-2.60626-0.55101-3.76962-1.2964 c-0.54468-0.34895-1.28073,0.06081-1.61505,0.67241c-0.28772,0.52643-0.17319,1.13597,0.4964,1.46576 c0.67542,0.33264,1.14563,0.80989,1.58441,1.37375c0.53156,0.68309,1.38504,0.07607,1.99326,0.47923 c0.16113,0.10683,0.33899,0.18814,0.50644,0.28577c0.69672,0.40619,1.42902,0.57199,2.23294,0.38454 c0.44583-0.10399,0.93372-0.16614,1.30032,0.16043c1.11066,0.98944,2.58298,0.56813,3.8457,1.00507 c0.75128,0.25987,1.33252-0.43407,1.33688-1.24673C330.00165,219.32152,329.73846,218.92201,328.69086,218.54291z M193.1938,154.54346c-1.3875-0.10074-1.59575-1.73537-2.76219-2.12364c-1.34387-1.53566-2.68689-3.07199-4.03247-4.60612 c-0.17058-0.19455-0.34914-0.38654-0.64598-0.36064c-1.31129-0.00702-2.10857,1.13672-1.59244,2.31108 c0.20393,0.46407,0.26758,1.0753,0.78415,1.29152c0.90053,0.37703,1.25243,1.27841,1.78636,1.93735 c0.44115,0.54456,0.90204,0.99994,1.41074,1.4669c0.52301,0.48004,1.52774,0.55649,1.46822,1.60081 c-0.00731,0.12862,0.22798,0.36224,0.38263,0.3943c1.20682,0.25079,1.97104,1.10228,2.77216,1.93082 c0.30571,0.31624,0.72914,0.23642,1.06107-0.02049c0.42604-0.32956,0.69266-0.7718,0.67929-1.3293 C194.48019,155.99266,193.89951,155.23317,193.1938,154.54346z M351.89243,224.7513 c-0.86365,0.14572-1.47998-0.01297-2.07092-0.63615c-0.19122-0.20168-0.62421-0.34933-0.8815-0.28009 c-0.74985,0.20197-1.4877-0.4883-2.03018-0.23689c-1.07895,0.50006-1.31479-0.5627-1.97415-0.77628 c-0.1814-0.05876-0.37903-0.10658-0.56693-0.09943c-0.98813,0.03761-1.92361-0.23495-2.82907-0.55455 c-1.05753-0.37332-1.71744,0.25012-2.39655,0.82217c-0.24908,0.20979-0.29111,0.6532-0.07831,0.89423 c0.61194,0.69292,1.03159,1.56628,2.23462,1.59119c1.91541,0.0397,3.64609,1.08253,5.56152,1.2323 c1.08682,0.87878,2.52109,0.14534,3.49738,0.78488c1.36993,0.03146,2.14749-0.44156,2.4494-1.38828 C353.02106,225.43552,352.57013,224.63698,351.89243,224.7513z M51.86232,287.40179c-1.31992,0.49112-2.7161,0.88092-3.5098,2.23019 c-0.19281,0.32773-0.5182,0.57492-0.76285,0.87515c-1.12331,1.37869-2.88095,2.2374-3.38696,4.12476 c-0.01295,0.04834-0.09523,0.08865-0.15343,0.11264c-1.02032,0.42038-0.99514,1.42529-1.25093,2.26364 c-0.12302,0.40314,0.02525,0.78534,0.35619,1.03418c0.35332,0.26575,0.75858,0.19061,1.07553-0.07019 c0.87634-0.72107,2.01789-1.17374,2.42263-2.38364c0.1058-0.31631,0.37168-0.50967,0.67812-0.65387 c0.35335-0.16626,0.73824-0.36703,0.84212-0.75763c0.21128-0.79453,0.85149-1.08255,1.47837-1.42093 c0.2805-0.15143,0.58247-0.31619,0.7836-0.55252c0.87838-1.03198,1.90319-1.88281,3.04901-2.59543 c0.29072-0.18079,0.4726-0.4296,0.51661-0.78073c-0.01148-0.11948,0.00763-0.26056-0.04107-0.37213 C53.68879,287.83554,52.47208,287.1749,51.86232,287.40179z M284.89828,153.10199c0.13092-0.04497,0.38602-0.1004,0.61078-0.21518 c1.44525-0.7379,2.39719-2.01044,2.88052-3.44247c0.31796-0.94231,0.65167-1.63028,1.53625-2.01437 c0.37167-0.16139,0.66611-0.38193,0.85843-0.73592c0.39087-0.71965,0.74008-1.43269,1.31271-2.07536 c0.51248-0.5752,0.33932-1.58214,0.7912-2.31441c0.22211-0.35977,0.05316-0.75972-0.2858-1.02289 c-0.3425-0.26587-0.71869-0.23856-1.08463-0.03528c-0.11069,0.06146-0.2229,0.13564-0.30582,0.22931 c-0.73001,0.82474-1.6441,1.44682-2.43381,2.19122c-0.8111,0.76451-1.75424,1.54472-1.811,2.85497 c-0.02277,0.52643-0.33374,0.91342-0.76694,1.2731c-1.03638,0.8606-1.54388,2.16222-2.45645,3.14313 c-0.18762,0.20166-0.22421,0.60287-0.22092,0.91087C283.53009,152.50479,284.15372,153.09241,284.89828,153.10199z M208.89926,217.3526c-0.81506-0.21426-1.53902,0.13914-2.24805,0.3911c-1.12196,0.39874-2.07257,1.3844-3.43735,0.88574 c-0.11986-0.04381-0.3548,0.13261-0.49471,0.25453c-0.76631,0.66776-1.84877,0.55733-2.66298,1.09877 c-1.12466-0.4436-1.72641,0.61353-2.57625,0.94028c-0.71021,0.27299-0.91446,1.00356-0.69696,1.61284 c0.17865,0.50049,0.69246,0.79391,1.59744,0.81494c1.37759-0.30151,2.92464-0.64003,4.47827-0.94617 c0.75198-0.14816,1.45096-0.62326,2.20157-0.70921c1.86319-0.21332,3.10144-1.44771,4.46167-2.50159 c0.33611-0.26038,0.43703-0.63431,0.35669-1.04175C209.77457,217.62433,209.36119,217.47401,208.89926,217.3526z M373.43216,228.63896c-0.38382-0.32202-0.82822-0.21744-1.28696-0.20006c-0.43195,0.01636-0.86948-0.19026-1.30881-0.27708 c-0.62082-0.1227-1.20041-0.39801-1.89331-0.17607c-0.38443,0.12309-0.91055,0.01117-1.30853-0.15179 c-1.58139-0.64746-3.34644-0.05568-4.74771-0.75702c-0.96402-0.0874-1.54178,0.30458-1.75842,1.07042 c-0.18329,0.64769,0.12665,1.25739,0.90225,1.46844c1.28851,0.35065,2.50192,1.03862,3.9071,0.91113 c0.24884-0.02257,0.56885-0.01524,0.75204,0.11954c0.96155,0.70758,2.12195,0.62576,3.17355,0.66411 c1.25107,0.04561,2.49957-0.34056,3.78571,0.00783c0.51031,0.13815,0.97202-0.54927,0.78122-1.05037 C374.20221,229.66885,373.94302,229.06758,373.43216,228.63896z M156.70201,120.54624 c0.60222,0.87781,1.52882,1.50829,1.85028,2.61076c0.18591,0.63779,0.81223,0.97665,1.33586,1.35259 c0.10306,0.07403,0.23129,0.18781,0.33453,0.17509c0.85823-0.1059,1.72144-0.19923,2.56529-0.37978 c0.3288-0.07034,0.40564-0.46516,0.44196-0.79596c-0.09053-0.38875-0.24419-0.85685-0.61905-0.91812 c-1.21785-0.19919-1.67039-1.03465-2.00436-2.06645c-0.09174-0.28352-0.40179-0.4938-0.6028-0.74487 c-1.4879-1.8584-3.40216-3.27469-5.10281-4.91236c-0.22571-0.21735-0.52065-0.38686-0.81313-0.5058 c-0.60767-0.24699-1.22705,0.17216-1.20386,0.81184c0.01143,0.3149,0.06378,0.65035,0.19102,0.93472 c0.31311,0.69991,0.65002,1.47367,1.1093,1.99763c0.63495,0.72434,0.88455,1.92902,2.11037,2.08504 C156.44458,120.20966,156.60127,120.39936,156.70201,120.54624z M407.73782,194.54848 c-0.00806-0.3243-0.0542-0.6337-0.31363-0.87549c-0.88589-0.82568-1.34457-1.82268-1.30426-3.05936 c0.01422-0.43651-0.1427-0.87776-0.21317-1.31816c-0.04276-0.26706-0.14447-0.51619-0.39465-0.61826 c-0.55048-0.22452-0.95786-0.61417-1.39029-1.005c-0.42953-0.38823-1.11816-0.23206-1.29828,0.28009 c-0.49515,1.40785-0.86847,2.82837,0.03415,4.24399c0.48212,0.75616,0.8335,1.60826,1.38876,2.30083 c0.38287,0.47754,0.5723,0.91722,0.65677,1.51656c0.16855,1.19589,0.46649,1.40172,1.62762,1.45787 c0.25665-0.00052,0.51865,0.03302,0.76904-0.00655c0.91895-0.14516,1.27866-0.817,0.7536-1.65982 C407.78531,195.37456,407.74893,194.99135,407.73782,194.54848z M64.04895,279.60382 c-0.30756-0.28256-0.72818-0.43256-1.06885-0.20752c-0.9222,0.60913-2.09657,0.53055-3.00065,1.18246 c-0.47256,0.34082-1.02536,0.47961-1.64033,0.47379c-1.37526-0.01312-2.63353,0.56116-3.92902,0.92361 c-0.66885,0.18719-0.87814,0.94241-0.49162,1.38449c0.59496,0.68042,1.72494,1.02087,2.41982,0.55801 c0.95436-0.63586,1.92214-0.66064,2.94261-0.35779c0.55598,0.16504,1.03536,0.12976,1.3902-0.33975 c0.41683-0.55148,0.97788-0.55258,1.61164-0.50781c0.77722,0.29153,1.49582-0.0766,2.18146-0.41202 c0.92809-0.45416,0.99211-1.20782,0.24548-1.9957C64.48863,280.0723,64.28494,279.82065,64.04895,279.60382z M103.85748,293.22015 c-0.14655,0.03113-0.33336,0.07101-0.52026,0.11023c-0.71604,0.15024-3.53657,1.43497-4.0124,2.00201 c-0.48768,0.58112-1.02644,0.69824-1.70084,0.60663c-0.32439-0.04413-0.70618-0.06424-0.9038,0.20325 c-0.44514,0.6026-1.13462,1.18073-0.93529,2.00461c0.17832,0.73703,0.90858,0.78714,1.57948,0.80859 c0.24596,0.0079,0.48593,0.1554,0.73179,0.22864c0.32809,0.09778,0.66197,0.05643,0.91248-0.15765 c0.99372-0.84937,2.18188-1.29297,3.39159-1.7092c0.36504-0.12558,0.79126-0.33298,0.87515-0.70322 c0.18468-0.81479,0.70926-1.32956,1.29294-1.84409c0.24519-0.21622,0.33426-0.54929,0.21133-0.88583 C104.63158,293.47897,104.30415,293.30032,103.85748,293.22015z M430.90979,234.87514 c0.38116-0.9998-0.0932-1.74794-0.86243-2.34476c-0.67078-0.5204-1.53583-0.20587-1.53644,0.64082 c-0.00046,0.63696-0.07928,1.09735-0.57486,1.51479c-0.25919,0.2184-0.14383,0.60461-0.11636,1.21281 c0.11169,0.64977,0.15082,1.62918,0.47647,2.50172c0.20886,0.55968,0.22803,1.10933,0.35489,1.65816 c0.10031,0.43388,0.42892,0.62328,0.83377,0.69295c0.43869,0.0755,0.90408-0.1465,0.93176-0.5005 c0.10712-1.36792,1.09399-2.65865,0.39484-4.09314C430.58786,235.69916,430.74228,235.31456,430.90979,234.87514z"/></g></svg>