<?xml version="1.0" encoding="UTF-8" standalone="no"?><svg xmlns="http://www.w3.org/2000/svg" xmlns:xlink="http://www.w3.org/1999/xlink" contentScriptType="text/ecmascript" fill="#000000" width="504.6" zoomAndPan="magnify" contentStyleType="text/css" viewBox="4.1 10.8 504.6 497.8" height="497.8" preserveAspectRatio="xMidYMid meet" version="1"><g id="change1_1"><path fill="#e4e8eb" d="M256,16c-72.54,0-131.35,58.81-131.35,131.35V323.5l-21.26,6.78 c-38.94,12.41-67.63,45.61-74.27,85.94L16,496h480l-13.12-79.78c-6.63-40.33-35.33-73.53-74.27-85.94l-21.26-6.78V147.35 C387.35,74.81,328.54,16,256,16"/></g><g id="change2_1"><path fill="#cad0d7" d="M496,496l-13.12-79.78c-6.63-40.33-35.33-73.53-74.27-85.94l-21.26-6.78V147.35 C387.35,74.81,328.54,16,256,16h-26.39c-33,9.07-41.92,14.9-65.51,37.52l35.72,1.41c47.92,1.89,85.79,41.28,85.79,89.23V276.6 c0,6.52-3.76,12.46-9.65,15.26l-10.3,4.88c-5.89,2.79-9.65,8.73-9.65,15.26v76.97c0,6.47,3.69,12.37,9.51,15.19l18.8,9.12V496 L496,496z"/></g><g id="change3_1"><path fill="#efb338" d="M256,143.42h52.19c24.88,0,45.06,20.17,45.06,45.06v60.25c0,24.88-20.17,45.06-45.06,45.06H203.81 c-24.88,0-45.06-20.17-45.06-45.06v-60.25c0-24.88,20.17-45.06,45.06-45.06L256,143.42z"/></g><g id="change4_1"><path fill="#d39629" d="M353.25,248.73v-60.25c0-24.88-20.17-45.06-45.06-45.06h-22.61c0,0.25,0.02,0.49,0.02,0.74V276.6 c0,6.52-3.76,12.46-9.65,15.26l-4.05,1.92h36.29C333.08,293.78,353.25,273.61,353.25,248.73L353.25,248.73z"/></g><g id="change5_2"><path fill="#51a6c0" d="M301.13,333.13l24.6-50.02l-60.79-43.84c-3.48-2.51-7.66-3.86-11.95-3.86s-8.47,1.35-11.95,3.86 l-60.79,43.84l24.6,50.02"/></g><g id="change6_2"><path fill="#3a8fa3" d="M285.6,251.21v25.39c0,6.52-3.76,12.46-9.65,15.26l-10.3,4.88c-5.89,2.79-9.65,8.73-9.65,15.26 v20.33h48.13l24.6-50.02L285.6,251.21z"/></g><g id="change5_1"><path fill="#51a6c0" d="M328.74,395.98v-37.39c0-14.5-32.57-26.26-72.74-26.26s-72.74,11.75-72.74,26.26v37.39 c0,14.5,32.57,26.26,72.74,26.26S328.74,410.48,328.74,395.98L328.74,395.98z"/></g><g id="change6_1"><path fill="#3a8fa3" d="M328.74,395.98v-37.39c0-14.5-32.57-26.26-72.74-26.26v56.64c0,6.47,3.69,12.37,9.51,15.19 l18.8,9.12v6.89C310.42,416.19,328.74,406.86,328.74,395.98L328.74,395.98z"/></g><g id="change7_1"><path d="M507.64,494.09c-2.01-10.77-9.77-58.59-11.74-68.59c-0.63-3.48-1.24-7.44-1.93-11.15c-7.43-44.41-40.57-81.49-83.67-94.16 c-2.39-0.73-8.25-2.52-13.19-4.02c-0.66-53.66-1.53-116.3-2.54-168.98C393.86,72.88,330.38,10.83,256.1,13.58 c-0.04,0-0.08-0.01-0.12-0.02c-16.23-0.49-32.63,2.06-48.12,7.47c-15.5,5.41-30,13.82-42.57,24.55 c-29.39,24.65-47.36,62.85-47.92,101.6c-1.01,52.7-1.85,115.29-2.53,168.96c-3.28,1-6.52,1.99-6.52,1.99 c-14.36,4.03-28.49,9.75-40.72,18.41c-27.57,18.89-45.64,49.02-50.36,82.08c-0.77,4.66-2.75,15.65-3.55,20.57l-9.37,54.87 c-0.1,0.61-0.17,1.29-0.17,1.93c-0.03,6.49,5.21,11.77,11.7,11.8c0.11,0,120,0.51,120.12,0.51c107.74,0.18,254.33,0.33,362.05-0.69 C504.44,506.54,508.73,500.47,507.64,494.09z M118.99,483.74c10.42-20.49,14.29-48.4,6.43-69.89c-0.75-1.91-3.42-2.4-4.79-0.86 c-1.42,1.52-2.59,3.09-3.69,4.66c-3.16,4.55-5.77,9.56-7.82,14.58c-5.33,13.24-7.79,27.02-7.41,41.29 c0.14,3.41,0.44,6.85,0.98,10.27c-24.78,0.08-49.13,0.19-72.82,0.31c2.9-18.5,7.32-47.41,8.63-54.92c0.53-3.24,1.03-6.77,1.61-10.31 c3.83-25.9,18.27-49.88,39.63-65.17c7.62-5.52,16.11-9.95,25-13.1c5.55-2.02,17.33-5.78,22.91-7.68c4.03-1.23,6.94-5,6.89-9.42 c-0.62-54.09-1.61-119.34-2.56-173.31c-0.07-3.68-0.11-7.81,0.1-11.46C134.84,73,190.46,20.05,256,18.43c0.04,0,0.07-0.01,0.11-0.01 c70.3,1.98,127.02,61.3,123.94,131.77c-0.62,36.82-1.54,88.53-1.97,125.5l-0.59,47.81c-0.05,4.1,2.54,7.96,6.64,9.32 c7.33,2.49,19.01,6.15,26.1,8.86c32.23,12.23,56.41,42.31,61.55,76.33c0.42,2.88,1.33,8.17,1.75,11.17 c0.98,7.24,5.79,36.34,8.74,54.94c-23.75-0.12-48.15-0.23-73-0.31c3.77-23.66-2.66-53.03-17.89-70.82 c-1.36-1.53-4.04-1.06-4.79,0.86c-2.77,7.05-3.79,14.63-4.08,22.05c-0.38,14.27,2.12,28.04,7.45,41.28 c0.93,2.21,1.94,4.42,3.05,6.58c-28.32-0.09-57.15-0.14-86.16-0.18v-60.29c12.71-2.99,23.87-8.48,29.49-17.74 c4.71-7.84,2.87-17.28-2.43-24.07c0.82-5.11,1.53-10.23,2.2-15.37l0.89-7.47c0.11-2.2-0.15-4.66-0.86-6.71 c-3.62-10.61-13.48-16.74-23-21.21c0.5-0.71,1.01-1.42,1.5-2.14c6.48-9.34,12.62-18.89,18.54-28.58c1.48-0.74,2.93-1.53,4.33-2.41 c15.11-9.19,25.27-25.6,26.67-43.19c0.06-2.15,0.24-4.96,0.16-7.09c-0.11-6.1-0.59-22.41-0.75-28.7c-0.18-9.24-0.71-19.41-0.93-28.7 c-0.05-2.08-0.31-4.8-0.5-6.89c-1.31-8.95-4.66-17.76-10.15-24.88c-10.41-13.98-27.07-21.48-44.16-20.82 c-1.57-21.29-10.42-41.24-25.35-56.77c-16.52-17.19-38.75-27.17-62.57-28.11l-37.34-1.47c-1.42-0.05-2.54,1.02-2.6,2.4 c-0.05,1.38,1.02,2.54,2.4,2.6l37.34,1.47c44.57,1.75,79.91,36.46,83.13,80.23c-15.55,0.93-31.36,1.98-46.87,3.33 c-0.02,0-0.04,0.01-0.07,0.01c-12.73-1.09-25.47-2.01-38.2-2.79c-5.87-0.29-14.04-1.1-19.85-0.77 c-22.6,1.27-42.83,19.03-47.24,41.33c-0.17,1.01-0.63,3.24-0.78,4.25c-0.06,0.89-0.33,3.39-0.37,4.3 c-0.76,15.8-1.04,34.51-1.6,50.42c-0.07,5.11-0.53,13.13,0.12,18.14c1.97,20.73,16.32,38.36,35.04,46.02 c1.13,1.74,2.26,3.47,3.42,5.2c3.31,4.95,6.68,9.88,10.27,14.7c1.59,2.16,5.07,0.46,4.33-2.13c-2.66-9.3-5.74-18.41-8.98-27.48 c19.13-10.87,37.9-22.82,56.05-35.13c1.4-0.95,3.41-2.39,3.66-2.45c2.57-1.33,5.8-1.31,8.25,0.23c1.14,0.72,6.39,4.55,8.05,5.69 c10.97,7.79,22.11,15.34,33.41,22.65c-1.42,2.76-3.72,5.05-6.61,6.42l-10.3,4.88c-6.73,3.19-11.08,10.07-11.08,17.51v8.66 c-22.03-2.32-45.05-0.1-64.9,6.23c-12.42,4.29-28.15,11.48-32.74,25.04c-0.71,2.05-0.96,4.5-0.85,6.7l0.89,7.47 c0.65,4.98,1.32,9.96,2.14,14.94c0.1,0.64,0.21,1.27,0.32,1.91c-0.83,1.17-1.62,2.38-2.29,3.68c-4.38,8.6-1.39,18.42,5.55,24.39 c18.14,15.14,52.12,15.64,74.37,13.64c11.76,1.91,29.6,2.6,45.84-0.34v59.25C240.64,483.52,178.7,483.57,118.99,483.74 L118.99,483.74z M186.13,276.66c-8.69-5.18-14.67-14.45-16-24.5c-0.08-1.51-0.32-3.32-0.3-4.85c-0.3-14.8-0.9-33.11-1.37-47.84 c-0.07-3.9-0.58-11.81-0.26-15.57c0.92-16.4,14.68-31.11,31.14-33.85c5.09-0.87,13.19-0.99,18.4-1.41 c12.73-0.78,25.47-1.71,38.2-2.79c0.02,0,0.04,0.01,0.07,0.01c12.76,1.09,25.51,2.02,38.27,2.8c2.51,0.19,5.68,0.33,8.86,0.52 v106.63c-6.76-5.24-13.58-10.39-20.48-15.44c-3.18-2.24-6.36-4.86-9.82-7c-10.12-6.09-23.53-6.07-33.52,0.23 c-3.74,2.41-6.29,4.63-9.67,7.17C214.88,252.2,200.16,264.2,186.13,276.66L186.13,276.66z M312.66,150.07 c5.29,0.9,10.25,2.98,14.58,5.92l-19.11,19.11v-25.58C309.78,149.68,311.33,149.85,312.66,150.07L312.66,150.07z M327.62,275.48 c-3.2-2.67-6.43-5.31-9.67-7.93l24.29-24.29c-0.03,1.37-0.06,2.73-0.08,4.05c0.02,1.54-0.24,3.33-0.3,4.85 C340.61,261.75,335.23,270.15,327.62,275.48L327.62,275.48z M343.13,211.5l-34.99,34.99v-16.73l35.56-35.56 c-0.07,2.07-0.14,3.99-0.18,5.26C343.39,203.29,343.26,207.34,343.13,211.5z M343.88,184.85c0.02,0.57,0.02,1.3,0.01,2.1 l-35.75,35.75v-16.73l33.05-33.05C342.75,176.69,343.7,180.71,343.88,184.85L343.88,184.85z M308.13,253.57l34.77-34.77 c-0.18,5.76-0.34,11.59-0.49,17.21l-28.38,28.38c-1.96-1.57-3.93-3.13-5.9-4.68V253.57z M308.13,198.9v-16.73l23.09-23.09 c2.98,2.65,5.55,5.74,7.59,9.14L308.13,198.9z M305.75,285.88c3.72,2.37,7.45,4.72,11.2,7.04c-4.35,11.39-8.45,22.88-11.99,34.56 c-8.38-2.89-17.29-4.94-26.43-6.2V312c0-5.53,3.23-10.63,8.22-13l10.3-4.88C300.81,292.34,303.82,289.42,305.75,285.88 L305.75,285.88z M297.31,348.69c6.33,1.38,12.38,3.04,17.87,5.92c2.4,1.36,3.77,2.3,5.3,4.03c0.5,4.32,1.04,8.66,1.63,13 c-7.1-4.21-15.13-6.97-22.56-9.04c-6.92-1.76-13.95-3.08-21.02-3.99v-12.72C284.85,346.53,291.13,347.44,297.31,348.69z M300.28,408.58c-0.29-0.17-0.58-0.33-0.88-0.47l-12.76-6.19c-4.92-2.39-8.1-7.47-8.1-12.94v-5.55c10.99,1.19,22.55,3.41,32.2,7.7 c3.13,1.45,5.49,2.93,7.33,4.85c0.23,0.25,0.25,0.14,0.35,0c0.08-0.13,0.23-0.15,0.14,0.26c-1.07,2.71-3.8,4.56-6.77,6.6 C308.12,405.04,304.26,406.92,300.28,408.58L300.28,408.58z M273.53,358.05c-20.41-2.02-41.13-0.45-60.97,4.99 c-7.33,2.26-15.67,5.14-22.83,9.6c0.3-2.17,0.6-4.35,0.88-6.53l0.89-7.47c0.05-0.14,0.1-0.11,0.14-0.17 c0.46-0.47,0.84-0.9,1.37-1.33c2.32-1.99,5.91-3.72,9.14-4.93c8.12-3,17.24-4.64,26.02-5.75c14.91-1.7,30.24-2.15,45.36-1V358.05z M192.5,395.98c2.21-2.31,4.82-4.02,8.4-5.57c20.85-8.44,49.74-9.13,72.63-7.45v6c0,7.37,4.29,14.22,10.92,17.44l9.45,4.59 c-12.22,4.23-25.36,6.64-37.9,8.83c-19.5-2.26-39.73-5.9-56.36-15.88c-3.16-2.12-6.01-4.2-7.21-7.17 C192.27,396.23,192.39,396.04,192.5,395.98L192.5,395.98z"/></g><g id="change8_1"><path fill="#ffffff" d="M103.48,361.95c-12.97,8.58-24.21,19.78-32.02,33.25c-6.68,11.06-10.51,23.5-12.55,36.22 c-2.41,12.96-5,25.87-8.15,38.7c-0.06,0.26-0.33,0.42-0.59,0.35c-0.23-0.06-0.39-0.28-0.37-0.51c0.89-10.53,2.16-21,3.58-31.44 c1.11-7.9,1.97-15.88,4.16-23.61c3.69-12.99,10.47-25.17,19.65-35.04c7.29-7.86,16.09-14.34,25.82-18.77 c0.25-0.11,0.53,0,0.65,0.24C103.76,361.57,103.68,361.83,103.48,361.95z"/></g><g id="change8_3"><path fill="#ffffff" d="M119.39,355.14c-1.72,3.37-5.45,4.77-8.97,3.39c-0.35-0.14-0.51-0.54-0.39-0.88 c1.41-3.61,5.61-5.21,9.06-3.43C119.43,354.39,119.56,354.8,119.39,355.14L119.39,355.14z"/></g><g id="change8_2"><path fill="#ffffff" d="M182.32,182.16c2.28,15.5,2.35,31.16,1.58,46.78c-0.32,5.2-0.74,10.4-1.58,15.59 c-0.07,0.52-0.9,0.54-0.97,0c-2.28-15.5-2.35-31.17-1.59-46.78c0.32-5.2,0.74-10.39,1.58-15.59 C181.42,181.63,182.25,181.62,182.32,182.16z"/></g></svg>